<?xml version="1.0" standalone="no"?>
<!DOCTYPE svg PUBLIC "-//W3C//DTD SVG 1.1//EN" "http://www.w3.org/Graphics/SVG/1.1/DTD/svg11.dtd" >
<svg>
<metadata>
Created by FontForge 20090914 at Sat Jul 21 08:10:22 2012
 By www-data
Copyright (c) 2011 by Sergio D&#195;&#173;az. All rights reserved.
</metadata>
<defs>
<font id="JustVector" horiz-adv-x="1705" >
  <font-face 
    font-family="Just Vector"
    font-weight="400"
    font-stretch="normal"
    units-per-em="2048"
    panose-1="2 0 5 9 0 0 0 2 0 4"
    ascent="1536"
    descent="-512"
    x-height="1427"
    cap-height="1430"
    bbox="-2 -199.999 1728 1440"
    underline-thickness="102"
    underline-position="-102"
    unicode-range="U+0020-U+FB04"
  />
<missing-glyph horiz-adv-x="1024" 
 />
    <glyph glyph-name=".notdef" horiz-adv-x="1024" 
 />
    <glyph glyph-name="space" unicode=" " horiz-adv-x="1024" 
 />
    <glyph glyph-name="exclam" unicode="!" horiz-adv-x="1707" 
d="M1228 1412c20.667 1.33301 41.6641 0.669922 62.9971 -1.99707c18 -2 37.833 -6.16699 59.5 -12.5s42.834 -16.166 63.501 -29.499c30.667 2 53.667 -11 69 -39c4 -7.33301 8.5 -16.666 13.5 -27.999s9 -23.5 12 -36.5s4.5 -26 4.5 -39s-2.66699 -24.5 -8 -34.5
c-2 -2 -4.33301 -1.83301 -7 0.5s-5.33398 5.5 -8.00098 9.5s-5.33398 9.33301 -8.00098 16l-8 -23c-2.66699 -6 -6 -12.167 -10 -18.5s-8.66699 -11.5 -14 -15.5c0.666992 -21.333 -0.666016 -40.833 -3.99902 -58.5s-7.33301 -33.5 -12 -47.5s-9.33398 -26 -14.001 -36
s-8.33398 -17.333 -11.001 -22c-2.66699 -5.33301 -3.5 -10.666 -2.5 -15.999s2.83301 -10.666 5.5 -15.999c0.666992 -2 2.66699 -8.66699 6 -20s7.16602 -25.5 11.499 -42.5s8.83301 -35.667 13.5 -56s9 -40.333 13 -60s7.33301 -38.334 10 -56.001
s3.66699 -31.834 3 -42.501c-0.666992 -16.667 -3.16699 -33.834 -7.5 -51.501s-9.5 -34.334 -15.5 -50.001s-12.5 -29.834 -19.5 -42.501s-13.833 -22.334 -20.5 -29.001c1.33301 -14 1 -27.167 -1 -39.5s-4.83301 -23.833 -8.5 -34.5s-7.66699 -20.334 -12 -29.001
s-8.16602 -15.667 -11.499 -21c-3.33301 -6 -7.16602 -15.167 -11.499 -27.5l-13.5 -40c-4.66699 -14.333 -9 -28.833 -13 -43.5s-7 -27 -9 -37c-4 -19.333 -6.33301 -38.333 -7 -57s1 -31 5 -37c2 -3.33301 5.66699 -8 11 -14s10.5 -12.5 15.5 -19.5s9.33301 -14 13 -21
s5.16699 -12.833 4.5 -17.5c-0.666992 -5.33301 -3.5 -10.5 -8.5 -15.5s-10.667 -9.5 -17 -13.5s-13.166 -7.33301 -20.499 -10s-13.333 -4 -18 -4s-10.5 0.833008 -17.5 2.5s-14 4.16699 -21 7.5s-13.333 7.5 -19 12.5s-9.83398 10.833 -12.501 17.5
c-5.33301 13.333 -8.16602 30 -8.49902 50s1.16699 36.667 4.5 50c2 6.66699 5.83301 22.667 11.5 48s10.667 54.833 15 88.5s7.16602 68.667 8.49902 105s-1.66699 69.166 -9 98.499c-17.333 -8 -36.666 -14 -57.999 -18s-41.333 -7 -60 -9
c-22 -2.66699 -44 -3.66699 -66 -3c-4 -20 -8.33301 -39.667 -13 -59c-4 -16.667 -8.66699 -34.334 -14 -53.001s-11 -35.667 -17 -51c-2 -3.33301 -3.5 -11.333 -4.5 -24s-1.66699 -27.334 -2 -44.001s-0.5 -34.167 -0.5 -52.5v-50.5c0 -15.333 1 -32 3 -50
s4.33301 -34.667 7 -50c2.66699 -18 6.33398 -36.333 11.001 -55c5.33301 -4 10 -8.66699 14 -14c3.33301 -4.66699 6.5 -10 9.5 -16s3.83301 -12.333 2.5 -19c-2.66699 -13.333 -11 -23.666 -25 -30.999s-28.333 -11 -43 -11c-7.33301 0 -15.166 1.33301 -23.499 4
s-15.833 6.66699 -22.5 12s-12.167 11.5 -16.5 18.5s-6.5 15.167 -6.5 24.5s0.166992 21.166 0.5 35.499s0.833008 29.833 1.5 46.5s1.16699 33.5 1.5 50.5s0.166016 33.167 -0.500977 48.5c-1.33301 30.667 -2.33301 56.667 -3 78s-3.66699 41.666 -9 60.999
c-2 9.33301 -5.16699 22.333 -9.5 39s-8.66602 34.834 -12.999 54.501s-8.33301 40.167 -12 61.5s-5.83398 41.666 -6.50098 60.999c-3.33301 0 -7.66602 1.33301 -12.999 4c-2.66699 1.33301 -4.66699 2.66602 -6 3.99902l-28 -31l-25.5 -28
c-9 -10 -17.5 -18.667 -25.5 -26c0.666992 -5.33301 2 -11.5 4 -18.5s3.66699 -13.833 5 -20.5s2.66602 -12.667 3.99902 -18s2 -9 2 -11c0 -8.66699 7.66699 -15.667 23 -21c3.33301 -1.33301 8.33301 -3.83301 15 -7.5s13 -8 19 -13s11.333 -10.333 16 -16
s6.66699 -11.5 6 -17.5c0 -6 -3.16699 -10.667 -9.5 -14s-14.5 -5.33301 -24.5 -6s-21.167 0 -33.5 2s-24.5 5.66699 -36.5 11c-2 0.666992 -4.66699 4.83398 -8 12.501s-7 16.834 -11 27.501s-8 22.5 -12 35.5l-11.5 37c-3.66699 11.667 -7 21.834 -10 30.501
s-4.83301 14.667 -5.5 18c-2.66699 9.33301 -4.66699 17 -6 23s-0.333008 13 3 21c2 4 4.5 9.83301 7.5 17.5s5.83301 16 8.5 25s4.83398 18.333 6.50098 28s2.16699 18.167 1.5 25.5s-4.16699 15.5 -10.5 24.5s-14.166 17.333 -23.499 25s-19.333 14 -30 19
s-20.667 7.5 -30 7.5c-7.33301 0 -15.166 -2.33301 -23.499 -7s-17.166 -10.5 -26.499 -17.5s-18.5 -14.5 -27.5 -22.5s-17.5 -15 -25.5 -21c-9.33301 -7.33301 -19 -15.333 -29 -24s-19.167 -17 -27.5 -25l-22.5 -21c-6.66699 -6 -11.334 -10 -14.001 -12
c-2 -1.33301 -5.83301 -6.33301 -11.5 -15s-12.334 -19.667 -20.001 -33l-24.5 -44l-25.5 -47.5c-8.33301 -15.667 -15.666 -30.167 -21.999 -43.5s-10.833 -23.666 -13.5 -30.999c-2 -4.66699 -4.5 -13.167 -7.5 -25.5s-8 -24.666 -15 -36.999s-16.333 -23.166 -28 -32.499
s-26.834 -13.666 -45.501 -12.999c-8.66699 0.666992 -16.334 3.5 -23.001 8.5s-10 12 -10 21s4.66699 19.833 14 32.5s26 27.334 50 44.001c6 14 12.333 28 19 42s13 26.667 19 38s11 21.166 15 29.499s6.33301 13.833 7 16.5s2.66699 13.167 6 31.5s8 41.166 14 68.499
s13.167 58 21.5 92s17.833 68.333 28.5 103s22.167 64.834 34.5 90.501s24 47.167 35 64.5s20.833 30.833 29.5 40.5s14.334 15.5 17.001 17.5c5.33301 4 8.83301 7.16699 10.5 9.5s0.166992 4.83301 -4.5 7.5c-2.66699 1.33301 -9.66699 7.83301 -21 19.5
s-23 28.834 -35 51.501s-22 50.834 -30 84.501s-9.66699 73.167 -5 118.5c1.33301 10.667 4 14 8 10s7.66699 -18.333 11 -43c1.33301 -12 5 -27.5 11 -46.5s14.333 -38.333 25 -58s23.834 -38.167 39.501 -55.5s34.5 -30.333 56.5 -39c2 -0.666992 8.5 1.33301 19.5 6
s30.667 10.667 59 18s67.333 15 117 23s114.167 15 193.5 21c0.666992 14 1.5 27.667 2.5 41s2.16699 25.666 3.5 36.999c1.33301 12.667 3 25 5 37c-4.66699 3.33301 -8.66699 7.66602 -12 12.999c-3.33301 4 -6.33301 9.16699 -9 15.5s-4.33398 13.833 -5.00098 22.5
c-5.33301 -8.66699 -10 -14.334 -14 -17.001s-9.33301 -3.33398 -16 -2.00098c-3.33301 0.666992 -6 4.83398 -8 12.501s-3.16699 17.167 -3.5 28.5s-0.333008 23.5 0 36.5s0.833008 25.5 1.5 37.5c0.666992 11.333 4.16699 21.166 10.5 29.499s13.5 15.333 21.5 21
s16.167 10 24.5 13s15.166 4.83301 20.499 5.5c6.66699 3.33301 13.334 5.66602 20.001 6.99902s12.667 2.33301 18 3c6 0.666992 11.667 1 17 1c10.667 8.66699 24.667 16 42 22c14.667 5.33301 33.667 8.83301 57 10.5s52.333 -0.166016 87 -5.49902z" />
    <glyph glyph-name="quotedbl" unicode="&#x22;" horiz-adv-x="1707" 
d="M1049 1062c-5.33301 -5.33301 -12.998 -7.83203 -22.998 -7.49902s-20 0.5 -30 0.5c-3.33301 -8.66699 -5.66602 -17.667 -6.99902 -27s-4 -17.666 -8 -24.999c8 -6.66699 17.833 -11.667 29.5 -15s23.667 -6.5 36 -9.5s24.166 -6.5 35.499 -10.5
s20.666 -9.66699 27.999 -17c16 6 25.833 13.167 29.5 21.5s5.66699 17.5 6 27.5s0.833008 20.333 1.5 31s6 21 16 31c14.667 2 27 1.33301 37 -2s18.167 -8.33301 24.5 -15s11.833 -14.334 16.5 -23.001s9 -17.334 13 -26.001c-3.33301 -3.33301 -8 -5.66602 -14 -6.99902
s-12.5 -2 -19.5 -2s-14.167 0.333008 -21.5 1s-14.333 0.666992 -21 0c-7.33301 -5.33301 -12.666 -12.5 -15.999 -21.5s-8 -16.833 -14 -23.5c3.33301 -8 8 -14.667 14 -20l18 -15.5c6 -5 11.667 -10.667 17 -17s9 -13.833 11 -22.5
c39.333 10.667 79.166 20.334 119.499 29.001s81.5 16.667 123.5 24c5.33301 6 9.5 13.167 12.5 21.5l9 25c3 8.33301 6.83301 15.833 11.5 22.5s11.667 11 21 13c29.333 -5.33301 49.833 -19.666 61.5 -42.999s18.834 -51.333 21.501 -84c-8 -14 -18.5 -23.333 -31.5 -28
s-26.333 -5.66699 -40 -3s-26.5 8 -38.5 16s-21 18 -27 30c-39.333 -6 -77.833 -12.833 -115.5 -20.5s-75.167 -15.834 -112.5 -24.501c-1.33301 -4 -1.83301 -10 -1.5 -18s0.666016 -16.667 0.999023 -26s0.166016 -18.666 -0.500977 -27.999s-2.66699 -17.666 -6 -24.999
c12.667 -8.66699 23.5 -12.167 32.5 -10.5s17.667 5.16699 26 10.5l25.5 16c8.66699 5.33301 18.667 7.66602 30 6.99902c6.66699 -6.66699 11.5 -17 14.5 -31s3.5 -28 1.5 -42s-6.83301 -25.833 -14.5 -35.5s-18.5 -13.5 -32.5 -11.5c-16 1.33301 -26 8.66602 -30 21.999
s-6.33301 28.666 -7 45.999c-6 -1.33301 -11 -1.83301 -15 -1.5s-7.5 1.16602 -10.5 2.49902l-9 4c-3 1.33301 -6.83301 2 -11.5 2c-8.66699 -5.33301 -16.5 -11.5 -23.5 -18.5l-20.5 -21c-6.66699 -7 -13.667 -13.667 -21 -20s-16 -11.5 -26 -15.5
c1.33301 -16.667 6.33301 -27.167 15 -31.5s18.834 -6.66602 30.501 -6.99902l36 -1c12.333 -0.333008 23.166 -4.5 32.499 -12.5c-1.33301 -27.333 -11.166 -46.333 -29.499 -57s-41.5 -16.667 -69.5 -18c-1.33301 11.333 -1.66602 22 -0.999023 32
s0.333984 19.5 -0.999023 28.5s-4.5 17.167 -9.5 24.5s-13.833 14 -26.5 20c-12.667 -2 -24 -5.33301 -34 -10s-19.5 -9.66699 -28.5 -15l-27 -15.5c-9 -5 -19.5 -8.83301 -31.5 -11.5c-0.666992 -11.333 0.833008 -20.833 4.5 -28.5s7.16699 -15.834 10.5 -24.501
c3.33301 -2 8.5 -2.83301 15.5 -2.5s14.5 0.666016 22.5 0.999023s15.5 -0.166992 22.5 -1.5s12.167 -5.33301 15.5 -12c0 -14 -4.5 -26.833 -13.5 -38.5s-19.667 -21 -32 -28s-25.5 -10.833 -39.5 -11.5s-26.333 3 -37 11c-0.666992 8.66699 0 15.667 2 21
s4.83301 10 8.5 14l11 11.5c3.66699 3.66699 6.83398 8.16699 9.50098 13.5c-7.33301 8 -13.166 17.167 -17.499 27.5l-13.5 32.5l-70 -28.5c-23.333 -9.66699 -50.333 -15.167 -81 -16.5c0 -4.66699 -0.666992 -8.5 -2 -11.5l-4 -9c-1.33301 -3 -2.33301 -6.33301 -3 -10
s-0.333984 -8.5 0.999023 -14.5c-0.666992 -7.33301 0.833008 -12.166 4.5 -14.499s7.83398 -4.16602 12.501 -5.49902s9.16699 -3 13.5 -5s6.83301 -6 7.5 -12c2.66699 -17.333 -0.833008 -30.833 -10.5 -40.5s-21.5 -15.834 -35.5 -18.501s-27.667 -1.5 -41 3.5
s-22.333 13.5 -27 25.5c-0.666992 11.333 1.83301 19.833 7.5 25.5l17.5 17c6 5.66699 10.667 12.334 14 20.001s3 19.167 -1 34.5c-9.33301 4 -20.166 6.5 -32.499 7.5s-24.833 1.66699 -37.5 2s-24.834 1.33301 -36.501 3s-21.834 4.83398 -30.501 9.50098
c-5.33301 -2 -9.33301 -4.83301 -12 -8.5s-5.33398 -7.83398 -8.00098 -12.501s-5.33398 -9 -8.00098 -13s-6 -7.33301 -10 -10c0.666992 -5.33301 2.5 -9.83301 5.5 -13.5l9 -10.5c3 -3.33301 5.33301 -7.16602 7 -11.499s2.16699 -10.166 1.5 -17.499
c-12.667 -4.66699 -26.167 -7.16699 -40.5 -7.5s-27.333 1.83398 -39 6.50098s-21 12 -28 22s-9.16699 23 -6.5 39c7.33301 8 15.666 13 24.999 15s18.666 3.83301 27.999 5.5s18.166 4.5 26.499 8.5s14.833 12 19.5 24c-15.333 17.333 -30.166 35 -44.499 53
s-24.833 40 -31.5 66c-28.667 -6 -56 -13.333 -82 -22s-51.667 -17.667 -77 -27l-75.5 -28.5c-25 -9.66699 -50.5 -18.834 -76.5 -27.501c-5.33301 -12.667 -9.33301 -26.334 -12 -41.001s-9 -25.667 -19 -33c-8 -2 -14.333 -3.16699 -19 -3.5s-9.16699 -0.333008 -13.5 0
s-9.16602 0.833008 -14.499 1.5s-12.333 1.33398 -21 2.00098c-7.33301 11.333 -12 25.166 -14 41.499s-1 32.333 3 48s10.667 29.167 20 40.5s21.333 17.666 36 18.999c8 2 13.833 1.5 17.5 -1.5s6.66699 -6.5 9 -10.5l7 -11.5
c2.33301 -3.66699 6.5 -5.83398 12.5 -6.50098c54 12.667 105.833 27.5 155.5 44.5s101.5 31.833 155.5 44.5c-4 22 -2.83301 43 3.5 63s13.833 38.333 22.5 55s16.667 31.334 24 44.001s10 23.167 8 31.5s-10.667 13.833 -26 16.5s-41 2.66699 -77 0
c-5.33301 16 -7 31 -5 45s6.16699 26 12.5 36s14.333 17.667 24 23s19.5 7.66602 29.5 6.99902c16.667 -2 27.167 -8 31.5 -18s7 -21.5 8 -34.5s2.66699 -25.667 5 -38s10.166 -21.833 23.499 -28.5c12 6.66699 23.333 14 34 22l32.5 23.5
c11 7.66699 22.833 14.834 35.5 21.501s26.667 11.667 42 15c2 12 1.66699 21.5 -1 28.5s-4.66699 14.833 -6 23.5c-1.33301 4.66699 -4.5 7.33398 -9.5 8.00098s-10.5 0.833984 -16.5 0.500977s-11.667 -0.333008 -17 0s-9 2.5 -11 6.5v53
c6 5.33301 14.167 9.16602 24.5 11.499s20.833 3.16602 31.5 2.49902s20.667 -2.83398 30 -6.50098s16 -8.83398 20 -15.501c2.66699 -17.333 0.166992 -28.833 -7.5 -34.5s-17.5 -9.16699 -29.5 -10.5c1.33301 -11.333 4.5 -20.5 9.5 -27.5s9.16699 -15.167 12.5 -24.5
c24.667 10 54 15 88 15h102c5.33301 4.66699 9.16602 10.834 11.499 18.501s3.83301 16.5 4.5 26.5c1.33301 6.66699 0 11 -4 13s-8.5 3.33301 -13.5 4s-9.16699 2.16699 -12.5 4.5s-3.66602 7.5 -0.999023 15.5c2 20 9 32.667 21 38s25 5.83301 39 1.5
s26.5 -12.333 37.5 -24s16.5 -24.5 16.5 -38.5zM1110 727.001c8.66699 4.66699 14.498 12.333 17.498 23s4.83301 22.667 5.5 36s0.5 27.166 -0.5 41.499s-1.16699 27.833 -0.5 40.5c-15.333 12.667 -29.666 18 -42.999 16s-24.5 -8.33301 -33.5 -19s-15.333 -24 -19 -40
s-3.66699 -31.333 0 -46s11.334 -27.167 23.001 -37.5s28.5 -15.166 50.5 -14.499zM775 645c17.333 -2 35.8301 0.666016 55.4971 7.99902s37.5 17.5 53.5 30.5s29 27.833 39 44.5s14 33.667 12 51c-2 16.667 -10.667 32.334 -26 47.001s-33.666 26.667 -54.999 36
s-44 14.833 -68 16.5s-45.333 -1.83301 -64 -10.5c-16 -7.33301 -27.667 -17.833 -35 -31.5s-11.166 -28.5 -11.499 -44.5s2.33398 -32.333 8.00098 -49s13.167 -32 22.5 -46s20 -25.833 32 -35.5s24.333 -15.167 37 -16.5z" />
    <glyph glyph-name="numbersign" unicode="#" horiz-adv-x="1707" 
d="M1126 587l102 744h259l-196 -744h-165zM1181 477c20 0 39 -3.66699 57 -11s33.5 -17.5 46.5 -30.5s23.333 -28.167 31 -45.5s11.5 -36 11.5 -56s-3.83301 -38.667 -11.5 -56s-18 -32.5 -31 -45.5s-28.5 -23.167 -46.5 -30.5s-37 -11 -57 -11s-38.667 3.66699 -56 11
s-32.5 17.5 -45.5 30.5s-23.333 28.167 -31 45.5s-11.5 36 -11.5 56s3.83301 38.667 11.5 56s18 32.5 31 45.5s28.167 23.167 45.5 30.5s36 11 56 11zM436 209h-236l214 1126h730l-44 -215h-485l-76 -387h450l-45 -181h-441z" />
    <glyph glyph-name="dollar" unicode="$" 
d="M1320 1059c0 -1.33301 1.33496 -5.66504 4.00195 -12.998s5.5 -15.833 8.5 -25.5s5.83301 -19.334 8.5 -29.001s4 -16.834 4 -21.501v-71c0 -43.333 -8.5 -86.833 -25.5 -130.5s-38.167 -87.5 -63.5 -131.5s-52.5 -88 -81.5 -132s-55.5 -88 -79.5 -132
c-4.66699 -8.66699 -11.334 -17.667 -20.001 -27s-15.667 -18.666 -21 -27.999l-25 -43l-26 -44l-89.5 -154l-90.5 -156l-147.5 239l-145.5 240c-22 38 -45.333 76.333 -70 115s-47.834 77.5 -69.501 116.5s-40.5 77.833 -56.5 116.5s-26.333 76.667 -31 114
c-0.666992 6 -1.16699 13.667 -1.5 23s-0.5 14.666 -0.5 15.999v65c8.66699 78.667 29.5 147.5 62.5 206.5s73.5 108 121.5 147s100.833 68.167 158.5 87.5s115.167 29 172.5 29c42.667 0 87.167 -5.66699 133.5 -17s91.166 -29.5 134.499 -54.5s83.5 -57.5 120.5 -97.5
s67.5 -89 91.5 -147l13 -30c4.66699 -10.667 8.33398 -21 11.001 -31zM820.002 734.001c26.667 0 52 5.16602 76 15.499s45 24.166 63 41.499s32.167 37.833 42.5 61.5s15.5 48.834 15.5 75.501s-5 51.834 -15 75.501s-23.5 44.334 -40.5 62.001s-37.167 31.5 -60.5 41.5
s-48.333 15 -75 15c-22 0 -44.167 -3.5 -66.5 -10.5s-42.5 -17.5 -60.5 -31.5s-32.667 -31.833 -44 -53.5s-17 -47.167 -17 -76.5v-42v-6.5c0 -3.66699 0.166992 -7.83398 0.5 -12.501s0.833008 -9.5 1.5 -14.5s1.66699 -9.5 3 -13.5c8.66699 -23.333 19.667 -43 33 -59
s27.833 -29 43.5 -39s32.167 -17.333 49.5 -22s34.333 -7 51 -7z" />
    <glyph glyph-name="percent" unicode="%" horiz-adv-x="1707" 
d="M814 1204c59.333 -2.66699 118.326 -11.6738 176.993 -27.0068s114.667 -35.666 168 -60.999s102.833 -55.666 148.5 -90.999s84.834 -74.333 117.501 -117s57.834 -88.667 75.501 -138s25.167 -101 22.5 -155c-2.66699 -59.333 -19.5 -116.166 -50.5 -170.499
s-74.167 -102.166 -129.5 -143.499s-121.666 -74.333 -198.999 -99s-164 -37.334 -260 -38.001c-41.333 0 -78.833 1.5 -112.5 4.5s-64 7.16699 -91 12.5s-51.333 11.333 -73 18s-41.167 13.334 -58.5 20.001c-4.66699 2 -7 4 -7 6c0.666992 1.33301 4 1.66602 10 0.999023
c42 -10 77.5 -13.833 106.5 -11.5s51.667 8 68 17s26.5 20.333 30.5 34s2.66699 26.834 -4 39.501c-8 14 -26.167 25.333 -54.5 34s-61.666 18 -99.999 28s-79.166 22.333 -122.499 37s-84.333 35.334 -123 62.001l1 3c2 4.66699 4 9 6 13l4 10
c1.33301 3.33301 2.66602 6 3.99902 8c2 5.33301 5.33301 8 10 8h187c4.66699 0 8.33398 -3.33301 11.001 -10c1.33301 -2 3 -5.5 5 -10.5l6 -15.5l8 -20c2.66699 -6.66699 6 -12.334 10 -17.001c3.33301 -4 7.83301 -7.83301 13.5 -11.5s12.5 -5.5 20.5 -5.5
c4 -0.666992 11.167 0.833008 21.5 4.5s17.833 12.167 22.5 25.5c1.33301 4.66699 2 8.66699 2 12s-0.333008 6.33301 -1 9c-0.666992 1.33301 -1 2.5 -1 3.5s-0.333008 2.16699 -1 3.5c-0.666992 0.666992 -1 1.33398 -1 2.00098s-0.333008 1.33398 -1 2.00098
s-5.66699 11.834 -15 33.501l-35.5 80l-46 102.5l-45.5 102.5l-35.5 79l-14.5 31.5c-1.33301 4 -3.16602 7.5 -5.49902 10.5s-5.83301 4.5 -10.5 4.5c-2.66699 0 -4.66699 -0.333008 -6 -1s-2.66602 -1.66699 -3.99902 -3c-0.666992 -1.33301 -2 -3 -4 -5l-3 -6
c-0.666992 -0.666992 -3.83398 -7.5 -9.50098 -20.5l-22.5 -50.5l-31.5 -70l-35.5 -79.5l-35 -79l-30 -67.5l-7 -16c-10 11.333 -16.667 19.333 -20 24l-7 9c-8.66699 11.333 -17 24.5 -25 39.5s-15.333 30.667 -22 47s-12.167 33.166 -16.5 50.499s-6.83301 34 -7.5 50
c-4 66.667 8.33301 128.834 37 186.501s70.834 107.334 126.501 149.001s123 73.667 202 96s166.5 31.166 262.5 26.499zM825.993 468.993v404c0 31.333 -16.333 47 -49 47c-15.333 0 -27.333 -3.66699 -36 -11s-13 -19.333 -13 -36v-404c0 -31.333 16.333 -47 49 -47
s49 15.667 49 47zM1394.99 468.993l0.000976562 404c0 16.667 -4.16699 28.667 -12.5 36s-20.166 11 -35.499 11c-16.667 0 -29.334 -4.33301 -38.001 -13c-4 -4 -8 -10 -12 -18l-141 -314l-139 314c-4 8.66699 -8.33301 14.667 -13 18c-8 8.66699 -20 13 -36 13
c-32 0 -48 -15.667 -48 -47v-404c0 -31.333 16.333 -47 49 -47s49 15.667 49 47v189l94 -193c4 -7.33301 9.83301 -14.333 17.5 -21s16.167 -9.66699 25.5 -9c10.667 -0.666992 20 2.33301 28 9s14.333 14 19 22l95 191v-188c0 -16.667 4.16699 -28.667 12.5 -36
s20.166 -11 35.499 -11s27.5 3.66699 36.5 11s13.5 19.333 13.5 36zM526.994 591.993h-111.002c-3.33301 0 -5.16602 1 -5.49902 3s-0.166016 3.66699 0.500977 5l54 128l1 1l1 2c0 2.66699 1.66699 4 5 4c2.66699 0 4 -1.33301 4 -4l1 -2l1 -1l54 -128
c2.66699 -5.33301 1 -8 -5 -8z" />
    <glyph glyph-name="ampersand" unicode="&#x26;" horiz-adv-x="1707" 
d="M105 510v204.001c0 9.33301 3.33301 17.166 10 23.499s14.667 9.5 24 9.5h360l-157 -271h-203c-9.33301 0 -17.333 3.33301 -24 10s-10 14.667 -10 24zM361 94.001l-114.999 -76.999c-7.33301 -5.33301 -13.5 -6.66602 -18.5 -3.99902s-6.83301 8.66699 -5.5 18l15 133
c1.33301 9.33301 5.16602 15.666 11.499 18.999s13.5 2.66602 21.5 -2.00098l90 -51c8 -5.33301 12 -11.333 12 -18s-3.66699 -12.667 -11 -18zM389.001 169.002l-89 50.999c-8 4.66699 -13.333 11.5 -16 20.5s-1.66699 17.5 3 25.5l411 712c5.33301 8 12.333 13.333 21 16
s17.334 1.66699 26.001 -3l89 -50c8 -5.33301 13.167 -12.5 15.5 -21.5s1.16602 -17.5 -3.50098 -25.5l-411 -713c-4.66699 -8 -11.5 -13.167 -20.5 -15.5s-17.5 -1.16602 -25.5 3.50098zM702.001 476.001l156 271h90l127 -271h-373zM1211 396.001
c-6 2.66699 -15.3252 15.333 -27.9922 38s-27.334 50.667 -44.001 84l-53 110l-53.5 117.5l-47 106l-32.5 74.5l-29.5 65.5l-36.5 83l-37 88c-12 29.667 -21.833 56.667 -29.5 81s-12.334 44.833 -14.001 61.5s1.16602 27 8.49902 31
c5.33301 2.66699 12.666 -0.833008 21.999 -10.5s20.166 -23.334 32.499 -41.001s25.833 -38.5 40.5 -62.5l44.5 -75l46 -78.5l44.5 -72.5c14 -22 30.167 -49.167 48.5 -81.5l57 -103l59 -109.5l54 -101l42 -79c11.667 -22 19.5 -36 23.5 -42
c5.33301 -10 7.16602 -19.333 5.49902 -28s-5.33398 -16.667 -11.001 -24s-12.167 -13.666 -19.5 -18.999s-14 -9 -20 -11c-6 -2.66699 -11.5 -5 -16.5 -7s-10.167 -3.5 -15.5 -4.5s-11.333 -0.833008 -18 0.5s-14.334 4.33301 -23.001 9zM1328.01 209l-54.001 83.998
c-6 8.66699 -7.66699 17.667 -5 27s8.66699 16.333 18 21l51 26c8.66699 4.66699 17.834 5.5 27.501 2.5s17.167 -9.16699 22.5 -18.5l42 -81c4.66699 -9.33301 5.5 -19 2.5 -29s-8.83301 -17.667 -17.5 -23l-36 -22c-8.66699 -5.33301 -18 -6.66602 -28 -3.99902
s-17.667 8.33398 -23 17.001zM1524.01 -12.002c-2.66699 8.66699 -9.33203 15.833 -19.999 21.5s-23 11.5 -37 17.5s-28 13 -42 21s-26 18.667 -36 32c-9.33301 13.333 -14.833 25.166 -16.5 35.499s-1.33398 19.333 0.999023 27s5.83301 14 10.5 19l12 12.5
c19.333 10.667 36 16.167 50 16.5s25.667 -2.66699 35 -9s17 -15.666 23 -27.999s10.667 -25.5 14 -39.5c7.33301 -33.333 9.33301 -75.333 6 -126zM1604.01 509.997c0 -9.33301 -3.33398 -17.334 -10.001 -24.001s-14.667 -10 -24 -10h-181
c-1.33301 11.333 -4.33301 22 -9 32c-3.33301 4 -7.66602 11.333 -12.999 22s-12.333 23.667 -21 39l-42.5 81l-51.5 97h318c9.33301 0 17.333 -3.16699 24 -9.5s10 -14.166 10 -23.499v-204z" />
    <glyph glyph-name="quotesingle" unicode="'" horiz-adv-x="1707" 
d="M1025 -100c-32.667 0 -61.8291 4.8291 -87.4961 14.4961s-48 21.834 -67 36.501s-34.833 30.167 -47.5 46.5s-23 31.166 -31 44.499c-8.66699 14.667 -17.5 26.167 -26.5 34.5s-18.167 14.833 -27.5 19.5s-18.5 7.66699 -27.5 9s-17.833 2 -26.5 2
c-14 0 -28.833 -1.33301 -44.5 -4s-31.834 -5.66699 -48.501 -9c-15.333 -3.33301 -30.666 -6.16602 -45.999 -8.49902s-31 -4.16602 -47 -5.49902l-4 -1l-4 1c-162.667 30 -265.334 93 -308.001 189c-10 23.333 -16.167 46.833 -18.5 70.5s-2.16602 46.5 0.500977 68.5
s7.16699 42.5 13.5 61.5s12.666 35.667 18.999 50s12 25.833 17 34.5s7.83301 13.667 8.5 15l656 757c99.333 73.333 185 110 257 110c25.333 0 48 -4.16699 68 -12.5s37.5 -19.5 52.5 -33.5s27.833 -29.833 38.5 -47.5s19.5 -35.834 26.5 -54.501s12.167 -37 15.5 -55
s5.33301 -34.333 6 -49c0 -0.666992 -0.166992 -8.5 -0.5 -23.5s-0.666016 -35.167 -0.999023 -60.5s-0.833008 -54.666 -1.5 -87.999l-2 -105c-0.666992 -32 1 -58.667 5 -80s8.66699 -38.666 14 -51.999c6 -15.333 12.667 -27 20 -35
c12.667 -7.33301 23.167 -16.833 31.5 -28.5s13.833 -24.834 16.5 -39.501c2 -15.333 1.16699 -30.166 -2.5 -44.499s-8.33398 -27.166 -14.001 -38.499s-11.334 -20.833 -17.001 -28.5s-9.16699 -12.167 -10.5 -13.5l-8 -9l-12 -1c-19.333 -12 -31 -100 -35 -264
c0 -13.333 -0.166992 -25.166 -0.5 -35.499s-0.833008 -18.5 -1.5 -24.5c-0.666992 -40 -4.33398 -74.333 -11.001 -103s-14.834 -52.834 -24.501 -72.501s-20.167 -35.667 -31.5 -48s-22.333 -22.5 -33 -30.5c-72 -39.333 -138 -59 -198 -59zM684.005 164.996
c35.333 0 65.6709 -7.66602 91.0039 -22.999s47.666 -39 66.999 -71c6 -10.667 14.167 -22.667 24.5 -36s23 -25.666 38 -36.999s32.5 -21 52.5 -29s42.667 -12 68 -12c50 0 105.333 16.667 166 50c7.33301 5.33301 15.166 12.833 23.499 22.5s16.166 22.5 23.499 38.5
s13.5 36 18.5 60s7.83301 53.333 8.5 88c0.666992 6.66699 1.16699 14.834 1.5 24.501s0.5 20.834 0.5 33.501c0.666992 40 2.16699 78 4.5 114s6 68.167 11 96.5s12.167 51.833 21.5 70.5s21.666 30.667 36.999 36c6 8 12.167 18.833 18.5 32.5s8.5 26.834 6.5 39.501
c-0.666992 4 -2.33398 8.66699 -5.00098 14s-8.66699 11 -18 17c-2.66699 2 -7.66699 6.83301 -15 14.5s-14.666 19.667 -21.999 36s-13.833 37.833 -19.5 64.5s-8.16699 59.667 -7.5 99c0.666992 37.333 1.33398 72.5 2.00098 105.5s1.33398 62.167 2.00098 87.5
c0.666992 29.333 1 56.666 1 81.999c0 0.666992 -0.5 6.16699 -1.5 16.5s-3.16699 22.666 -6.5 36.999s-8.33301 29.833 -15 46.5s-15.5 32.167 -26.5 46.5s-24.667 26.166 -41 35.499s-35.833 14 -58.5 14c-58 0 -131.333 -32.333 -220 -97l-647 -747l-11.5 -22.5
c-7.66699 -15 -15.167 -34.167 -22.5 -57.5s-11.833 -49.333 -13.5 -78s3.5 -57 15.5 -85c32.667 -76 119.667 -127.667 261 -155c14 1.33301 28 3.16602 42 5.49902s27.667 5.16602 41 8.49902c17.333 3.33301 34.666 6.5 51.999 9.5s34.666 4.5 51.999 4.5z
M1193.01 640.997c-25.333 -2 -47.332 -3.00098 -65.999 -3.00098h-29v429c-4 20.667 -11 36.667 -21 48c-8.66699 9.33301 -21 14.5 -37 15.5s-38 -8.16699 -66 -27.5l-585 -687c-7.33301 -10.667 -12.333 -20.667 -15 -30c-2.66699 -8 -3.33398 -15.833 -2.00098 -23.5
s7 -12.834 17 -15.501c8 -5.33301 16 -9.66602 24 -12.999c7.33301 -3.33301 15 -5.5 23 -6.5s16.333 0.166992 25 3.5c6.66699 6 20.167 19.667 40.5 41s49 44.333 86 69s83.667 48.334 140 71.001s124.5 38.667 204.5 48c-1.33301 -42 -1.83301 -86.167 -1.5 -132.5
s0.833008 -89.5 1.5 -129.5c0.666992 -46.667 1.66699 -92.334 3 -137.001c17.333 -16 35.666 -27.667 54.999 -35c16.667 -6 35.334 -7.5 56.001 -4.5s41.667 16.167 63 39.5v63c0 26 -0.166992 54.167 -0.5 84.5s-0.5 61.333 -0.5 93s-0.166992 61 -0.5 88
s-0.5 50.167 -0.5 69.5v38c3.33301 -0.666992 11.333 0.5 24 3.5s34 6.5 64 10.5c8 2.66699 13.667 5.66699 17 9c3.33301 2.66699 4 5.83398 2 9.50098s-9 7.5 -21 11.5zM946.011 637.996c-25.333 -1.33301 -49.667 -2.99902 -73 -4.99902
c-20 -1.33301 -40.5 -2.83301 -61.5 -4.5s-38.167 -2.83398 -51.5 -3.50098c-13.333 -1.33301 -21.5 -0.666016 -24.5 2.00098s-3.83301 5.66699 -2.5 9c2 3.33301 6.33301 7.66602 13 12.999l200 223v-234z" />
    <glyph glyph-name="parenleft" unicode="(" horiz-adv-x="1707" 
d="M511 863c2 -32.667 -0.5 -63.667 -7.5 -93s-17.667 -55.333 -32 -78s-31.666 -40.834 -51.999 -54.501s-42.5 -21.5 -66.5 -23.5s-47 2.5 -69 13.5s-41.667 26.667 -59 47s-31.666 44.5 -42.999 72.5s-18 58.333 -20 91s0.5 63.667 7.5 93s17.667 55.333 32 78
s31.666 40.834 51.999 54.501s42.5 21.5 66.5 23.5s47 -2.5 69 -13.5s41.667 -26.667 59 -47s31.666 -44.5 42.999 -72.5s18 -58.333 20 -91zM1175 1404c4 -1.33301 10.5 -5 19.5 -11s18.833 -14.5 29.5 -25.5s21.167 -24.333 31.5 -40s19 -33.5 26 -53.5s11.333 -42 13 -66
s-0.833008 -49.667 -7.5 -77c-8 -32 -20.167 -60.667 -36.5 -86s-34.666 -46.5 -54.999 -63.5s-42.333 -28.833 -66 -35.5s-47.167 -7 -70.5 -1s-43.833 17.667 -61.5 35s-31.5 38.333 -41.5 63s-16 52 -18 82s1 61 9 93s20.167 60.667 36.5 86s34.666 46.5 54.999 63.5
s42.333 28.833 66 35.5s47.167 7 70.5 1zM1395 977c4 0 11.168 -1.49805 21.501 -4.49805s22.166 -8 35.499 -15s27.333 -16.333 42 -28s28 -26.167 40 -43.5s22 -38 30 -62s12.333 -51.667 13 -83c0.666992 -36 -3.33301 -67.5 -12 -94.5s-21 -49.333 -37 -67
s-34.667 -30.834 -56 -39.501s-44.333 -13.334 -69 -14.001c-24.667 0 -48 4 -70 12s-41.167 20.667 -57.5 38s-29.5 39.333 -39.5 66s-15.333 58 -16 94s3.5 68.833 12.5 98.5s21.5 55 37.5 76s34.667 37.167 56 48.5s44.333 17.333 69 18zM681.001 1436
c23.333 0 45.333 -6.16699 66 -18.5s38.667 -29.166 54 -50.499s27.5 -46.166 36.5 -74.499s13.5 -58.833 13.5 -91.5c0 -32 -4.5 -62.333 -13.5 -91s-21.167 -53.667 -36.5 -75s-33.333 -38.166 -54 -50.499s-42.667 -18.5 -66 -18.5s-45.333 6.16699 -66 18.5
s-38.667 29.166 -54 50.499s-27.5 46.333 -36.5 75s-13.5 59 -13.5 91c0 32.667 4.5 63.167 13.5 91.5s21.167 53.166 36.5 74.499s33.333 38.166 54 50.499s42.667 18.5 66 18.5zM659.001 707.002c26.667 38.667 56.998 65.1729 90.998 79.5059s67.667 21.5 101 21.5
c16.667 0 33.167 -1 49.5 -3s32.333 -6 48 -12s30.834 -14.667 45.501 -26s29 -26.666 43 -45.999c28 -38.667 53.667 -72 77 -100s45.666 -53 66.999 -75s42 -42 62 -60l62 -55c32.667 -28.667 59.5 -54.334 80.5 -77.001s37.333 -44.334 49 -65.001s19.667 -41.5 24 -62.5
s6.5 -44.167 6.5 -69.5s-4.5 -53 -13.5 -83s-22.833 -57.833 -41.5 -83.5s-42.834 -47.167 -72.501 -64.5s-64.834 -26 -105.501 -26c-41.333 0 -78.166 2.66699 -110.499 8s-63.166 11.166 -92.499 17.499s-58.166 12.166 -86.499 17.499s-58.833 8 -91.5 8
s-62.834 -1.83301 -90.501 -5.5s-55.667 -7.83398 -84 -12.501s-58.5 -8.83398 -90.5 -12.501s-68.333 -5.5 -109 -5.5c-41.333 0 -76.166 9.33301 -104.499 28s-51.166 41.667 -68.499 69s-29.833 56.5 -37.5 87.5s-11.5 59.167 -11.5 84.5s3.16699 49 9.5 71
s16.333 43.5 30 64.5s31.167 42.333 52.5 64s47 45.167 77 70.5c30 24.667 56.5 48.167 79.5 70.5s43.833 43.666 62.5 63.999s35.5 40.333 50.5 60s29.167 39.167 42.5 58.5z" />
    <glyph glyph-name="parenright" unicode=")" horiz-adv-x="1707" 
d="M190 247c-1.33301 2.66699 -2.66992 4.66699 -4.00293 6c-1.33301 2 -2 4.66699 -2 8v20c0 6.66699 0.5 13.167 1.5 19.5s2.16699 12.833 3.5 19.5c15.333 99.333 41.333 194.666 78 285.999c17.333 44 37.166 86.167 59.499 126.5s47.5 79.5 75.5 117.5
c26.667 35.333 55.667 68.5 87 99.5s65.333 59.167 102 84.5c18.667 12.667 37.834 24.334 57.501 35.001s40.167 20.334 61.5 29.001c22.667 8.66699 44.334 15.334 65.001 20.001c5.33301 1.33301 10.833 2.5 16.5 3.5s11.167 2.16699 16.5 3.5
c2.66699 0.666992 5.33398 1 8.00098 1s5.66699 0.333008 9 1s6.5 1 9.5 1h9.5h65c2.66699 0 5.33398 -0.333008 8.00098 -1l8 -2c11.333 -2 22.5 -4.33301 33.5 -7s21.833 -5.66699 32.5 -9c39.333 -11.333 78 -27.333 116 -48c34.667 -19.333 66.834 -41.333 96.501 -66
s57.5 -52 83.5 -82c56 -65.333 103.333 -135 142 -209c45.333 -88.667 79 -182 101 -280c1.33301 -3.33301 2.33301 -7 3 -11s1.66699 -8.33301 3 -13c3.33301 -11.333 6.33301 -22.5 9 -33.5s5 -21.833 7 -32.5s3.83301 -21.167 5.5 -31.5s1.83398 -20.833 0.500977 -31.5
c-1.33301 -9.33301 -3.66602 -17.833 -6.99902 -25.5s-7.66602 -15.167 -12.999 -22.5c-12.667 -16.667 -27 -32 -43 -46c-60.667 -53.333 -128.334 -95 -203.001 -125c-42 -16.667 -85 -29.834 -129 -39.501s-88.667 -16.834 -134 -21.501
c-48.667 -5.33301 -97.334 -8.16602 -146.001 -8.49902s-97.334 1.83398 -146.001 6.50098c-42 3.33301 -83.833 8.66602 -125.5 15.999s-82.5 17.666 -122.5 30.999c-34.667 11.333 -68.334 25 -101.001 41s-63.667 35.333 -93 58c-27.333 21.333 -52 45 -74 71l-16 20
c-5.33301 6.66699 -10.333 13.667 -15 21zM279.996 308c-0.666992 -1.33301 -0.831055 -2.33496 -0.498047 -3.00195s0.5 -1.66699 0.5 -3c2 -3.33301 3 -5.33301 3 -6c8.66699 -16 18 -30 28 -42c22 -28 47.833 -51.667 77.5 -71s61.167 -35.333 94.5 -48
c40 -15.333 80.667 -27.166 122 -35.499s83 -14.166 125 -17.499c46 -4.66699 92.333 -7.16699 139 -7.5s93.334 1.16699 140.001 4.5c45.333 3.33301 90.166 9.16602 134.499 17.499s87.5 20.5 129.5 36.5c34.667 14 68.5 31.667 101.5 53s59.167 48.666 78.5 81.999
c1.33301 2 2.66602 4.33301 3.99902 7c11.333 22.667 13.333 45.167 6 67.5s-16.666 43.5 -27.999 63.5l-35.5 66c-11.667 22 -24.167 43.667 -37.5 65c-10.667 17.333 -22 34.166 -34 50.499s-24.667 32.5 -38 48.5c-13.333 16.667 -26.833 32.667 -40.5 48l-42.5 46
l-52.5 50c-17.667 16 -36.167 31.333 -55.5 46l-8 6c-2.66699 2 -4.66699 4 -6 6c-5.33301 4 -10 7.33301 -14 10c-10 4.66699 -20 5.33398 -30 2.00098c-10.667 -3.33301 -20 -9.5 -28 -18.5s-15.667 -17.167 -23 -24.5c-18 -19.333 -34.833 -39.333 -50.5 -60l-46.5 -62
l-45 -56.5c-15.333 -18.333 -32.333 -35.166 -51 -50.499c-6.66699 -5.33301 -13.834 -10.666 -21.501 -15.999s-16.167 -8.33301 -25.5 -9c-14 0 -26 2.33301 -36 7c-12 6 -22.833 13.667 -32.5 23s-19.167 19 -28.5 29l-25.5 28.5c-9 10.333 -18.667 19.5 -29 27.5
s-21.5 14 -33.5 18s-24.667 3.66699 -38 -1c-18.667 -6.66699 -35.5 -17.167 -50.5 -31.5s-28.5 -29.166 -40.5 -44.499c-7.33301 -9.33301 -14.333 -19 -21 -29l-20 -30l-18.5 -30l-18.5 -30c-12.667 -20 -24.667 -40.5 -36 -61.5s-20.666 -42.833 -27.999 -65.5
c-2.66699 -6 -4.83398 -11.833 -6.50098 -17.5s-3.16699 -11.834 -4.5 -18.501c-0.666992 -3.33301 -1.33398 -6.5 -2.00098 -9.5s-1 -6.16699 -1 -9.5z" />
    <glyph glyph-name="asterisk" unicode="*" horiz-adv-x="1707" 
d="M1452 905h-356v88h356v-88zM858 542c23.333 -35.333 34.998 -78.667 34.998 -130c0 -52 -13 -99 -39 -141c-9.33301 -14 -19 -26.833 -29 -38.5s-21.333 -22.167 -34 -31.5c-14.667 -11.333 -30.167 -20.666 -46.5 -27.999s-34.166 -12.666 -53.499 -15.999
c-38 -8 -79.667 -12 -125 -12h-399v885h427c54.667 -1.33301 101 -9.5 139 -24.5s68.333 -38.5 91 -70.5c26.667 -36.667 40 -81.334 40 -134.001c0 -54 -13.667 -97.667 -41 -131c-15.333 -18 -37.666 -35 -66.999 -51c44.667 -14.667 78.667 -40.334 102 -77.001z
M370.998 680.999h188.001c37.333 0 68.666 7.66699 93.999 23c23.333 14 35 39.667 35 77c0 40.667 -15.667 67.667 -47 81c-28 10 -63 15 -105 15h-165v-196zM705.999 424.999c0 46.667 -18.667 78.002 -56 94.002c-20 9.33301 -49.667 14.666 -89 15.999h-190v-236h187
c19.333 0 36.5 1.16699 51.5 3.5s27.833 6.16602 38.5 11.499c38.667 18.667 58 55.667 58 111zM1584 569.001c4.66699 -29.333 6.66992 -71.334 6.00293 -126.001h-462c3.33301 -64 25.666 -108.667 66.999 -134c12 -8 25.667 -13.833 41 -17.5s32 -5.5 50 -5.5
c38 0 68.333 9.33301 91 28c14 12 25.667 26.667 35 44h169c-4 -37.333 -24.667 -75.666 -62 -114.999c-56 -62 -135.333 -93 -238 -93c-84 0 -158.333 26 -223 78c-64.667 52.667 -97 137.334 -97 254.001c0 110.667 29 195 87 253c58 58.667 133.667 88 227 88
c53.333 0 103 -9.66699 149 -29c45.333 -20.667 81.666 -52 108.999 -94c13.333 -19.333 24.166 -39.833 32.499 -61.5s14.5 -44.834 18.5 -69.501zM1417 553c-2 43.333 -16.668 76.666 -44.001 99.999c-25.333 22.667 -58 34 -98 34
c-21.333 0 -40.166 -3.16699 -56.499 -9.5s-30.5 -15.166 -42.5 -26.499c-12 -12 -21.5 -26.333 -28.5 -43s-12.167 -35 -15.5 -55h285z" />
    <glyph glyph-name="plus" unicode="+" horiz-adv-x="1707" 
d="M379 1231l-0.000976562 -362.001c60.667 34 128.334 60.5 203.001 79.5s154 28.5 238 28.5c96 0 186 -12.333 270 -37s157.5 -58.5 220.5 -101.5s112.667 -93.167 149 -150.5s54.5 -119 54.5 -185c0 -65.333 -18.167 -126.666 -54.5 -183.999s-86 -107.5 -149 -150.5
s-136.5 -77 -220.5 -102s-174 -37.5 -270 -37.5c-94 0 -182.5 12 -265.5 36s-155.667 56.833 -218 98.5s-112 90.5 -149 146.5s-56.833 116 -59.5 180h-1v741h252zM819.999 818.999c-61.333 0 -118.666 -8.33301 -171.999 -25s-100 -39.167 -140 -67.5
s-71.5 -61.666 -94.5 -99.999s-34.5 -79.5 -34.5 -123.5s11.5 -85.167 34.5 -123.5s54.5 -71.666 94.5 -99.999s86.667 -50.833 140 -67.5s110.666 -25 171.999 -25c60.667 0 117.834 8.33301 171.501 25s100.5 39.167 140.5 67.5s71.667 61.666 95 99.999s35 79.5 35 123.5
s-11.667 85.167 -35 123.5s-55 71.666 -95 99.999s-86.833 50.833 -140.5 67.5s-110.834 25 -171.501 25zM528.999 502.999c0 28.667 7.66699 55.834 23 81.501s36.166 48 62.499 67s57.166 34 92.499 45s73 16.5 113 16.5c40.667 0 78.667 -5.5 114 -16.5
s66.166 -26 92.499 -45s47.166 -41.333 62.499 -67s23 -52.834 23 -81.501s-7.66699 -55.667 -23 -81s-36.166 -47.333 -62.499 -66s-57.166 -33.5 -92.499 -44.5s-73.333 -16.5 -114 -16.5c-40 0 -77.667 5.5 -113 16.5s-66.166 25.833 -92.499 44.5
s-47.166 40.667 -62.499 66s-23 52.333 -23 81z" />
    <glyph glyph-name="comma" unicode="," horiz-adv-x="1707" 
d="M622 -108c-58.667 0 -113.836 11.1719 -165.503 33.5049s-96.834 52.666 -135.501 90.999s-69.167 83.333 -91.5 135s-33.5 106.834 -33.5 165.501v494c0 58.667 11.167 113.667 33.5 165s52.833 96.333 91.5 135s83.834 69.167 135.501 91.5s106.834 33.5 165.501 33.5
h297c27.333 -3.33301 57.166 -11.333 89.499 -24s63.833 -29.334 94.5 -50.001s59 -44.334 85 -71.001s46.333 -55.667 61 -87c4 -8.66699 7.66699 -16.167 11 -22.5s6.5 -14.333 9.5 -24s5.83301 -21.834 8.5 -36.501s5.66699 -35 9 -61
c3.33301 -26.667 6.83301 -49.834 10.5 -69.501s11.834 -34.834 24.501 -45.501c8 -8 21 -13 39 -15s36.667 -3.16699 56 -3.5s37.333 -1 54 -2s28 -3.83301 34 -8.5l20 -15l10 -23l5 -19l-3 -342c-0.666992 -58.667 -12.167 -113.834 -34.5 -165.501
s-52.666 -96.667 -90.999 -135s-83.166 -68.666 -134.499 -90.999s-106.333 -33.5 -165 -33.5h-490zM626.998 889.005c-23.333 0 -42.666 -8 -57.999 -24s-23 -35 -23 -57s7.66699 -41.167 23 -57.5s34.666 -24.5 57.999 -24.5h236c22.667 0 41.834 8.16699 57.501 24.5
s23.5 35.5 23.5 57.5s-7.83301 41 -23.5 57s-34.834 24 -57.501 24h-236zM545.998 322.005c0 -22.667 7.66699 -41.834 23 -57.501s34.666 -23.5 57.999 -23.5h480c23.333 0 42.666 7.83301 57.999 23.5s23 34.834 23 57.501s-7.66699 41.667 -23 57s-34.666 23 -57.999 23
h-480c-23.333 0 -42.666 -7.66699 -57.999 -23s-23 -34.333 -23 -57z" />
    <glyph glyph-name="hyphen" unicode="-" horiz-adv-x="1707" 
d="M305 152c-14.667 0 -28.334 2.66699 -41.001 8s-23.834 12.833 -33.501 22.5s-17.167 20.834 -22.5 33.501s-8 26.334 -8 41.001v662c0 14.667 2.66699 28.5 8 41.5s12.833 24.167 22.5 33.5s20.834 16.833 33.501 22.5s26.334 8.5 41.001 8.5h1128
c30 0 55.167 -10.167 75.5 -30.5s30.5 -45.5 30.5 -75.5v-662c0 -14.667 -2.83301 -28.334 -8.5 -41.001s-13.167 -23.834 -22.5 -33.501s-20.5 -17.167 -33.5 -22.5s-26.833 -8 -41.5 -8h-933c-7.33301 -30 -20.333 -53.167 -39 -69.5s-37.667 -28.5 -57 -36.5
c-22.667 -9.33301 -47.334 -15.333 -74.001 -18c15.333 27.333 23.833 52.5 25.5 75.5s1.83398 39.167 0.500977 48.5h-51zM1322 516c-14 0 -25.833 -4.83301 -35.5 -14.5s-14.5 -21.5 -14.5 -35.5s4.83301 -25.833 14.5 -35.5s21.5 -14.5 35.5 -14.5
c13.333 0 25 4.83301 35 14.5s15 21.5 15 35.5s-5 25.833 -15 35.5s-21.667 14.5 -35 14.5zM776 313c8.66699 -25.333 23.835 -46.167 45.502 -62.5s46.5 -24.5 74.5 -24.5c17.333 0 33.666 3.33301 48.999 10s28.666 15.667 39.999 27s20.333 24.833 27 40.5
s10 32.167 10 49.5v10zM422.001 515.999c-14 0 -25.833 -4.83301 -35.5 -14.5s-14.5 -21.5 -14.5 -35.5s4.83301 -25.833 14.5 -35.5s21.5 -14.5 35.5 -14.5s25.833 4.83301 35.5 14.5s14.5 21.5 14.5 35.5s-4.83301 25.833 -14.5 35.5s-21.5 14.5 -35.5 14.5z" />
    <glyph glyph-name="period" unicode="." horiz-adv-x="1707" 
d="M1030 662c0 -4 0.334961 -10.5 1.00195 -19.5s0.5 -19.333 -0.5 -31s-3 -24.167 -6 -37.5s-7.83301 -26 -14.5 -38c-7.33301 -12 -17.333 -19.833 -30 -23.5s-25.334 -5.16699 -38.001 -4.5c-14.667 0.666992 -30 3.66699 -46 9v246
c3.33301 5.33301 8.66602 10 15.999 14c6 3.33301 14.167 6 24.5 8s23.833 2.33301 40.5 1c16.667 -2 28.667 -8.83301 36 -20.5s12.333 -24.5 15 -38.5s3.66699 -27.333 3 -40s-1 -21 -1 -25zM1483 1254v-852c0 -15.333 -5 -30.333 -15 -45s-24.667 -26.667 -44 -36
c-10.667 -5.33301 -36.167 -15.333 -76.5 -30l-148.5 -53l-194.5 -68.5l-215.5 -74.5l-570 -195l249 1274c4.66699 14.667 12.334 28 23.001 40c9.33301 10 22.166 19.167 38.499 27.5s37.833 12.5 64.5 12.5h889zM1157 828c-9.33301 25.333 -22 44.834 -38 58.501
s-33.167 23.167 -51.5 28.5s-37 7 -56 5s-36.333 -6 -52 -12s-28.5 -13.333 -38.5 -22s-15 -17 -15 -25l-10 2v252l-166 -26v-635c20 -16.667 43 -30.667 69 -42c22 -10 48.833 -18 80.5 -24s67.5 -6 107.5 0c40 6.66699 71.667 18.5 95 35.5s41.666 34.833 54.999 53.5
c15.333 21.333 26 44.666 32 69.999c7.33301 26 12.333 54 15 84c2 25.333 1.33301 55 -2 89s-11.666 70 -24.999 108z" />
    <glyph glyph-name="slash" unicode="/" horiz-adv-x="1707" 
d="M1536 1083c0 -30.667 -6.66797 -59.832 -20.001 -87.499s-32 -53.167 -56 -76.5s-52.5 -43.833 -85.5 -61.5s-69.5 -31.834 -109.5 -42.501l-128 -130v112c-4.66699 -0.666992 -9.16699 -1.16699 -13.5 -1.5s-9.16602 -0.5 -14.499 -0.5c-59.333 0 -115 7.5 -167 22.5
s-97.333 35.5 -136 61.5s-69.167 56.5 -91.5 91.5s-33.5 72.5 -33.5 112.5s11.167 77.333 33.5 112s52.833 65 91.5 91s84 46.5 136 61.5s107.667 22.5 167 22.5c58.667 0 114 -7.5 166 -22.5s97.333 -35.5 136 -61.5s69.167 -56.333 91.5 -91s33.5 -72 33.5 -112z
M574.999 806.002c-56.667 0 -109.834 -10.6689 -159.501 -32.002s-93 -50.166 -130 -86.499s-66.167 -79 -87.5 -128s-32 -101.5 -32 -157.5c0 -55.333 10.667 -107.5 32 -156.5s50.5 -91.667 87.5 -128s80.333 -65 130 -86s102.834 -31.5 159.501 -31.5h188h6v216h-117
c-40 -1.33301 -76 4 -108 16c-13.333 5.33301 -26.666 12.333 -39.999 21s-25.166 19.834 -35.499 33.501s-18.833 30 -25.5 49s-10 41.167 -10 66.5s3.33301 47.5 10 66.5s15.167 35.333 25.5 49s22.166 25 35.499 34s26.666 16.167 39.999 21.5c32 12 68 17.667 108 17
h117v216h-6h-188z" />
    <glyph glyph-name="zero" unicode="0" 
d="M1092 102c-12 -13.333 -25.001 -26.333 -39.001 -39c-93.333 -82 -204 -122.667 -332 -122c-130 0 -242 32 -336 96c-97.333 63.333 -171.666 159 -222.999 287l4 2c-5.33301 14 -8 28.333 -8 43c0 43.333 17 80.666 51 111.999c34.667 31.333 75.667 47 123 47
s88.333 -15.667 123 -47c34 -31.333 51 -68.666 51 -111.999c0 -45.333 -17.667 -83.666 -53 -114.999c68 -75.333 154.667 -113 260 -113c78.667 0 141.334 21.333 188.001 64c49.333 41.333 74 93.666 74 156.999c0 39.333 -13 77 -39 113
c-29.333 40.667 -61.333 72.667 -96 96c-19.333 12 -44.333 25.333 -75 40s-68 29.334 -112 44.001c-42 16.667 -79 32.167 -111 46.5s-59.667 28.166 -83 41.499c-46 25.333 -85.667 57.666 -119 96.999c-32 36 -56.667 72.667 -74 110
c-15.333 39.333 -22.666 78.333 -21.999 117c0 101.333 43.667 186.666 131 255.999c86 70 191 105.667 315 107c81.333 0 165.333 -16.667 252 -50c69.333 -29.333 129.333 -68.666 180 -117.999c39.333 -33.333 59.333 -73.666 60 -120.999
c0 -44.667 -17.333 -82.334 -52 -113.001c-34.667 -31.333 -75.334 -47 -122.001 -47c-47.333 0 -88.333 15.667 -123 47c-34 30.667 -51 68.334 -51 113.001c0 22.667 5.33301 44.334 16 65.001c-34 16.667 -81 25 -141 25c-74 0 -134.333 -15 -181 -45
c-46.667 -34 -69.667 -74.333 -69 -121c0 -42.667 20.333 -80.334 61 -113.001c18.667 -15.333 45.167 -32 79.5 -50s76.833 -36.667 127.5 -56c48 -19.333 90.5 -37.833 127.5 -55.5s69.5 -34.834 97.5 -51.501c54.667 -34 99 -70.667 133 -110
c18 -20.667 33.5 -41.167 46.5 -61.5s23.5 -42.166 31.5 -65.499c1.33301 -4 2 -6.66699 2 -8c-36 -28.667 -65.167 -63.5 -87.5 -104.5s-33.5 -85.5 -33.5 -133.5c0 -28 4.16699 -54.833 12.5 -80.5s20.166 -50.167 35.499 -73.5zM1346 442
c-56.667 0 -104.333 -18 -143 -54s-58 -80 -58 -132c0 -52.667 19.333 -96.334 58 -131.001c39.333 -35.333 87 -53 143 -53c55.333 0 102.666 17.667 141.999 53c38.667 34.667 58 78.334 58 131.001c0 52 -19.333 96 -58 132c-39.333 36 -86.666 54 -141.999 54z" />
    <glyph glyph-name="one" unicode="1" 
d="M492 1104h-259l326 303v-244zM1411 1225c7.33301 -11.333 17.6689 -25.665 31.002 -42.998c14.667 -17.333 29 -49.333 43 -96c7.33301 -22.667 14 -50.167 20 -82.5s11.667 -69.5 17 -111.5s9.33301 -91.5 12 -148.5s4 -121.833 4 -194.5s-4.5 -137 -13.5 -193
s-21 -105 -36 -147s-32 -77.833 -51 -107.5s-38.167 -54.5 -57.5 -74.5c-44.667 -48 -96.334 -78 -155.001 -90h-174c-26.667 0 -54.167 3.33301 -82.5 10s-54.166 18.5 -77.499 35.5s-42.5 40.167 -57.5 69.5s-22.5 66.666 -22.5 111.999c0 46 13.333 80.333 40 103
c26.667 23.333 55.667 40.666 87 51.999c38 13.333 80.333 21 127 23v-117c-4 0 -9.33301 0.666992 -16 2c-5.33301 0 -11.833 0.333008 -19.5 1s-14.834 1 -21.501 1c-16.667 0 -30.834 -4.66699 -42.501 -14s-17.5 -27.666 -17.5 -54.999
c0 -15.333 2.83301 -28.833 8.5 -40.5s11.834 -21.5 18.501 -29.5c7.33301 -8 17 -17 29 -27h167c19.333 0 34.833 4.5 46.5 13.5s20.167 18.833 25.5 29.5c4.66699 12 8.66699 26.667 12 44v137c0 36.667 -18.333 70 -55 100c-37.333 30 -89.333 45 -156 45
c-34 0 -64.667 8.16699 -92 24.5s-50.333 34.166 -69 53.499c-23.333 23.333 -44 50 -62 80c-0.666992 -10.667 -1.16699 -21 -1.5 -31s-0.5 -19.667 -0.5 -29v-108c0 -2.66699 -1.83301 -8 -5.5 -16s-10.167 -17 -19.5 -27s-22.333 -20.167 -39 -30.5
s-38.334 -18.833 -65.001 -25.5s-58.5 -10.834 -95.5 -12.501s-80.833 1.16602 -131.5 8.49902c-32 4 -60.667 13.667 -86 29s-48 34.166 -68 56.499s-37.5 47.5 -52.5 75.5s-27.5 56.667 -37.5 86c-10 30 -18.167 60 -24.5 90s-11.5 58.5 -15.5 85.5
s-6.83301 51.5 -8.5 73.5s-2.5 40.333 -2.5 55c0 28.667 4.5 53.334 13.5 74.001s18.833 38.334 29.5 53.001c13.333 16 27.666 29.667 42.999 41h305l68 64v211c0 12.667 0.166992 25.5 0.5 38.5s4.33301 24.833 12 35.5s20.834 19.334 39.501 26.001s46.334 10 83.001 10
s68 -5.33301 94 -16s48 -23 66 -37c9.33301 -7.33301 18.166 -15.333 26.499 -24s15.833 -17.667 22.5 -27h194c18.667 0 40.667 -2.83301 66 -8.5s50.333 -13 75 -22s46.667 -19.167 66 -30.5s32.333 -22.333 39 -33zM1100 707.001
c6.66699 0 21.668 -1.99902 45.001 -5.99902l74 -11c14.667 -2.66699 30 -5.16699 46 -7.5s32.667 -4.5 50 -6.5l-25 33c-8 10.667 -16 20.667 -24 30c-15.333 15.333 -30.833 29.833 -46.5 43.5s-30.834 20.5 -45.501 20.5c-15.333 0 -27.833 -5.16699 -37.5 -15.5
s-17.167 -21.5 -22.5 -33.5c-2.66699 -7.33301 -5.16699 -14.833 -7.5 -22.5s-4.5 -15.834 -6.5 -24.501z" />
    <glyph glyph-name="two" unicode="2" 
d="M936 1315c29.333 31.333 65.333 56.999 108 76.999c22 10.667 43.5 18.834 64.5 24.501s41.167 9.16699 60.5 10.5c5.33301 -44 0 -86.5 -16 -127.5s-38 -77.5 -66 -109.5s-63 -58.333 -105 -79c-44 -21.333 -88 -30.666 -132 -27.999
c-6.66699 43.333 -1 85.666 17 126.999c18.667 40.667 41.667 75.667 69 105zM1393 122.999c-16 -22.667 -32.8311 -44.832 -50.498 -66.499s-36.667 -41 -57 -58s-42 -30.833 -65 -41.5s-47.5 -16 -73.5 -16c-27.333 0 -50.666 3 -69.999 9s-38.166 12.833 -56.499 20.5
s-38 14.5 -59 20.5s-46.5 9 -76.5 9c-30.667 0 -57 -3 -79 -9s-42.5 -12.667 -61.5 -20s-37.833 -14.166 -56.5 -20.499s-40.334 -10.166 -65.001 -11.499c-26 -1.33301 -50.667 3.5 -74 14.5s-45.333 25.5 -66 43.5s-40.334 38.5 -59.001 61.5s-36.334 45.833 -53.001 68.5
c-22.667 30.667 -44.167 65.334 -64.5 104.001s-38.166 79.334 -53.499 122.001s-27.5 86.834 -36.5 132.501s-13.5 91.167 -13.5 136.5s5.33301 89.666 16 132.999s27.667 84 51 122c36 58 82.833 103.167 140.5 135.5s120.834 49.166 189.501 50.499
c26 0 51.333 -3.16699 76 -9.5s48 -13.5 70 -21.5l64 -22c10 -3.33301 19.333 -5.83301 28 -7.5s16.667 -2.83398 24 -3.50098c16 0 35 4 57 12l73 26c26.667 9.33301 55 17.333 85 24s60.667 8.66699 92 6c12 0 29.667 -1.83301 53 -5.5s48.666 -10.834 75.999 -21.501
s55.333 -25.667 84 -45s54.667 -44.333 78 -75c-1.33301 -0.666992 -6.5 -3.66699 -15.5 -9s-19.833 -13.333 -32.5 -24s-26.334 -23.667 -41.001 -39s-28.167 -33.5 -40.5 -54.5s-22.5 -44.5 -30.5 -70.5s-12 -54.667 -12 -86c0 -56.667 11.333 -104.334 34 -143.001
s47 -69.5 73 -92.5s50 -39.833 72 -50.5l34 -15c0 -1.33301 -2 -8.33301 -6 -21s-10.333 -28.834 -19 -48.501s-19.834 -42 -33.501 -67s-30.167 -50.5 -49.5 -76.5z" />
    <glyph glyph-name="three" unicode="3" 
d="M313 1421c38 4 75.6611 5.33105 112.994 3.99805s75 -1.33301 113 0c-19.333 -22 -37.5 -44.833 -54.5 -68.5s-32.333 -48.334 -46 -74.001s-25 -52.167 -34 -79.5s-14.833 -55.666 -17.5 -84.999c-5.33301 -45.333 -3.66602 -89.666 5.00098 -132.999
s23 -84.833 43 -124.5s45 -77 75 -112s63.333 -66.167 100 -93.5c18.667 -11.333 27.667 -26.333 27 -45c-0.666992 -9.33301 -1.16699 -18.5 -1.5 -27.5s-0.5 -18.167 -0.5 -27.5c-5.33301 -42 -11.166 -84.167 -17.499 -126.5s-10.833 -84.833 -13.5 -127.5
c30 15.333 58.833 31.5 86.5 48.5s55.167 34.833 82.5 53.5c54 36.667 111 69.667 171 99c119.333 -22 241 -25.333 365 -10c125.333 16 240 55.333 344 118v-295c3.33301 -57.333 -12.334 -110.666 -47.001 -159.999c-32.667 -48.667 -78 -84.667 -136 -108
c-26 -12 -52.667 -19.833 -80 -23.5s-55 -4.83398 -83 -3.50098h-955c-39.333 0.666992 -77.166 8.66699 -113.499 24s-68.166 35.833 -95.499 61.5s-49.166 55.334 -65.499 89.001s-24.5 69.167 -24.5 106.5c-1.33301 137.333 -1.66602 273.5 -0.999023 408.5
s1 271.167 1 408.5c-2.66699 35.333 2.5 69.833 15.5 103.5s31.5 64.167 55.5 91.5s52.333 50.5 85 69.5s67.334 31.833 104.001 38.5zM730.994 1229c-28 -26 -49.999 -55.167 -65.999 -87.5s-24 -67.5 -24 -105.5c-2.66699 -48.667 9 -95.667 35 -141
c26 -44.667 59.333 -81.667 100 -111c44 -31.333 92.167 -55.333 144.5 -72s105.833 -26 160.5 -28s109 2.66699 163 14s105 29.333 153 54c54 27.333 99.333 64.333 136 111c38 48 57.333 101 58 159c1.33301 52.667 -12.334 101 -41.001 145
c-29.333 44.667 -65.333 81.667 -108 111c-50 34 -104.333 58.5 -163 73.5s-119 21.167 -181 18.5c-68 -1.33301 -134.167 -13.5 -198.5 -36.5s-120.5 -57.833 -168.5 -104.5z" />
    <glyph glyph-name="four" unicode="4" 
d="M715 1317c52 36.667 111.166 65.002 177.499 85.002s136.833 30 211.5 30c54 0 106.333 -5.16699 157 -15.5s98 -26.5 142 -48.5c12 -4 21.5 -11.167 28.5 -21.5s10.5 -20.833 10.5 -31.5c0 -6 -1.33301 -11.667 -4 -17c-4 -16 -15.667 -28.667 -35 -38
c-5.33301 -1.33301 -10.333 -2.33301 -15 -3s-8.66699 -1.33398 -12 -2.00098c-11.333 0 -20.666 2.33301 -27.999 7c-28 13.333 -58 24.166 -90 32.499s-64.333 13.833 -97 16.5c-28 5.33301 -55.333 9 -82 11s-54 3 -82 3c-130 0 -250 -25.333 -360 -76
c23.333 24 49.333 46.667 78 68zM1520 358.002c0 19.333 -8.99805 35.998 -26.998 49.998c-12.667 6.66699 -25 10 -37 10c-23.333 0 -41 -8.33301 -53 -25c-33.333 -42 -69 -75.333 -107 -100l-75 -45c-16 -8.66699 -29.667 -17.667 -41 -27
c-19.333 -11.333 -29 -27.666 -29 -48.999v-80l-199 78c-7.33301 4 -15.333 6 -24 6h-4c-3.33301 -0.666992 -6.83301 -1.16699 -10.5 -1.5s-7.5 -0.5 -11.5 -0.5h-21c-54.667 0 -107.834 5 -159.501 15s-100.334 24.5 -146.001 43.5s-87.167 42 -124.5 69
s-69 57.5 -95 91.5l-6 6l-2 2c-40.667 56.667 -61 117 -61 181c0 58 15.5 111.333 46.5 160s73.5 91.334 127.5 128.001s116.167 65.667 186.5 87s146.833 32 229.5 32c119.333 0 229 -23.667 329 -71h4c50 -25.333 88.333 -55 115 -89c28.667 -32.667 43 -68.667 43 -108
c0 -32 -9.16699 -62.167 -27.5 -90.5s-44.5 -54.166 -78.5 -77.499c-38 -26 -81.333 -45.833 -130 -59.5s-100.334 -20.5 -155.001 -20.5c-28.667 0 -56 2 -82 6c-38 5.33301 -74.333 13.833 -109 25.5s-68 25.834 -100 42.501h-2
c-60.667 32.667 -107.5 72.334 -140.5 119.001s-49.5 97 -49.5 151c0 4 0.333008 8.16699 1 12.5s1 8.5 1 12.5c-51.333 -34 -90.333 -73 -117 -117c15.333 -56.667 43.666 -109 84.999 -157s94.333 -90 159 -126l4 -2h2c74 -38.667 156.667 -64.667 248 -78h2
c32.667 -4 65.334 -6 98.001 -6c68.667 0 133.667 8.66699 195 26s116.333 42.333 165 75c52 36 91.667 76 119 120s41 92 41 144c0 62 -20 119.5 -60 172.5s-97 96.5 -171 130.5l-4 2c-58 28 -119.167 48.333 -183.5 61s-131.5 19 -201.5 19
c-94.667 0 -184.834 -12.667 -270.501 -38s-162.834 -62 -231.501 -110c-70 -50.667 -123.667 -107.834 -161 -171.501s-56 -131.834 -56 -204.501c0 -92 30.667 -177.333 92 -256c1.33301 -1.33301 2.33301 -2.83301 3 -4.5s2.33398 -3.16699 5.00098 -4.5v-2
c64 -80 151.667 -143.667 263 -191c110 -46 230 -69 360 -69h32h2l275 -106c4.66699 -2.66699 12.667 -4 24 -4c12.667 0 24.334 2.66699 35.001 8c19.333 12 29 29 29 51v135l6 4l42 25l44 27c52.667 34.667 98.334 77.667 137.001 129c8.66699 11.333 13 22.666 13 33.999
zM999.001 618l-2.00391 -9.99902l2 10c28.667 -4 57.334 -6 86.001 -6c79.333 0 151 12.333 215 37c15.333 23.333 23 47.333 23 72c0 22 -6 43 -18 63c-30 -18 -63.667 -31.333 -101 -40s-77 -13 -119 -13h-33c-12.667 0 -24 1.33301 -34 4
c-38 5.33301 -73.833 13.833 -107.5 25.5s-64.167 25.667 -91.5 42s-51.5 35 -72.5 56s-37.833 43.5 -50.5 67.5c-39.333 -8.66699 -78.666 -22.334 -117.999 -41.001c30.667 -67.333 83.334 -125.666 158.001 -174.999c74.667 -48.667 162.334 -79.334 263.001 -92.001z
M1546 936.001c0 54.667 -17.6689 105.333 -53.002 152s-85.333 86 -150 118l-4 2c-103.333 48 -216.666 72 -339.999 72c-84 0 -163.5 -11.333 -238.5 -34s-142.833 -55 -203.5 -97c-19.333 -15.333 -37.5 -30.5 -54.5 -45.5s-32.167 -31.167 -45.5 -48.5
c122.667 62.667 259.667 94 411 94c40.667 8 84.334 12 131.001 12c106 0 201 -20.333 285 -61h4c57.333 -29.333 97 -66.333 119 -111c54 -46 92.333 -97.667 115 -155c16 32.667 24 66.667 24 102z" />
    <glyph glyph-name="five" unicode="5" 
d="M203 -41l708 1477h306l-707 -1477h-307zM1501 182c0 32.667 -6.5 63.334 -19.5 92.001s-31 53.667 -54 75s-50 38.166 -81 50.499s-64.167 18.5 -99.5 18.5s-68.333 -6.16699 -99 -18.5s-57.5 -29.166 -80.5 -50.499s-41.167 -46.333 -54.5 -75s-20 -59.334 -20 -92.001
c0 -32 6.66699 -62.167 20 -90.5s31.5 -53 54.5 -74s49.833 -37.667 80.5 -50s63.667 -18.5 99 -18.5s68.5 6.16699 99.5 18.5s58 29 81 50s41 45.667 54 74s19.5 58.5 19.5 90.5z" />
    <glyph glyph-name="six" unicode="6" 
d="M1653 362c0 -34.667 -7.1709 -67.5 -21.5039 -98.5s-33.833 -58.167 -58.5 -81.5s-53.667 -41.833 -87 -55.5s-69.333 -20.5 -108 -20.5h-45c-38 0 -73.667 6.83301 -107 20.5s-62.333 32.167 -87 55.5s-44.167 50.5 -58.5 81.5s-21.5 63.833 -21.5 98.5v318
c0 24.667 -8.66699 45.834 -26 63.501s-40 26.5 -68 26.5h-371c-27.333 0 -50.5 -8.16699 -69.5 -24.5s-28.5 -36.166 -28.5 -59.499c0 -22.667 9.66699 -43.667 29 -63c20.667 -18.667 44.334 -28.334 71.001 -29.001l57 -2c37.333 -2.66699 72.333 -11 105 -25
s61 -32.167 85 -54.5s42.5 -48 55.5 -77s18.5 -60.167 16.5 -93.5c-1.33301 -32 -9.5 -62.333 -24.5 -91s-35 -53.667 -60 -75s-54.167 -38.333 -87.5 -51s-68.666 -19 -105.999 -19h-586v166h586c14 0 27 2 39 6s22.5 9.5 31.5 16.5s16.167 15.167 21.5 24.5s8 19 8 29
c0.666992 10 -1.33301 19.5 -6 28.5s-11.167 17 -19.5 24s-18.333 12.833 -30 17.5s-24.5 7.33398 -38.5 8.00098l-57 2c-37.333 1.33301 -72.166 9.33301 -104.499 24s-60.833 33.834 -85.5 57.501s-44 50.667 -58 81s-21 62.166 -21 95.499c0 34 7.16699 66 21.5 96
s33.833 56.333 58.5 79s53.834 40.5 87.501 53.5s69.5 19.5 107.5 19.5h371c38 0 73.667 -6.83301 107 -20.5s62.333 -32 87 -55s44.167 -49.833 58.5 -80.5s21.5 -63.334 21.5 -98.001v-318c0 -26 9 -47.5 27 -64.5s41 -25.5 69 -25.5h45c27.333 0 50.333 8.66699 69 26
s28 38.666 28 63.999v1068h157c8 0 15 -1 21 -3v-1065z" />
    <glyph glyph-name="seven" unicode="7" 
d="M521 1326v-829h-432v553h276v276h156zM365 635v276h-120v-276h120zM555 1050h156v-553h-156v553zM555 1326h156v-156h-156v156zM1194 221h-415v156h259v120h-259v553h415v-829zM1038 635v276h-103v-276h103zM1643 221h-415v156h277v120h-277v553h415v-829zM1505 911h-121
v-276h121v276z" />
    <glyph glyph-name="eight" unicode="8" 
d="M328 -53v1132c0 65.333 -1 124.333 -3 177s-4.66699 105 -8 157h162l13 -180h16l8 4c42 66 96 115.667 162 149s143.667 50 233 50c70 0 134 -12.833 192 -38.5s108 -61.667 150 -108s74.667 -101.666 98 -165.999s35 -135.166 35 -212.499
c0 -96 -14.667 -179.167 -44 -249.5s-67.833 -128.166 -115.5 -173.499s-102 -79 -163 -101s-123.167 -33 -186.5 -33c-37.333 0 -73 3.5 -107 10.5s-65.667 17.5 -95 31.5s-56 31 -80 51s-44 43 -60 69l-3 4h-18l-4 -10v-563h-182zM510 798.997
c0 -36.667 3.33398 -64.002 10.001 -82.002c19.333 -69.333 58.666 -125.666 117.999 -168.999s127.333 -65 204 -65c54 0 103 10 147 30s81.5 48.333 112.5 85s54.833 80.834 71.5 132.501s25 109.167 25 172.5c0 58.667 -8.5 112.5 -25.5 161.5
s-40.833 91.167 -71.5 126.5s-67.5 62.833 -110.5 82.5s-90.5 29.5 -142.5 29.5c-78 0 -146.667 -22.667 -206 -68c-60 -45.333 -99.333 -104 -118 -176c-9.33301 -31.333 -14 -57.333 -14 -78v-182z" />
    <glyph glyph-name="nine" unicode="9" 
d="M1653 100l-1600 -0.00585938l43 215c0 30.667 10.667 50.667 32 60l75 28l266 99c4.66699 2.66699 8.66699 4 12 4v2v2l2 2c24.667 10.667 47 22.5 67 35.5s33.333 25.167 40 36.5c8 15.333 16.667 19.333 26 12l2 -2l13 33c3.33301 9.33301 6.66602 20 9.99902 32
c3.33301 6.66699 6.66602 5.33398 9.99902 -3.99902l-4 23l-4 39l-12 12c-8.66699 9.33301 -14.334 23.333 -17.001 42s-6 31.334 -10 38.001c-4 6 -10.667 12.333 -20 19c-8 8 -16.333 25 -25 51c-4 13.333 -8 27.833 -12 43.5s-7 30.334 -9 44.001s-2.83301 25 -2.5 34
s2.83301 13.5 7.5 13.5h8c-1.33301 2.66699 -2.33301 5 -3 7s-1.66699 5.66699 -3 11c-1.33301 10.667 -4.5 23.334 -9.5 38.001s-7.5 26.667 -7.5 36c0 11.333 0.666992 26.833 2 46.5s3.5 40.167 6.5 61.5s6.83301 41.833 11.5 61.5s10.334 34.834 17.001 45.501
c13.333 20.667 30.5 39.167 51.5 55.5s47.5 27.833 79.5 34.5c12.667 2.66699 31.334 5.16699 56.001 7.5s50.167 3.83301 76.5 4.5s51.5 0.166992 75.5 -1.5s42 -5.16699 54 -10.5c8 -2.66699 17.167 -6.33398 27.5 -11.001s21.166 -10.667 32.499 -18
c18 -10.667 34.5 -22.167 49.5 -34.5s27.167 -25.166 36.5 -38.499c6.66699 -10.667 12 -25 16 -43s7.33301 -37 10 -57s4.5 -39.333 5.5 -58s1.5 -33.667 1.5 -45c-1.33301 -16.667 -3.5 -34.834 -6.5 -54.501s-5.83301 -34.834 -8.5 -45.501
c5.33301 5.33301 11.666 8 18.999 8c4 0 6.66699 -2.66699 8 -8s1.83301 -12.166 1.5 -20.499s-1.66602 -18 -3.99902 -29s-5.16602 -22.167 -8.49902 -33.5l-14 -44c-4.66699 -14 -9.16699 -25 -13.5 -33s-8.33301 -14.167 -12 -18.5s-7 -7.83301 -10 -10.5
s-5.5 -5.33398 -7.5 -8.00098c-5.33301 -7.33301 -9 -20 -11 -38c-2 -18.667 -7.66699 -32.667 -17 -42l-11 -12l-4 -47v-13c0 -1.33301 0.5 -1.66602 1.5 -0.999023s2 1.5 3 2.5s2 1.83301 3 2.5s1.5 0 1.5 -2c0.666992 -1.33301 1.83398 -4.16602 3.50098 -8.49902
s3.5 -9.5 5.5 -15.5s4.16699 -12.167 6.5 -18.5s4.5 -11.833 6.5 -16.5c1.33301 -2.66699 2 -5 2 -7s2 -1.66699 6 1h2c4.66699 0.666992 11.667 -3.33301 21 -12v-2c1.33301 -1.33301 2 -3 2 -5h2c6.66699 -10.667 20 -22.167 40 -34.5s41.333 -23.166 64 -32.499
c4.66699 -3.33301 9.66699 -5.33301 15 -6l266 -99l74 -28c20.667 -8 30.667 -28 30 -60z" />
    <glyph glyph-name="colon" unicode=":" horiz-adv-x="1707" 
d="M419 252c-44.667 2.66699 -86.334 13.333 -125.001 32s-72.334 43.334 -101.001 74.001s-51.334 66 -68.001 106s-25 82.667 -25 128c0 47.333 8.83301 91.666 26.5 132.999s41.834 77.5 72.501 108.5s66.5 55.5 107.5 73.5s84.833 27 131.5 27
c0.666992 0 1 -0.333008 1 -1c0 2.66699 -0.166992 5.5 -0.5 8.5s-0.5 6.16699 -0.5 9.5c0 52.667 10 102.334 30 149.001s47.333 87.5 82 122.5s75.167 62.5 121.5 82.5s95.833 30 148.5 30c46.667 0 91 -8 133 -24s79.5 -38 112.5 -66s60.833 -61.167 83.5 -99.5
s38 -79.833 46 -124.5c4 0 8 0.166992 12 0.5s7.66699 0.5 11 0.5c52.667 0 102.334 -10.167 149.001 -30.5s87.334 -48 122.001 -83s62 -75.833 82 -122.5s30 -96.667 30 -150s-10 -103.333 -30 -150s-47.333 -87.334 -82 -122.001s-75.334 -62.167 -122.001 -82.5
s-96.334 -30.5 -149.001 -30.5c-2.66699 0 -5.16699 0.166992 -7.5 0.5s-5.16602 0.5 -8.49902 0.5h-752c-2 0 -3.83301 -0.166992 -5.5 -0.5s-3.83398 -0.5 -6.50098 -0.5c-1.33301 0 -3.16602 0.166992 -5.49902 0.5s-4.16602 0.5 -5.49902 0.5h-8v0z" />
    <glyph glyph-name="semicolon" unicode=";" horiz-adv-x="1707" 
d="M144 1164l628 -204v-896l-624 212zM929 963l629 195v-882l-631 -215zM260 1253l590 174l577 -174l-577 -188z" />
    <glyph glyph-name="less" unicode="&#x3c;" horiz-adv-x="1707" 
d="M858 683c0 33.333 5.16797 63.167 15.501 89.5s24.5 48.5 42.5 66.5s39.167 31.833 63.5 41.5s50.5 14.5 78.5 14.5c38.667 0 73.834 -7.5 105.501 -22.5s57.167 -40.167 76.5 -75.5l-91 -48c-5.33301 11.333 -11.5 20.5 -18.5 27.5s-14 12.5 -21 16.5
s-13.667 6.83301 -20 8.5s-11.833 2.5 -16.5 2.5c-33.333 0 -57 -11.667 -71 -35s-21 -52 -21 -86s7.33301 -62.667 22 -86s38 -35 70 -35c18 0 34.167 4 48.5 12s26.166 23.667 35.499 47l85 -43c-18 -32.667 -42.833 -58.667 -74.5 -78s-66.834 -29 -105.501 -29
c-30 0 -57.5 4.66699 -82.5 14s-46.5 23 -64.5 41s-32 40.167 -42 66.5s-15 56.5 -15 90.5zM668.001 471.001c38.667 0 73.666 9.66602 104.999 28.999s56.333 45.333 75 78l-86 43c-9.33301 -23.333 -21 -39 -35 -47s-30 -12 -48 -12c-32 0 -55.333 11.667 -70 35
s-22 52 -22 86s6.83301 62.667 20.5 86s37.5 35 71.5 35c8.66699 0 20.667 -3.5 36 -10.5s28.333 -21.833 39 -44.5l91 48c-19.333 35.333 -44.666 60.5 -75.999 75.5s-66.333 22.5 -105 22.5c-28 0 -54.167 -4.83301 -78.5 -14.5s-45.5 -23.5 -63.5 -41.5
s-32.167 -40.167 -42.5 -66.5s-15.5 -56.166 -15.5 -89.499c0 -34 5 -64.167 15 -90.5s24 -48.5 42 -66.5s39.5 -31.667 64.5 -41s52.5 -14 82.5 -14zM370 202c-66 66 -115.832 139.833 -149.499 221.5s-50.5 168.167 -50.5 259.5c0 90.667 17.167 177.5 51.5 260.5
s84.5 157.833 150.5 224.5c64.667 64.667 137.167 113.834 217.5 147.501s167.833 50.5 262.5 50.5s183 -16.833 265 -50.5s156 -83.5 222 -149.5c64.667 -64.667 113.667 -138 147 -220s50 -169.667 50 -263c0 -94 -16.5 -181.667 -49.5 -263s-81.5 -153.333 -145.5 -216
c-68 -66.667 -143.833 -117.334 -227.5 -152.001s-170.834 -52 -261.501 -52s-177 17.167 -259 51.5s-156.333 84.5 -223 150.5zM294.001 683c0 -73.333 14.3311 -143.666 42.998 -210.999s70 -128 124 -182s114.333 -95 181 -123s137.334 -42 212.001 -42
c73.333 0 144.333 14.167 213 42.5s130.667 69.833 186 124.5c52.667 52 92.334 110.833 119.001 176.5s40 137.167 40 214.5c0 76 -13.667 147.667 -41 215s-67.333 127.333 -120 180c-53.333 54 -113.5 94.833 -180.5 122.5s-139.167 41.5 -216.5 41.5
s-149 -13.667 -215 -41s-125.333 -67.666 -178 -120.999c-54 -54.667 -95.333 -115.834 -124 -183.501s-43 -138.834 -43 -213.501z" />
    <glyph glyph-name="equal" unicode="=" horiz-adv-x="1707" 
d="M854 -100c-70.667 0 -138.666 9.16797 -203.999 27.501s-126.5 44.166 -183.5 77.499s-108.833 73.333 -155.5 120s-86.667 98.5 -120 155.5s-59.166 118.167 -77.499 183.5s-27.5 133.333 -27.5 204s9.16699 138.667 27.5 204s44.166 126.5 77.499 183.5
s73.333 108.833 120 155.5s98.5 86.667 155.5 120s118.167 59.166 183.5 77.499s133.333 27.5 204 27.5s138.667 -9.16699 204 -27.5s126.5 -44.166 183.5 -77.499s108.833 -73.333 155.5 -120s86.667 -98.5 120 -155.5s59.166 -118.167 77.499 -183.5
s27.5 -133.333 27.5 -204c0 -78.667 -11.167 -153.667 -33.5 -225s-53.5 -137.333 -93.5 -198l112 -271l-269 98c-66.667 -54 -141 -96.167 -223 -126.5s-169 -45.5 -261 -45.5zM429.001 868.001c-18.667 -4.66699 -32.6709 -15.665 -42.0039 -32.998
s-11.666 -36.333 -6.99902 -57l105 -446c5.33301 -20.667 16 -36.667 32 -48s33.333 -15 52 -11l717 169c18.667 4.66699 32.834 15.667 42.501 33s11.834 36.333 6.50098 57l-104 445c-5.33301 21.333 -16.166 37.666 -32.499 48.999s-33.5 14.666 -51.5 9.99902l-155 -36
c-22.667 16.667 -47.667 29.667 -75 39s-56 14 -86 14c-52.667 0 -100.5 -13.667 -143.5 -41s-75.833 -63 -98.5 -107zM869.997 469.003c-26.667 0 -51.834 5 -75.501 15s-44.167 23.833 -61.5 41.5s-31.166 38.167 -41.499 61.5s-15.5 48.333 -15.5 75
s5.16699 51.834 15.5 75.501s24.166 44.167 41.499 61.5s37.833 31.166 61.5 41.499s48.834 15.5 75.501 15.5s51.667 -5.16699 75 -15.5s43.666 -24.166 60.999 -41.499s31.166 -37.833 41.499 -61.5s15.5 -48.834 15.5 -75.501s-5.16699 -51.667 -15.5 -75
s-24.166 -43.833 -41.499 -61.5s-37.666 -31.5 -60.999 -41.5s-48.333 -15 -75 -15zM869.997 786.003c-17.333 0 -33.5 -3.16699 -48.5 -9.5s-28.167 -15.166 -39.5 -26.499s-20.166 -24.5 -26.499 -39.5s-9.5 -31.167 -9.5 -48.5s3.16699 -33.333 9.5 -48
s15.166 -27.667 26.499 -39s24.5 -20.166 39.5 -26.499s31.167 -9.5 48.5 -9.5c16.667 0 32.5 3.16699 47.5 9.5s28.167 15.166 39.5 26.499s20.166 24.333 26.499 39s9.5 30.667 9.5 48s-3.16699 33.5 -9.5 48.5s-15.166 28.167 -26.499 39.5s-24.5 20.166 -39.5 26.499
s-30.833 9.5 -47.5 9.5z" />
    <glyph glyph-name="greater" unicode="&#x3e;" horiz-adv-x="1707" 
d="M1431 207h-172v-307h-307v307h-187l221 197v674h189l-333 306l-333 -306h187v-262l223 -216h-189v-700h-307v700h-170l336 314l56 -41v136h-267l464 427l464 -427h-269v-547l58 51z" />
    <glyph glyph-name="question" unicode="?" horiz-adv-x="1707" 
d="M954 1018l-0.00195312 131.999c90.667 -20.667 167 -61.5 229 -122.5s103.333 -140.833 124 -239.5h-132c-17.333 60.667 -45.166 109.834 -83.499 147.501s-84.166 65.167 -137.499 82.5zM756.998 1018c-26 -8.66699 -51.167 -19.834 -75.5 -33.501s-46.5 -30 -66.5 -49
s-37.667 -40.833 -53 -65.5s-27.333 -52 -36 -82h-132c21.333 99.333 60.833 179.333 118.5 240s139.167 101.334 244.5 122.001v-132zM525.998 606.999c8.66699 -26 20.667 -51.668 36 -77.001s33 -48.666 53 -69.999s42.167 -40 66.5 -56s49.5 -28.333 75.5 -37v-133
c-52.667 10.667 -99.167 25.5 -139.5 44.5s-75.333 43.333 -105 73s-54.167 65.5 -73.5 107.5s-34.333 91.333 -45 148h132zM1450 692.998c0 -55.333 -7.16699 -108.667 -21.5 -160s-34.5 -99.333 -60.5 -144s-57.167 -85.334 -93.5 -122.001s-76.833 -68.167 -121.5 -94.5
s-92.5 -46.666 -143.5 -60.999s-104.167 -21.5 -159.5 -21.5c-82.667 0 -160.334 15.833 -233.001 47.5s-136.167 74.667 -190.5 129s-97.166 118.166 -128.499 191.499s-47 151.666 -47 234.999c0 82.667 15.667 160.667 47 234s74.166 137.166 128.499 191.499
s117.833 97.333 190.5 129s150.334 47.5 233.001 47.5c55.333 0 108.5 -7.16699 159.5 -21.5s98.833 -34.666 143.5 -60.999s85.167 -57.666 121.5 -93.999s67.5 -76.833 93.5 -121.5s46.167 -92.667 60.5 -144s21.5 -104.666 21.5 -159.999zM1390 692.997
c0 74.667 -14.167 144.834 -42.5 210.501s-66.833 123 -115.5 172s-105.834 87.667 -171.501 116s-135.834 42.5 -210.501 42.5s-144.667 -14.167 -210 -42.5s-122.5 -67 -171.5 -116s-87.667 -106.333 -116 -172s-42.5 -135.834 -42.5 -210.501
c0 -75.333 14.167 -145.833 42.5 -211.5s67 -123.167 116 -172.5s106.167 -88.166 171.5 -116.499s135.333 -42.5 210 -42.5s144.834 14.167 210.501 42.5s122.834 67.166 171.501 116.499s87.167 106.833 115.5 172.5s42.5 136.167 42.5 211.5zM849.998 417.997
c-37.333 0 -72.5 7.16699 -105.5 21.5s-61.833 34 -86.5 59s-44.167 54.167 -58.5 87.5s-21.5 69 -21.5 107s7.16699 73.5 21.5 106.5s33.833 62 58.5 87s53.5 44.833 86.5 59.5s68.167 22 105.5 22c38 0 73.5 -7.33301 106.5 -22s62 -34.5 87 -59.5s44.667 -54 59 -87
s21.5 -68.5 21.5 -106.5s-7.16699 -73.667 -21.5 -107s-34 -62.5 -59 -87.5s-54 -44.667 -87 -59s-68.5 -21.5 -106.5 -21.5zM1063 692.997c0 29.333 -5.5 56.833 -16.5 82.5s-26.167 48.167 -45.5 67.5s-42 34.5 -68 45.5s-53.667 16.5 -83 16.5s-56.833 -5.5 -82.5 -16.5
s-48.167 -26.167 -67.5 -45.5s-34.666 -41.833 -45.999 -67.5s-17 -53.167 -17 -82.5s5.66699 -57 17 -83s26.666 -48.667 45.999 -68s41.833 -34.666 67.5 -45.999s53.167 -17 82.5 -17s57 5.66699 83 17s48.667 26.666 68 45.999s34.5 42 45.5 68s16.5 53.667 16.5 83z
M953.998 366.997c26.667 8.66699 51.5 21.001 74.5 37.001s43.833 34.667 62.5 56s35.167 44.666 49.5 69.999s25.833 51 34.5 77h132c-10 -56.667 -25.667 -106 -47 -148s-47 -77.833 -77 -107.5s-64.333 -54 -103 -73s-80.667 -33.833 -126 -44.5v133zM1470 340.998
c18 0 33.5 -6.5 46.5 -19.5s19.5 -28.833 19.5 -47.5s-6.5 -34.334 -19.5 -47.001s-28.5 -19 -46.5 -19c-18.667 0 -34.334 6.33301 -47.001 19s-19 28.334 -19 47.001s6.33301 34.5 19 47.5s28.334 19.5 47.001 19.5zM1309 169.998c11.333 0 22.166 -2.16699 32.499 -6.5
s19.333 -10.333 27 -18s13.667 -16.667 18 -27s6.5 -21.5 6.5 -33.5s-2.16699 -23.167 -6.5 -33.5s-10.333 -19.333 -18 -27s-16.667 -13.667 -27 -18s-21.166 -6.5 -32.499 -6.5c-23.333 0 -43.333 8.33301 -60 25s-25 36.667 -25 60s8.33301 43.333 25 60s36.667 25 60 25
zM1448 557.998c11.333 0 20.833 -3.83301 28.5 -11.5s11.5 -16.834 11.5 -27.501c0 -11.333 -3.83301 -20.666 -11.5 -27.999s-17.167 -11 -28.5 -11c-10.667 0 -19.834 3.66699 -27.501 11s-11.5 16.666 -11.5 27.999c0 10.667 3.83301 19.834 11.5 27.501
s16.834 11.5 27.501 11.5zM271.998 105.998c12 0 22.167 -4.16699 30.5 -12.5s12.5 -18.5 12.5 -30.5c0 -11.333 -4.16699 -21.166 -12.5 -29.499s-18.5 -12.5 -30.5 -12.5c-11.333 0 -21.166 4.16699 -29.499 12.5s-12.5 18.166 -12.5 29.499
c0 12 4.16699 22.167 12.5 30.5s18.166 12.5 29.499 12.5zM258.998 331.998c11.333 0 21 -4 29 -12s12 -17.667 12 -29s-4 -21 -12 -29s-17.667 -12 -29 -12s-20.833 4 -28.5 12s-11.5 17.667 -11.5 29s3.83301 21 11.5 29s17.167 12 28.5 12zM391.998 228.998
c15.333 0 28.333 -5.5 39 -16.5s16 -24.167 16 -39.5s-5.33301 -28.333 -16 -39s-23.667 -16 -39 -16s-28.166 5.33301 -38.499 16s-15.5 23.667 -15.5 39s5.16699 28.5 15.5 39.5s23.166 16.5 38.499 16.5zM1470 1060c8 0 14.833 -2.83301 20.5 -8.5s8.5 -12.5 8.5 -20.5
c0 -7.33301 -2.83301 -13.833 -8.5 -19.5s-12.5 -8.5 -20.5 -8.5c-7.33301 0 -14 2.83301 -20 8.5s-9 12.167 -9 19.5c0 8 3 14.833 9 20.5s12.667 8.5 20 8.5zM225.998 1180c13.333 0 24.833 -4.66699 34.5 -14s14.5 -20.666 14.5 -33.999s-4.83301 -24.833 -14.5 -34.5
s-21.167 -14.5 -34.5 -14.5s-24.5 4.83301 -33.5 14.5s-13.5 21.167 -13.5 34.5s4.5 24.666 13.5 33.999s20.167 14 33.5 14zM336.998 1357c17.333 0 31.666 -5.83301 42.999 -17.5s17 -25.834 17 -42.501s-5.66699 -31 -17 -43s-25.666 -18 -42.999 -18
c-16.667 0 -30.834 6 -42.501 18s-17.5 26.333 -17.5 43s5.83301 30.834 17.5 42.501s25.834 17.5 42.501 17.5zM241.998 981.998c8.66699 0 15.834 -2.83301 21.501 -8.5s8.5 -12.834 8.5 -21.501s-2.83301 -16.167 -8.5 -22.5s-12.834 -9.5 -21.501 -9.5
s-15.834 3.16699 -21.501 9.5s-8.5 13.833 -8.5 22.5s2.83301 15.834 8.5 21.501s12.834 8.5 21.501 8.5z" />
    <glyph glyph-name="at" unicode="@" horiz-adv-x="1707" 
d="M1155 439c-4.66699 0 -8.16699 -0.670898 -10.5 -2.00391s-5.16602 -4 -8.49902 -8c-7.33301 -8 -17 -19.5 -29 -34.5s-27.667 -32.167 -47 -51.5c-66 -66 -113.333 -99 -142 -99l-7 1c-10.667 2 -17.5 7 -20.5 15s-4.5 16.667 -4.5 26c0 12 1.5 23.333 4.5 34
s6.16699 21.334 9.5 32.001c24.667 74.667 53.5 147.5 86.5 218.5l95.5 214.5l53 115.5c18 37.667 34 76.5 48 116.5c5.33301 14 9.83301 28.833 13.5 44.5s5.5 30.834 5.5 45.501c0 25.333 -7.16699 45.333 -21.5 60s-31.833 24.334 -52.5 29.001l-6 1
c-4.66699 0 -6.83398 -3 -6.50098 -9s-1.16699 -17.667 -4.5 -35c-2.66699 -12 -5.83398 -23.833 -9.50098 -35.5l-11.5 -35.5c-16.667 -54.667 -37.334 -106.834 -62.001 -156.501l-73 -147.5l-15 -28v11c-2.66699 14 -8.16699 26.5 -16.5 37.5s-18.166 20.333 -29.499 28
s-24 13.5 -38 17.5s-28 6 -42 6c-19.333 0 -38 -2.83301 -56 -8.5s-35.167 -13.167 -51.5 -22.5s-32.166 -20.166 -47.499 -32.499s-29.666 -25.166 -42.999 -38.499c-35.333 -34.667 -66.333 -74.167 -93 -118.5s-47 -87.833 -61 -130.5
c-12.667 -41.333 -22.334 -83.833 -29.001 -127.5s-7 -83.667 -1 -120s20.5 -66.333 43.5 -90s57.5 -35.834 103.5 -36.501c25.333 0 52.333 9 81 27s57 45 85 81l12 12v-5.5c0 -2.33301 -0.666992 -4.16602 -2 -5.49902c0 -12.667 1.83301 -25.334 5.5 -38.001
s9 -24.167 16 -34.5s15.833 -18.666 26.5 -24.999s22.667 -9.5 36 -9.5c32 0 67.5 14.667 106.5 44s86.167 75 141.5 137c30.667 34 55 65.333 73 94c1.33301 5.33301 2.83301 9.5 4.5 12.5s2.5 5.83301 2.5 8.5c0 10.667 -4 16 -12 16zM767 372.996
c-13.333 -24.667 -29.002 -46.8311 -47.002 -66.498s-34.667 -36.167 -50 -49.5s-30.666 -20 -45.999 -20c-17.333 0 -31.166 8.16699 -41.499 24.5s-14.833 37.166 -13.5 62.499c0.666992 33.333 5 66.666 13 99.999s18.833 66 32.5 98s29.834 62.833 48.501 92.5
s39 57.5 61 83.5l21 24c7.33301 8 15 15.333 23 22s16.667 12.167 26 16.5s19.666 6.5 30.999 6.5c38 0 56.333 -22.333 55 -67c0 -29.333 -3.16699 -58 -9.5 -86s-14.666 -55.833 -24.999 -83.5s-22.333 -54.667 -36 -81s-27.834 -51.833 -42.501 -76.5zM708.998 1239
l80 22c6 1.33301 11.667 4.5 17 9.5s9.33301 10.833 12 17.5l20 81c1.33301 6 3.16602 9 5.49902 9s4.16602 -3 5.49902 -9l22 -81c0.666992 -6.66699 3.83398 -12.5 9.50098 -17.5s11.167 -8.16699 16.5 -9.5l81 -22c6 -1.33301 9 -3.16602 9 -5.49902
s-3 -4.16602 -9 -5.49902l-81 -22c-5.33301 -1.33301 -10.833 -4.66602 -16.5 -9.99902s-8.83398 -10.666 -9.50098 -15.999l-22 -81c-1.33301 -6.66699 -3.16602 -10 -5.49902 -10s-4.16602 3.33301 -5.49902 10l-20 81c-2.66699 5.33301 -6.66699 10.666 -12 15.999
s-11 8.66602 -17 9.99902l-80 22c-6 1.33301 -9 3.16602 -9 5.49902s3 4.16602 9 5.49902zM474.998 657.999l-49.001 191.999c-3.33301 16 -12.333 31 -27 45s-30 23.333 -46 28l-215 56c-15.333 4.66699 -23 9.83398 -23 15.501s7.66699 10.834 23 15.501l215 56
c16 4 31.333 13.167 46 27.5s23.667 29.5 27 45.5l56 216c4.66699 16 9.83398 24 15.501 24s10.5 -8 14.5 -24l57 -216c4 -16 13 -31.167 27 -45.5s29 -23.5 45 -27.5l216 -56c15.333 -4.66699 23 -9.83398 23 -15.501s-7.66699 -10.834 -23 -15.501l-216 -56
c-16 -4.66699 -31 -14 -45 -28s-23 -29 -27 -45l-26 -98c-12.667 -14.667 -24.667 -29.667 -36 -45s-22 -31.666 -32 -48.999zM1437 599.998l128 -34c9.33301 -2.66699 14 -5.66699 14 -9s-4.66699 -6.33301 -14 -9l-128 -34c-9.33301 -2 -18.166 -7.16699 -26.499 -15.5
s-13.833 -17.166 -16.5 -26.499l-33 -128c-2.66699 -10 -5.66699 -15 -9 -15s-6 5 -8 15l-34 128c-2.66699 9.33301 -8.16699 18.166 -16.5 26.499s-17.166 13.5 -26.499 15.5l-128 34c-9.33301 2.66699 -14 5.66699 -14 9s4.66699 6.33301 14 9l128 34
c9.33301 1.33301 18.166 6.33301 26.499 15s13.833 17.667 16.5 27l34 128c2 9.33301 4.66699 14 8 14s6.33301 -4.66699 9 -14l33 -128c2.66699 -9.33301 8.16699 -18.333 16.5 -27s17.166 -13.667 26.499 -15z" />
    <glyph glyph-name="A" unicode="A" 
d="M1038 471c41.333 -18.667 82.6758 -41.1699 124.009 -67.5029s80.5 -55.5 117.5 -87.5s70.333 -66.333 100 -103s53.167 -75 70.5 -115l-56 -41l-42 -32l-46 -36l-65 -50c-52 92.667 -110 165.334 -174 218.001s-139 89 -225 109
c-24.667 -30 -53.834 -60.833 -87.501 -92.5s-71.834 -62 -114.501 -91s-90.334 -55.833 -143.001 -80.5s-110.334 -45 -173.001 -61l-20.5 37.5l-16.5 31.5l-27 53c-8 16.667 -15.5 33.167 -22.5 49.5l-24.5 55.5c50 10.667 93.333 23 130 37s69.167 31.833 97.5 53.5
s54.333 48 78 79s47.5 68.833 71.5 113.5v13c0 4 -0.333008 8.33301 -1 13c0 44 3 88 9 132c4.66699 38.667 12.167 75.834 22.5 111.501s23.666 69 39.999 100s35.5 58.667 57.5 83s47 44.166 75 59.499c9.33301 -2.66699 19.5 -6.16699 30.5 -10.5
s22.167 -9.16602 33.5 -14.499l71 -33l63 -29c9.33301 -4.66699 17.666 -8.5 24.999 -11.5s13.333 -5.16699 18 -6.5c-2.66699 -10.667 1.16602 -21.5 11.499 -32.5s31.166 -19.833 62.499 -26.5c12.667 -2.66699 28.5 -5 47.5 -7s40 -1.5 63 1.5s47.833 9.83301 74.5 20.5
s53.667 27.334 81 50.001c8.66699 -11.333 16.667 -22.666 24 -33.999l22 -34l38 -61l35 -57c-20.667 -17.333 -42 -33.5 -64 -48.5s-45 -28.167 -69 -39.5c-20.667 -10.667 -42.667 -19.834 -66 -27.501s-49 -14.167 -77 -19.5c-21.333 -4.66699 -45 -7 -71 -7
c-34.667 0 -69.334 4.33301 -104.001 13v-20c0 -6 -0.333008 -11.333 -1 -16zM1067.01 1004c-31.333 0 -60.666 5.5 -87.999 16.5s-51.333 26 -72 45s-37 41.167 -49 66.5s-18 52.666 -18 81.999s6 56.833 18 82.5s28.333 48.167 49 67.5s44.667 34.666 72 45.999
s56.666 17 87.999 17s61 -5.66699 89 -17s52.5 -26.666 73.5 -45.999s37.667 -41.833 50 -67.5s18.5 -53.167 18.5 -82.5s-6.16699 -56.666 -18.5 -81.999s-29 -47.5 -50 -66.5s-45.5 -34 -73.5 -45s-57.667 -16.5 -89 -16.5z" />
    <glyph glyph-name="B" unicode="B" 
d="M51 117l117 108v170l375 -346h-185l-116 -108zM147 954c90.667 0 178.165 -11.1689 262.498 -33.502s163.5 -53.666 237.5 -93.999s141.333 -88.666 202 -144.999s112.834 -118.833 156.501 -187.5s77.5 -142.167 101.5 -220.5s36 -159.833 36 -244.5h-289
c0 88 -17.167 172.167 -51.5 252.5s-85.5 152.5 -153.5 216.5c-66.667 62 -143.167 109.167 -229.5 141.5s-177.166 48.5 -272.499 48.5v266zM146.998 1430c137.333 0 269.995 -16.833 397.995 -50.5s247.667 -81.167 359 -142.5s213 -134.666 305 -219.999
s170.833 -180 236.5 -284s116.667 -215.333 153 -334s54.5 -242 54.5 -370h-287c0 103.333 -14.667 203.166 -44 299.499s-70.666 186.333 -123.999 270s-117.166 160 -191.499 229s-156.666 128.333 -246.999 178s-187.166 88 -290.499 115s-210.666 40.5 -321.999 40.5
v269z" />
    <glyph glyph-name="C" unicode="C" 
d="M727 457c0 -19.333 -7.16699 -35.833 -21.5 -49.5s-31.833 -20.5 -52.5 -20.5s-38 6.83301 -52 20.5s-21 30.167 -21 49.5s7.16699 35.333 21.5 48s31.5 19 51.5 19c20.667 0 38.167 -6.33301 52.5 -19s21.5 -28.667 21.5 -48zM1538 530
c0 -49.333 -10.1738 -95.666 -30.5068 -138.999s-48.166 -81.5 -83.499 -114.5s-76.5 -59 -123.5 -78s-97.5 -28.5 -151.5 -28.5h-8c-33.333 -67.333 -85 -122.666 -155 -165.999c-69.333 -42 -146.666 -63 -231.999 -63c-59.333 0 -114.833 10.333 -166.5 31
s-96.667 48.834 -135 84.501s-68.666 77.5 -90.999 125.5s-33.5 99.333 -33.5 154c0 44 7 85.667 21 125s33.833 75.166 59.5 107.499s56.167 60.666 91.5 84.999s74 43.5 116 57.5v10.5c0 3.66699 0.333008 7.16699 1 10.5c0 60 -5.33301 113.667 -16 161
c-11.333 54.667 -27.333 101.5 -48 140.5s-45 68.167 -73 87.5c-25.333 17.333 -51 26 -77 26h-12c-16.667 -1.33301 -32.5 -2.33301 -47.5 -3l-43.5 -2h-16c-21.333 0 -40.333 1 -57 3c-20.667 2.66699 -36.334 8 -47.001 16c-8.66699 6.66699 -13 15.334 -13 26.001
c0 20 8 31.667 24 35c8.66699 2.66699 18.834 3.66699 30.501 3s22.834 -0.333984 33.501 0.999023s19.834 4.66602 27.501 9.99902s12.5 15.333 14.5 30c2.66699 18.667 2.16699 35.167 -1.5 49.5s-6 27.5 -7 39.5s1.66699 23.167 8 33.5s20.833 20.5 43.5 30.5
c12.667 6 24.334 9 35.001 9c6 0 11 -1 15 -3c12.667 -5.33301 22.5 -15.833 29.5 -31.5s11.5 -35.167 13.5 -58.5c0.666992 -7.33301 1.16699 -14.333 1.5 -21s0.5 -13.667 0.5 -21v-14c0 -4.66699 -0.333008 -9.66699 -1 -15c28 6 55.333 9 82 9c22 0 43.667 -2 65 -6
c38.667 -6.66699 75.834 -18.5 111.501 -35.5s69.667 -37.167 102 -60.5s62.333 -48.5 90 -75.5s52.834 -53.833 75.501 -80.5s42.5 -51.667 59.5 -75s30.833 -43 41.5 -59c15.333 3.33301 30.5 5.83301 45.5 7.5s29.167 2.5 42.5 2.5c54 0 104.5 -9.5 151.5 -28.5
s88.167 -45 123.5 -78s63.166 -71.333 83.499 -115s30.5 -90.167 30.5 -139.5zM714.993 731l38.999 0.000976562c23.333 0 47 -2 71 -6c44 61.333 102.667 107 176 137c-40 58 -79 107.5 -117 148.5s-74.5 74.833 -109.5 101.5s-68.5 47 -100.5 61s-61.333 23 -88 27
c-25.333 3.33301 -47.666 5.33301 -66.999 6c-5.33301 0 -10.166 -0.166992 -14.499 -0.5s-8.5 -0.833008 -12.5 -1.5c31.333 -22.667 58.666 -48.5 81.999 -77.5s43.166 -59.167 59.499 -90.5s29.5 -62.833 39.5 -94.5s18 -61.167 24 -88.5s10.333 -51.833 13 -73.5
s4.33398 -37.834 5.00098 -48.501zM1086.99 336.001c0 69.333 -21.667 130.669 -65 184.002s-98 90.333 -164 111v-2c-11.333 3.33301 -23.166 6.16602 -35.499 8.49902s-25.833 4.16602 -40.5 5.49902v2c-6.66699 1.33301 -16 2 -28 2c-46 0 -89.5 -8.16699 -130.5 -24.5
s-76.667 -38.666 -107 -66.999s-54.333 -61.333 -72 -99s-26.5 -77.834 -26.5 -120.501c0 -43.333 8.83301 -83.833 26.5 -121.5s41.667 -70.5 72 -98.5s66 -50.167 107 -66.5s84.5 -24.5 130.5 -24.5c31.333 0 61.333 3.83301 90 11.5s55.5 18.5 80.5 32.5
s47.667 30.667 68 50s37.5 41 51.5 65h-2c6.66699 10.667 12.667 21.5 18 32.5s9.66602 22.167 12.999 33.5h2c8 26 12 54.667 12 86zM1461.99 530.004c0 40 -8.33594 77.499 -25.0029 112.499s-39.167 65.667 -67.5 92s-61.5 47 -99.5 62s-78.333 22.5 -121 22.5
c-50.667 0 -97.167 -10.167 -139.5 -30.5s-77.833 -47.5 -106.5 -81.5c83.333 -29.333 150 -77 200 -143c51.333 -66.667 77 -142.667 77 -228c0 -34 -4.33301 -65.333 -13 -94c40.667 2 78.834 10.833 114.501 26.5s66.834 36.334 93.501 62.001s47.834 55.5 63.501 89.5
s23.5 70.667 23.5 110z" />
    <glyph glyph-name="D" unicode="D" 
d="M592 980c50 8.66699 97.668 15.0029 143.001 19.0029s88.666 6.33301 129.999 7h17c38 0 74.5 -1.16699 109.5 -3.5s68.5 -5.83301 100.5 -10.5c68.667 -9.33301 130.167 -22.5 184.5 -39.5s101.833 -35.833 142.5 -56.5c96.667 -48 174.667 -108 234 -180l-735 -199
l-170 324c36.667 6 70 8.66699 100 8h19c18.667 -0.666992 37 -1.83398 55 -3.50098s35.667 -3.83398 53 -6.50098l72 -125l249 61c-30 17.333 -61.167 33.5 -93.5 48.5s-66.5 28.167 -102.5 39.5c-30.667 9.33301 -63.667 17.5 -99 24.5s-73.333 12.167 -114 15.5
c-19.333 2 -38.666 3 -57.999 3c-64 0 -130 -9.33301 -198 -28l203 -383l-736 -199c-32 76 -47.667 148.333 -47 217v25c1.33301 32.667 7.16602 66.667 17.499 102s27.5 70 51.5 104s56 66.167 96 96.5s90.333 57.166 151 80.499l-95 178l230 24l78 -145
c4 0 8 0.666992 12 2zM543.001 585.003l-111 211.001c-26 -16 -47.833 -31.833 -65.5 -47.5s-32 -31.334 -43 -47.001s-19.333 -30.834 -25 -45.501s-9.5 -29 -11.5 -43c-2 -9.33301 -3 -18.666 -3 -27.999c0 -22 4.33301 -42.667 13 -62z" />
    <glyph glyph-name="E" unicode="E" 
d="M1503 918c10 -74 15.001 -144.668 15.001 -212.001c0 -98.667 -10.333 -189.334 -31 -272.001c-10 -40 -23.167 -79.833 -39.5 -119.5s-36.5 -77.667 -60.5 -114s-52.5 -70 -85.5 -101s-71.167 -58 -114.5 -81s-92.5 -41 -147.5 -54s-116.833 -19.5 -185.5 -19.5l-60 -3
c-84.667 0 -164.334 14.667 -239.001 44c-39.333 15.333 -78.5 36 -117.5 62s-75.167 59.333 -108.5 100s-62.666 90 -87.999 148s-44.333 126.667 -57 206l127 -53c-14.667 54 -22 107.667 -22 161c0 7.33301 0.166992 14.833 0.5 22.5s0.833008 15.167 1.5 22.5
c1.33301 28.667 5.66602 58.667 12.999 90s18.833 62 34.5 92s36.167 58.833 61.5 86.5s56.666 52.834 93.999 75.501c6.66699 9.33301 12.834 19.5 18.501 30.5s10.834 22.833 15.501 35.5c7.33301 19.333 13.666 42.666 18.999 69.999c2 12.667 2.66699 24 2 34
c0 16.667 -1.33301 32.667 -4 48l143 -70c39.333 26 74.333 53.333 105 82c28 26 53 56 75 90s34.333 71 37 111c28 -15.333 55.333 -34 82 -56s54 -47.333 82 -76c24 -24 49.333 -52 76 -84s53.667 -68.5 81 -109.5s54.833 -87 82.5 -138s54.5 -107.5 80.5 -169.5
c17.333 7.33301 33.666 17.333 48.999 30c13.333 10.667 25.833 23.334 37.5 38.001s20.834 32.334 27.501 53.001zM831.001 62.999c6.66699 -0.666992 13.1729 -1.16113 19.5059 -1.49414s12.833 -0.166016 19.5 0.500977c50 0 97.333 8.66699 142 26
c23.333 9.33301 46.833 21.666 70.5 36.999s45.667 35.166 66 59.499s38.166 53.833 53.499 88.5s26.333 76 33 124l-76 -30c9.33301 33.333 14 64.666 14 93.999c0 5.33301 -0.166992 10.5 -0.5 15.5s-0.833008 10.167 -1.5 15.5c-1.33301 18 -4.33301 36.167 -9 54.5
s-11.834 36.166 -21.501 53.499s-21.834 34.166 -36.501 50.499s-33 31.5 -55 45.5c-8 11.333 -15 25 -21 41c-5.33301 12 -9.33301 25.667 -12 41s-2 31.666 2 48.999l-86 -43c-12.667 7.33301 -24.167 15.166 -34.5 23.499s-20.166 17.166 -29.499 26.499
c-16.667 15.333 -31.334 33.5 -44.001 54.5s-20.334 43.5 -23.001 67.5c-15.333 -9.33301 -31.333 -20.666 -48 -33.999s-33.667 -28.333 -51 -45c-28.667 -28.667 -59.5 -67.5 -92.5 -116.5s-65.5 -110.833 -97.5 -185.5c-4.66699 2.66699 -9.33398 5.66699 -14.001 9
s-9.66699 6.66602 -15 9.99902c-8 6.66699 -16.167 14.167 -24.5 22.5s-13.833 18.5 -16.5 30.5c-6 -45.333 -9 -87.666 -9 -126.999c0 -57.333 6.66699 -112 20 -164c8 -36 20.667 -71.5 38 -106.5s41.166 -66.333 71.499 -94s67.5 -50 111.5 -67s96.333 -25.5 157 -25.5z
" />
    <glyph glyph-name="F" unicode="F" 
d="M641 1143c0 4.66699 0.333984 12.001 1.00098 22.001s1.66699 22.667 3 38c3.33301 32 15 64 35 96c20.667 34 54 64.333 100 91c46.667 26.667 113.667 40 201 40h246v-261h-180c-18.667 0 -35.334 -7 -50.001 -21c-14.667 -12.667 -22 -25.334 -22 -38.001v-172h252
l-9 -95l-10 -81l-12 -76h-223v-743h-332v743h-162v252h162v205z" />
    <glyph glyph-name="G" unicode="G" 
d="M1288 1202c-16.667 -2.66699 -32.3281 -6.00391 -46.9951 -10.0039s-31 -7.33301 -49 -10c12.667 -32 19 -66.667 19 -104v-9.5c0 -3 -0.333008 -6.16699 -1 -9.5c-2 -30 -8.16699 -60.333 -18.5 -91s-24 -59.5 -41 -86.5s-37.167 -51.333 -60.5 -73
s-49.333 -38.5 -78 -50.5c-20.667 -8 -43.334 -14.167 -68.001 -18.5s-47.834 -9.66602 -69.501 -15.999s-40 -15.166 -55 -26.499s-23.167 -28 -24.5 -50c-1.33301 -16 3 -30.5 13 -43.5s23.667 -24.667 41 -35s37.5 -19.666 60.5 -27.999s47.167 -15.833 72.5 -22.5
l100 -29c32 -9.33301 61.333 -19.166 88 -29.499s46.334 -22.166 59.001 -35.499c20.667 -22.667 35 -50.667 43 -84c6.66699 -24.667 10 -51.667 10 -81v-10.5c0 -3.66699 -0.333008 -7.16699 -1 -10.5c-2 -36 -9.5 -71 -22.5 -105s-31.167 -62.667 -54.5 -86
c-16.667 -16.667 -37.667 -31.5 -63 -44.5s-53.5 -23.833 -84.5 -32.5s-64.167 -15.334 -99.5 -20.001s-71.333 -7.33398 -108 -8.00098h-13c-22.667 0 -44.834 0.833008 -66.501 2.5s-43.167 4.16699 -64.5 7.5c-46.667 7.33301 -89.5 18.833 -128.5 34.5
s-70.833 35.834 -95.5 60.501c-30.667 30.667 -50.334 69 -59.001 115c-2 10.667 -3.5 21 -4.5 31s-1.83301 20.333 -2.5 31c0 26 3.33301 51 10 75c10.667 44 33 84 67 120c34 34.667 79 54.667 135 60c-24 8.66699 -42.333 26 -55 52
c-14 28.667 -20.667 60.334 -20 95.001c0 28.667 4.66699 57 14 85c10 28 26 47.667 48 59c-57.333 34 -101 75 -131 123s-47.667 97.667 -53 149c-0.666992 6 -1.16699 12 -1.5 18s-0.5 12.333 -0.5 19c0 39.333 7 78 21 116c18 50 46.5 93.667 85.5 131
s88.833 65.666 149.5 84.999c38.667 12.667 82.667 19 132 19c12 0 24.167 -0.5 36.5 -1.5s25.166 -2.16699 38.499 -3.5c26 -2.66699 54.667 -8 86 -16s64 -14.333 98 -19c9.33301 -1.33301 18.666 -2.33301 27.999 -3s18.666 -1 27.999 -1c16 0 32.667 1 50 3
c36.667 4 72.334 16 107.001 36v-223zM711.006 957.996c14 -11.333 30.998 -19.5 50.998 -24.5s40.833 -7.5 62.5 -7.5s42.834 2.83301 63.501 8.5s38 13.5 52 23.5c22.667 42.667 34 81 34 115c0 4.66699 -0.166992 9 -0.5 13s-0.833008 8 -1.5 12
c-7.33301 38 -24.666 66.833 -51.999 86.5s-59 30.5 -95 32.5h-7c-32.667 0 -61.667 -8.66699 -87 -26c-27.333 -19.333 -45 -48 -53 -86c-2 -9.33301 -3 -18 -3 -26c0.666992 -34.667 12.667 -75 36 -121zM1036 257.996c-2.66699 26 -12.5 46.835 -29.5 62.502
s-38.5 26.5 -64.5 32.5c-18 4.66699 -38.667 7 -62 7h-11c-4 0 -7.66699 -0.333008 -11 -1c-31.333 -2 -60.666 -6.33301 -87.999 -13c-50 -12 -84.333 -27.333 -103 -46c-10.667 -10 -16 -23.667 -16 -41s4.33301 -36 13 -56c6.66699 -19.333 20.5 -34.833 41.5 -46.5
s45.833 -19.834 74.5 -24.501c9.33301 -1.33301 18.666 -2.5 27.999 -3.5s19 -1.16699 29 -0.5h16.5c5.66699 0 11.167 0.333008 16.5 1c32 2.66699 60.5 9.16699 85.5 19.5s45.5 24.166 61.5 41.499c13.333 15.333 20 34 20 56c0 5.33301 -0.333008 9.33301 -1 12z" />
    <glyph glyph-name="H" unicode="H" 
d="M1296 1436l111.004 0.00585938c9.33301 0 19.5 -5.5 30.5 -16.5s21 -24 30 -39s15.833 -30.833 20.5 -47.5s5 -30.334 1 -41.001c-2.66699 -6.66699 -9.16699 -12.834 -19.5 -18.501s-21.5 -11 -33.5 -16l-34.5 -14.5c-11 -4.66699 -18.833 -9.33398 -23.5 -14.001
c-8 -9.33301 -13.333 -23 -16 -41s-4.33398 -37.667 -5.00098 -59c-1.33301 -21.333 -1.33301 -43.333 0 -66c0.666992 -11.333 1 -22.5 1 -33.5v-30.5v-614v-31v-36c0 -11.333 0.666992 -21.5 2 -30.5s3.33301 -14.833 6 -17.5c5.33301 -5.33301 16 -7.33301 32 -6
c18 1.33301 30.667 0.666016 38 -2.00098c9.33301 -2.66699 19.166 -8.83398 29.499 -18.501s18.5 -20.5 24.5 -32.5c8 -15.333 11.667 -30.333 11 -45c0 -11.333 -3.33301 -22.333 -10 -33c-2 -3.33301 -5.66699 -6.33301 -11 -9s-11.5 -5.33398 -18.5 -8.00098
s-14.5 -5.33398 -22.5 -8.00098s-15.333 -6 -22 -10c-30.667 -12.667 -71.334 -25.667 -122.001 -39c-41.333 -10 -81 -15 -119 -15h-13c-4 0 -8 0.333008 -12 1c-12 1.33301 -25.833 6.16602 -41.5 14.499s-30.167 18.666 -43.5 30.999s-24 25.666 -32 39.999
s-10.667 28.166 -8 41.499c1.33301 10.667 6.5 19.167 15.5 25.5s20.833 12.833 35.5 19.5c4.66699 1.33301 10.334 2.33301 17.001 3s14.334 1.33398 23.001 2.00098c18 1.33301 30.667 5 38 11c5.33301 5.33301 8.33301 13.5 9 24.5s0.5 23.333 -0.5 37
s-2.33301 27.667 -4 42s-2.5 27.166 -2.5 38.499c0 13.333 0.333008 25.5 1 36.5s0.333984 24.833 -0.999023 41.5c0 6 0.166992 12.833 0.5 20.5s0.5 15 0.5 22s-0.166992 13.333 -0.5 19s-1.16602 9.5 -2.49902 11.5c-4.66699 4.66699 -14.167 7.16699 -28.5 7.5
s-30 0 -47 -1s-33.5 -2.33301 -49.5 -4s-27.667 -2.5 -35 -2.5l-81 -11l-52 -8c-16.667 -2.66699 -33 -5.66699 -49 -9s-32.333 -7.16602 -49 -11.499s-34.334 -9.5 -53.001 -15.5l-64 -17c-28 -7.33301 -46.333 -17.333 -55 -30c-4 -5.33301 -6.66699 -13 -8 -23
s-2 -21 -2 -33s0.5 -24.667 1.5 -38s2.16699 -26 3.5 -38l5 -42c0.666992 -5.33301 0.833984 -11.333 0.500977 -18s-1.16602 -14.334 -2.49902 -23.001c-2.66699 -16 -1.33398 -27.667 3.99902 -35c4 -4 9.83301 -7 17.5 -9s15.5 -3 23.5 -3h23
c5.33301 0 11.333 -0.666992 18 -2c15.333 -5.33301 31.666 -17.666 48.999 -36.999c15.333 -17.333 23 -35.333 23 -54c0 -24 -13 -43.333 -39 -58c-16.667 -10 -36.667 -18.667 -60 -26s-47.5 -13.5 -72.5 -18.5s-49.667 -9 -74 -12s-45.833 -4.83301 -64.5 -5.5
c-10 -0.666992 -18.333 -1.16699 -25 -1.5s-12.667 -0.5 -18 -0.5s-10.833 0.333008 -16.5 1s-11.834 1.66699 -18.501 3c-22 6.66699 -43.333 21 -64 43c-18.667 18.667 -28 37.334 -28 56.001c0 19.333 10.667 34.666 32 45.999l54 25
c6.66699 2.66699 14.167 4.33398 22.5 5.00098s13.833 3 16.5 7c6.66699 6.66699 9 22.334 7 47.001c-1.33301 12.667 -2.5 24.5 -3.5 35.5s-2.16699 21.167 -3.5 30.5c-6.66699 56.667 -11 116 -13 178s-3.66699 122 -5 180c0 17.333 -0.166992 33.833 -0.5 49.5
s-0.833008 30.834 -1.5 45.501l-4 87c-1.33301 28.667 -2.33301 58 -3 88s-1 63 -1 99v33v35c0 11.333 -0.5 21.5 -1.5 30.5s-2.83301 15.167 -5.5 18.5c-3.33301 3.33301 -8 5.83301 -14 7.5s-12.5 3.16699 -19.5 4.5l-21 4c-7 1.33301 -13.167 3.33301 -18.5 6
c-20.667 6.66699 -36.834 16.834 -48.501 30.501s-22.834 32.167 -33.501 55.5v27c18.667 32 47.334 53.333 86.001 64c38.667 12 82.334 22 131.001 30l97 15c11.333 1.33301 22.333 2.5 33 3.5s20.667 1.5 30 1.5h13c4 0 8 -0.333008 12 -1
c26.667 -2 50.334 -8.83301 71.001 -20.5s35.667 -30.167 45 -55.5c4 -10.667 6.66699 -23.334 8 -38.001s-1.33398 -27.334 -8.00098 -38.001c-6 -9.33301 -15.333 -16 -28 -20s-26 -7.5 -40 -10.5s-27.167 -6.33301 -39.5 -10s-20.833 -9.5 -25.5 -17.5
c-4 -7.33301 -6 -20 -6 -38v-58c0 -14.667 -0.166992 -28.667 -0.5 -42s-0.833008 -26.666 -1.5 -39.999l-5 -76l-3 -75v-16c0 -21.333 1 -44 3 -68c0 -4 0.5 -10.167 1.5 -18.5s2.16699 -16.666 3.5 -24.999s3.16602 -15.833 5.49902 -22.5s5.16602 -10.667 8.49902 -12
c5.33301 -2.66699 11.333 -4 18 -4s13.167 0.833008 19.5 2.5s12.666 3.5 18.999 5.5s11.5 3.33301 15.5 4l87 19c26.667 5.33301 53.167 10.333 79.5 15s53.5 8.66699 81.5 12l96 11c4 0.666992 8.66699 1.33398 14 2.00098s11.666 1.33398 18.999 2.00098l43 2
c14.667 0.666992 28.167 2 40.5 4s20.5 5 24.5 9c10 8 15 20.167 15 36.5s-1.33301 32.166 -4 47.499l-5 26c-2.66699 22.667 -4.66699 44 -6 64s-2 39.5 -2 58.5s0.666992 38.167 2 57.5s3.33301 40 6 62c1.33301 8 2.66602 17.5 3.99902 28.5s2.33301 22.167 3 33.5
s0.333984 21.666 -0.999023 30.999s-4 16 -8 20c-7.33301 6.66699 -19.333 10.667 -36 12c-17.333 0.666992 -29.333 2.66699 -36 6c-12.667 4 -25 10.167 -37 18.5s-22.5 18.333 -31.5 30s-15.5 24.667 -19.5 39s-4 29.5 0 45.5c2.66699 8 9.83398 15.5 21.501 22.5
s23.167 13.167 34.5 18.5c36.667 18 75.667 30.167 117 36.5s84 13.5 128 21.5z" />
    <glyph glyph-name="I" unicode="I" 
d="M1622 614c17.333 -29.333 27.665 -59.6699 30.998 -91.0029c0.666992 -3.33301 1 -6.66602 1 -9.99902v-10c0 -24 -4 -48.333 -12 -73c-22 -66.667 -63.333 -115 -124 -145c-35.333 -18 -72.333 -27 -111 -27c-28 0 -58 4.66699 -90 14c-25.333 4.66699 -50 15 -74 31
c9.33301 -52.667 9.33301 -101 0 -145c-14.667 -46 -42 -79.667 -82 -101c-23.333 -14.667 -49.666 -22 -78.999 -22c-16 0 -34 2.66699 -54 8c-23.333 5.33301 -45.166 14.833 -65.499 28.5s-42.166 32.167 -65.499 55.5l-2 -12
c-22 -66.667 -64.333 -115.334 -127 -146.001c-16.667 -7.33301 -33.167 -13.166 -49.5 -17.499s-33.166 -6.83301 -50.499 -7.5c-3.33301 -0.666992 -6.83301 -1 -10.5 -1h-10.5c-28.667 0 -56.667 3.33301 -84 10c-45.333 11.333 -79.333 27 -102 47l-28 32
c-8.66699 9.33301 -17 19.666 -25 30.999c-20 36 -30.667 73.667 -32 113c0 25.333 4.33301 50 13 74l12 29l41 61c-28 -7.33301 -55.667 -11.666 -83 -12.999h-8c-11.333 0 -23 0.5 -35 1.5s-23.667 2.83301 -35 5.5c-13.333 1.33301 -26 4.66602 -38 9.99902
s-22.667 11.333 -32 18c-8.66699 4.66699 -16.334 11 -23.001 19l-18 22c-14.667 22.667 -22 47 -22 73c0 12 2 24.667 6 38c6.66699 16.667 14.834 32.5 24.501 47.5s22.5 29.167 38.5 42.5l35 27l-16 4c-41.333 4.66699 -76.333 19.667 -105 45
c-9.33301 6.66699 -18.833 14.834 -28.5 24.501s-17.834 19.834 -24.501 30.501c-17.333 30.667 -26 61 -26 91c0 25.333 6 51 18 77c25.333 58 70.333 103.667 135 137c43.333 20.667 88.333 31 135 31c20.667 0 41.667 -2 63 -6l56 -16l-17 20
c-26.667 44.667 -39.667 89 -39 133c0 13.333 1.66699 28.333 5 45c12 59.333 41.333 102.333 88 129c26 12.667 55 19 87 19c16.667 0 32.667 -1.33301 48 -4c56.667 -15.333 103.667 -48.333 141 -99l25 -39l10 -14l6 14v4c0 31.333 13.333 59.333 40 84
s55.667 44.667 87 60c42 19.333 84 29 126 29c23.333 0 47.666 -3 72.999 -9c69.333 -17.333 120.333 -50.666 153 -99.999l8 -10c24 -37.333 36 -76.333 36 -117c0 -25.333 -4.33301 -50.666 -13 -75.999l-27 -53l76 14c18 1.33301 35.833 1.66602 53.5 0.999023
s34.834 -2.33398 51.501 -5.00098c30.667 -7.33301 57.667 -17.666 81 -30.999c24.667 -12.667 37 -30.334 37 -53.001v-4c0 -18 4.66699 -37 14 -57c5.33301 -12 7.66602 -23.667 6.99902 -35c0 -10.667 -1.33301 -20.334 -4 -29.001c-26 -58.667 -73.333 -103 -142 -133
c12 -5.33301 25 -10.666 39 -15.999s26.333 -11.666 37 -18.999c12 -8.66699 23.667 -19 35 -31l29 -36zM1057 787.996l-9.99805 -9.99902l4 -6l6 -16l282 32c13.333 2.66699 26.666 5.16699 39.999 7.5s25.333 6.16602 36 11.499c55.333 22 91.666 52 108.999 90l4 21
l-10 28c-12 26 -38.667 41 -80 45l-27 2c-32.667 0 -64 -6 -94 -18l-29 -10zM895.001 1208l1.99902 -83.9971l23 -237c12 -5.33301 23.5 -10.833 34.5 -16.5s21.833 -12.5 32.5 -20.5l207 231c3.33301 4.66699 6.5 9.66699 9.5 15s5.83301 10.666 8.5 15.999l17 33l6 45
c0 28 -6 52.667 -18 74c-21.333 35.333 -55.666 58.333 -102.999 69c-19.333 5.33301 -37 8 -53 8c-27.333 0 -53.333 -6 -78 -18c-20.667 -10.667 -38.5 -23.834 -53.5 -39.501s-25.833 -33.834 -32.5 -54.501zM504 1223
c-2.66699 -19.333 -1.66602 -37.832 3.00098 -55.499s11.667 -36.167 21 -55.5l13 -22l204 -203l35 10l-47 248c-2.66699 12 -6 23.5 -10 34.5s-9.33301 21.833 -16 32.5c-26.667 50 -61.667 80.333 -105 91c-10 4.66699 -19 6.66699 -27 6c-9.33301 0 -17.333 -3 -24 -9
c-28.667 -14.667 -44.334 -40.334 -47.001 -77.001zM166.001 778.001c18.667 -32 48.002 -50.333 88.002 -55l22 -4l332 37c4.66699 21.333 17 42.333 37 63l-203 135l-63 23c-7.33301 1.33301 -14.333 2.5 -21 3.5s-13.334 1.16699 -20.001 0.5
c-28.667 0 -57.334 -6.66699 -86.001 -20c-23.333 -8 -42.166 -20 -56.499 -36s-25.5 -33.667 -33.5 -53c-3.33301 -7.33301 -5.83301 -14.833 -7.5 -22.5s-2.83398 -15.167 -3.50098 -22.5c1.33301 -18 6.33301 -34.333 15 -49zM813.003 242.001
c0 40.667 -3.66895 80 -11.002 118s-12.666 75 -15.999 111c-28.667 3.33301 -53.667 11 -75 23l-193 -209c-19.333 -17.333 -31 -37.333 -35 -60l-10 -47c0 -25.333 7 -49.333 21 -72c18.667 -34.667 51.334 -57.667 98.001 -69c14.667 -4 29.667 -6 45 -6
c27.333 0 55.333 6.66699 84 20c20.667 8 38.167 19.667 52.5 35s25.5 32.333 33.5 51l6 21v84zM729.001 578.001c30.667 -27.333 66.999 -40.999 108.999 -40.999c39.333 0 74.666 13.667 105.999 41c30 26 45 58.667 45 98c0 36.667 -15 70 -45 100
c-28.667 24.667 -64 37 -106 37c-41.333 0 -77.666 -12.333 -108.999 -37c-15.333 -15.333 -26.666 -31 -33.999 -47s-11 -33.667 -11 -53c0 -38.667 15 -71.334 45 -98.001zM1155 211.002c0.666992 2.66699 1 5.33398 1 8.00098v9c0 30 -9.33301 60.333 -28 91l-12 21
l-59 68l-96 90l-31 -15l-39 -12l35 -182l26 -70c27.333 -52.667 62.333 -83.334 105 -92.001c3.33301 -0.666992 6.5 -1 9.5 -1h8.5h9c8 0.666992 16.667 3.66699 26 9c26 10 41 35.333 45 76zM1559 498.002c0 36.667 -11.6689 66.668 -35.002 90.001
c-9.33301 16.667 -21.666 29.667 -36.999 39s-31.666 16.666 -48.999 21.999l-23 2l-92 -2l-260 -20l-6 -25l-17 -33l242 -182c17.333 -17.333 37.666 -28.333 60.999 -33c18.667 -6 37 -9 55 -9c25.333 0 50.333 6.66699 75 20c42.667 18 68.334 48 77.001 90z" />
    <glyph glyph-name="J" unicode="J" 
d="M1290 1434c50.667 -13.333 96.1699 -32.835 136.503 -58.502s72.166 -61.5 95.499 -107.5c22.667 -39.333 34 -82.666 34 -129.999v-9.5c0 -3 -0.333008 -6.16699 -1 -9.5c-1.33301 -40 -9.83301 -81.333 -25.5 -124s-36.334 -86 -62.001 -130s-55.667 -88 -90 -132
s-70.833 -87 -109.5 -129c-50.667 -56 -98.334 -113.167 -143.001 -171.5s-85 -116 -121 -173s-66.667 -112.333 -92 -166s-43.333 -103.167 -54 -148.5c-1.33301 2 -2.83301 5 -4.5 9l-6.5 15l-16 40l-15 40l-9 23c-10.667 24.667 -21.167 46.5 -31.5 65.5
s-23.166 40.5 -38.499 64.5l-56 86l-89 130c-15.333 22 -32.833 45.667 -52.5 71l-64.5 80l-71 84l-68 84c-22 28 -40.5 53.833 -55.5 77.5s-29.167 44.5 -42.5 62.5c-42 60 -68 117.333 -78 172c-5.33301 30.667 -8 56.334 -8 77.001c0 18.667 2 34.667 6 48
c5.33301 40 15.666 74.5 30.999 103.5s33.833 53.5 55.5 73.5s45.167 36 70.5 48s50.666 20.667 75.999 26c32 4 60.5 6.16699 85.5 6.5s47.5 -0.833984 67.5 -3.50098s38.167 -6.5 54.5 -11.5s31.833 -10.833 46.5 -17.5c37.333 -18 68.5 -40.167 93.5 -66.5
s48.167 -57.166 69.5 -92.499l48 -79c24.667 54 52.334 101.333 83.001 142s68 71.334 112 92.001c17.333 7.33301 34.333 13.666 51 18.999s33.667 9.33301 51 12c14 2.66699 30 4.66699 48 6s37.667 2 59 2h30z" />
    <glyph glyph-name="K" unicode="K" 
d="M1219 936c-37.333 0 -72.167 6.5 -104.5 19.5s-60.833 30.833 -85.5 53.5s-44 49.167 -58 79.5s-21 62.833 -21 97.5c0 34 7 66 21 96s33.167 56.333 57.5 79s52.833 40.5 85.5 53.5s67.667 19.5 105 19.5c36.667 0 71.167 -6.5 103.5 -19.5s60.5 -30.833 84.5 -53.5
s43 -49 57 -79s21 -62 21 -96c0 -34.667 -7 -67.167 -21 -97.5s-33 -56.833 -57 -79.5s-52.167 -40.5 -84.5 -53.5s-66.833 -19.5 -103.5 -19.5zM998.999 698c0 34 -6.99902 66.168 -20.999 96.501s-33.167 56.666 -57.5 78.999s-52.833 40 -85.5 53
s-67.334 19.5 -104.001 19.5s-71.167 -6.5 -103.5 -19.5s-60.5 -30.667 -84.5 -53s-43 -48.5 -57 -78.5s-21 -62.333 -21 -97v-16v-430h534v430h-2c1.33301 4 2 9.33301 2 16zM731 979.001c54 0 100.333 17.667 139 53c38.667 34.667 58 77.667 58 129
s-19.333 94.333 -58 129c-38.667 35.333 -85 53 -139 53c-54.667 0 -100.667 -17.667 -138 -53s-56 -78.333 -56 -129s18.667 -93.667 56 -129s83.333 -53 138 -53zM1583 553.001c0 47.333 -9.5 91.499 -28.5 132.499s-45 76.833 -78 107.5s-71.667 54.667 -116 72
s-91.5 26 -141.5 26c-50.667 0 -98.167 -8.66699 -142.5 -26s-83 -41.333 -116 -72s-59 -66.5 -78 -107.5s-28.5 -85.167 -28.5 -132.5v-23v-585h729v585h-2c0.666992 3.33301 1.16699 6.83301 1.5 10.5s0.5 7.83398 0.5 12.501zM342 973
c-30 0 -58.3291 -5.16699 -84.9961 -15.5s-49.834 -24.666 -69.501 -42.999s-35.334 -39.833 -47.001 -64.5s-17.5 -51.334 -17.5 -80.001c0 -2.66699 0.333008 -5 1 -7s1 -4.33301 1 -7h-2v-350h438v350v14c0 28.667 -5.83301 55.334 -17.5 80.001
s-27.334 46.167 -47.001 64.5s-42.834 32.666 -69.501 42.999s-55 15.5 -85 15.5zM342.004 999c45.333 0 83.666 14.668 114.999 44.001s47 64.666 47 105.999c0 40.667 -15.667 75.667 -47 105s-69.666 44 -114.999 44c-44 0 -81.667 -14.667 -113 -44
s-47 -64.333 -47 -105s15.667 -76 47 -106c31.333 -29.333 69 -44 113 -44z" />
    <glyph glyph-name="L" unicode="L" 
d="M1333 241c-83.333 0 -149.331 18.3359 -197.998 55.0029c-48.667 37.333 -88.334 89.333 -119.001 156l-17 36l-153 326c-25.333 58 -66.666 104.333 -123.999 139c-58 36 -122.667 54 -194 54c-47.333 0 -91.833 -8.5 -133.5 -25.5s-78.334 -40.333 -110.001 -70
s-56.667 -64.167 -75 -103.5s-27.5 -81 -27.5 -125c0 -44.667 9.33301 -86.834 28 -126.501s43.667 -74.167 75 -103.5s68 -52.666 110 -69.999s86.333 -26 133 -26c34 0 66.5 4.16699 97.5 12.5s59.667 20.166 86 35.499s50.166 33.666 71.499 54.999s39 45 53 71l63 -133
c-44 -50 -97.833 -89.333 -161.5 -118s-133.5 -43 -209.5 -43c-65.333 0 -127 11.667 -185 35s-108.667 55 -152 95s-77.5 87.167 -102.5 141.5s-37.5 112.5 -37.5 174.5c0 61.333 12.5 119.166 37.5 173.499s59.167 101.666 102.5 141.999s94 72.333 152 96
s119.667 35.5 185 35.5c100.667 0 189.167 -23.833 265.5 -71.5s135.5 -116.167 177.5 -205.5c0.666992 -3.33301 6.33398 -16 17.001 -38l37 -80l48 -106l53 -114c10.667 -24 21.5 -45.5 32.5 -64.5s23.833 -35.167 38.5 -48.5s32.167 -23.833 52.5 -31.5
s45.5 -12.167 75.5 -13.5h15c53.333 0 96.333 13.333 129 40c35.333 28.667 53.666 64.667 54.999 108c0 20 -3.83301 36.833 -11.5 50.5s-18.5 25.5 -32.5 35.5s-31.167 18.667 -51.5 26s-43.166 15 -68.499 23c-94.667 29.333 -165.667 61.666 -213 96.999
c-48 36.667 -72 89 -72 157c0 34 5.83301 64.833 17.5 92.5s28.667 51.334 51 71.001s49.5 34.834 81.5 45.501s68 16 108 16c102.667 0 180 -43 232 -129l-103 -49c-19.333 26 -39.666 44.167 -60.999 54.5s-46 15.5 -74 15.5c-36.667 0 -67 -10.667 -91 -32
s-36 -48.333 -36 -81c0 -17.333 3 -32.166 9 -44.499s14.5 -23 25.5 -32s24.167 -16.667 39.5 -23s32.666 -12.5 51.999 -18.5l85 -25c41.333 -12 77.166 -25.333 107.499 -40s55.5 -31.834 75.5 -51.501s34.833 -42.5 44.5 -68.5s14.5 -56.667 14.5 -92
c0 -38 -8.16699 -73.167 -24.5 -105.5s-38.833 -60 -67.5 -83s-62.5 -41 -101.5 -54s-81.167 -19.5 -126.5 -19.5z" />
    <glyph glyph-name="M" unicode="M" 
d="M784 663c-8 0 -13.333 1.33105 -16 3.99805c2.66699 20 8 36.333 16 49c2.66699 4.66699 5.66699 11.334 9 20.001l2 8l2 -8c2.66699 -10.667 3.66699 -23.167 3 -37.5s-3 -26.166 -7 -35.499h-9zM1452 784.998l-1.99707 -1.99902c-12 -10 -22 -21.5 -30 -34.5
s-14.833 -26.833 -20.5 -41.5s-10.334 -29.834 -14.001 -45.501s-6.83398 -31.167 -9.50098 -46.5c19.333 5.33301 36.5 15.333 51.5 30s25.833 30.667 32.5 48c4 10.667 6.66699 24 8 40s-3.33398 32.667 -14.001 50zM616.003 676.999
c1.33301 0 2.83203 -0.333008 4.49902 -1s3.83398 -1 6.50098 -1l6 2c4 17.333 2.66699 37 -4 59c-16 -18 -24.333 -36.333 -25 -55l-2 -2h8c2.66699 0 4.66699 -0.666992 6 -2zM1655 289.999c0 -15.333 -5.83301 -28 -17.5 -38s-25.167 -15 -40.5 -15h-1488
c-16.667 0 -30.5 5 -41.5 15s-16.5 22.667 -16.5 38v786c0 15.333 5.5 28.166 16.5 38.499s24.833 15.5 41.5 15.5h1488c15.333 0 28.833 -5.16699 40.5 -15.5s17.5 -23.166 17.5 -38.499v-786zM532.002 578.999c-8 20.667 -14.6699 42.167 -20.0029 64.5
s-10 45.166 -14 68.499c-6.66699 28.667 -13.834 57 -21.501 85s-16.834 53.667 -27.501 77c-1.33301 0 -2.83301 -0.5 -4.5 -1.5s-3.16699 -1.5 -4.5 -1.5c-4 0 -7.66699 -0.333008 -11 -1s-6.33301 -1 -9 -1c-4 1.33301 -7.83301 0.666016 -11.5 -2.00098
s-7.5 -4 -11.5 -4h-2c-1.33301 0 -2 1.33301 -2 4s-0.666992 4 -2 4c-18 -23.333 -31 -48.666 -39 -75.999s-16 -57 -24 -89c-4 6.66699 -8.16699 14 -12.5 22l-12.5 23c-6.66699 13.333 -14.167 26.833 -22.5 40.5s-16.5 25.834 -24.5 36.501h-12
c-10.667 0 -20.167 -0.666992 -28.5 -2s-16.833 -3.33301 -25.5 -6l-2 -41c-0.666992 -35.333 -0.666992 -68.333 0 -99c0.666992 -29.333 6.33398 -59 17.001 -89c4 -1.33301 7.33301 -2 10 -2c10.667 0 20.834 1.66699 30.501 5s17.167 6.33301 22.5 9
c0 20 -1.33301 35.667 -4 47c-2.66699 7.33301 -2 16.333 2 27c6.66699 -8 12.834 -16.5 18.501 -25.5s11.834 -17.5 18.501 -25.5c2.66699 -6.66699 6 -12.5 10 -17.5s7.66699 -10.167 11 -15.5h10c9.33301 0 17.333 0.666992 24 2c4 0 8.16699 0.333008 12.5 1
s9.16602 1 14.499 1l4 -2c6.66699 10.667 10.334 23.5 11.001 38.5s1 30.833 1 47.5c0 13.333 0.833008 26.833 2.5 40.5s5.83398 26.167 12.501 37.5c8 -32 16.833 -63.5 26.5 -94.5s21.167 -62.5 34.5 -94.5c14.667 3.33301 25 6.33301 31 9
c7.33301 2.66699 13.333 4 18 4c1.33301 0 3.33301 -1.33301 6 -4zM716.999 565.999c-4 7.33301 -11.667 11.668 -23 13.001c-8 0 -16.667 -1.66699 -26 -5c-10 -2.66699 -19 -4 -27 -4h-6c-9.33301 1.33301 -17.666 7 -24.999 17c-6 8.66699 -9 19.667 -9 33
c0 5.33301 0.5 10.666 1.5 15.999l3.5 18c7.33301 -2.66699 16.333 -4 27 -4h31h4c2.66699 0 5 -0.333008 7 -1s4.33301 -1 7 -1c4 14 6 29.333 6 46v9.5c0 3 -0.333008 6.16699 -1 9.5c-2 23.333 -5 42.666 -9 57.999l-19 6c-8 4 -18 6 -30 6h-8
c-10 -1.33301 -19.333 -5.16602 -28 -11.499s-16.167 -14.5 -22.5 -24.5s-11.5 -21.333 -15.5 -34s-6.66699 -25.334 -8 -38.001c-0.666992 -3.33301 -1 -6.66602 -1 -9.99902v-10c0 -18 2.33301 -35 7 -51c6.66699 -24 21.667 -40 45 -48c6 -2.66699 18.333 -4 37 -4
c15.333 0 30.166 1.33301 44.499 4s26.833 6 37.5 10zM878.999 577.001c-1.33301 6 -8.33984 11.335 -21.0068 16.002c-8 -12.667 -21.667 -19.667 -41 -21c-20 0 -35.667 7.66699 -47 23c-10.667 12.667 -12 28.334 -4 47.001c6.66699 -1.33301 13.834 -2.33301 21.501 -3
s14.834 -1 21.501 -1c5.33301 0 10.333 0.333008 15 1s9.33398 1 14.001 1c-1.33301 15.333 -1.33301 28.666 0 39.999s3.33301 22.666 6 33.999c2.66699 9.33301 4.33398 19.166 5.00098 29.499s1.66699 20.833 3 31.5c-17.333 12.667 -37.666 20.334 -60.999 23.001
c-53.333 -39.333 -79.333 -99.333 -78 -180c2 -10 6.33301 -18.667 13 -26s14.834 -13.5 24.501 -18.5s20.167 -8.83301 31.5 -11.5s23 -4 35 -4c26.667 1.33301 47.334 7.66602 62.001 18.999zM1068.99 691.003c-8 4 -13.9971 9.66895 -17.9971 17.002
c-6.66699 6.66699 -12.834 12 -18.501 16s-12.5 7.33301 -20.5 10c-2.66699 0 -4 -3.33301 -4 -10c0 -2.66699 -0.333008 -5.66699 -1 -9s-4 -5 -10 -5h-6v2c1.33301 13.333 1.66602 27.166 0.999023 41.499s-1.66699 29.833 -3 46.5c-2.66699 23.333 -4 46.166 -4 68.499
s2 43.166 6 62.499c-5.33301 6.66699 -12.5 11.667 -21.5 15s-21.5 5 -37.5 5h-2c-1.33301 0 -2.33301 1 -3 3s-1.66699 4 -3 6c-6.66699 -18 -10 -38.333 -10 -61v-16l4 -40.5c1.33301 -13.667 3.33301 -27.834 6 -42.501c2.66699 -16.667 4.66699 -32.5 6 -47.5
s0.666016 -29.833 -2.00098 -44.5h-21c-5.33301 1.33301 -10.666 2 -15.999 2c-8 0 -14.333 -2 -19 -6c-2.66699 -4.66699 -4 -11 -4 -19c6.66699 -4 15.167 -6.33301 25.5 -7s21.166 -1 32.499 -1l12 -4c1.33301 -8 2 -16.167 2 -24.5s0.666992 -17.166 2 -26.499
c1.33301 -12 2.33301 -24.333 3 -37s1 -25.667 1 -39h17c4 0 8.33301 0.333008 13 1s9.66699 1 15 1c0 10.667 -0.333008 20.5 -1 29.5s-1 18.167 -1 27.5c-0.666992 22.667 -0.666992 47.334 0 74.001c10 2.66699 21 4 33 4c22 0 37.667 2.66699 47 8zM1266 720.005
l-22.002 17.001c-6.66699 5.33301 -15 8.66602 -25 9.99902h-5c-1.33301 0 -2.33301 -0.833008 -3 -2.5s-1.66699 -1.83398 -3 -0.500977v-18c0 -12 -0.5 -25 -1.5 -39s-3.33301 -27.5 -7 -40.5s-9.16699 -24.5 -16.5 -34.5s-17.333 -17 -30 -21c-4 30 -6 60.667 -6 92
c-0.666992 4 -1.16699 8 -1.5 12s-0.5 7.66699 -0.5 11v18c-5.33301 2.66699 -10.333 4.66699 -15 6c-13.333 9.33301 -27.666 15 -42.999 17c-1.33301 -10.667 -2.16602 -20.667 -2.49902 -30s-0.166016 -18.666 0.500977 -27.999c0 -55.333 9.66699 -92.666 29 -111.999
c10 -10.667 23.667 -16.334 41 -17.001c12 0 25 2.66699 39 8l4 6l14 18c3.33301 4.66699 9 9.66699 17 15c0.666992 4.66699 4 10.334 10 17.001c8 13.333 15.167 27.166 21.5 41.499s8.16602 32.5 5.49902 54.5zM1515.99 804.006
c-28 15.333 -53.335 22.6641 -76.002 21.9971c-26.667 0 -51.334 -11.333 -74.001 -34c-10 -11.333 -18.5 -25.333 -25.5 -42s-12.5 -34 -16.5 -52s-7.16699 -35.667 -9.5 -53s-4.16602 -32 -5.49902 -44c-2.66699 0 -4.66699 -0.666992 -6 -2l-19 -6
c10.667 -12 17.834 -27.333 21.501 -46s6.83398 -37.334 9.50098 -56.001c2.66699 -15.333 4.66699 -30.166 6 -44.499s4.66602 -26.833 9.99902 -37.5c2.66699 0 5.83398 -0.333008 9.50098 -1s8.16699 -1 13.5 -1h14c5.33301 0 9.83301 -0.166992 13.5 -0.5
s6.83398 -0.833008 9.50098 -1.5c-12 26.667 -18 64.334 -18 113.001v20.5c0 7 0.333008 14.167 1 21.5c32 6.66699 60.5 19.334 85.5 38.001s44.5 41 58.5 67c7.33301 16 12.666 36 15.999 60c0.666992 2.66699 1 6.33398 1 11.001c0 22 -6.33301 44.667 -19 68z" />
    <glyph glyph-name="N" unicode="N" 
d="M907 156l142 94.0049c-1.33301 4 -2 8 -2 12c0 28 11 52.667 33 74c22.667 20.667 49.667 31 81 31c32 0 58.667 -10.333 80 -31c22 -21.333 33 -46 33 -74c0 -15.333 -3 -29.333 -9 -42s-14 -23.834 -24 -33.501s-21.833 -17.167 -35.5 -22.5s-28.5 -8 -44.5 -8
c-24 0 -44.333 5.33301 -61 16l-193 -129v-102h-4h-96h-10v313l-195 131c-20 -9.33301 -39 -14 -57 -14c-32 0 -58.667 10.333 -80 31c-22 20.667 -33 45.667 -33 75c0 28 11 52.667 33 74c21.333 20.667 48 31 80 31s58.667 -10.333 80 -31
c22.667 -20.667 34 -45.334 34 -74.001c0 -2.66699 -0.333008 -5.66699 -1 -9s-1 -6.33301 -1 -9l140 -94v313l-195 133c-15.333 -9.33301 -34.333 -14 -57 -14c-31.333 0 -58 10 -80 30c-22 20.667 -33 45.334 -33 74.001c0 14.667 3 28.667 9 42s14 24.666 24 33.999
s21.833 16.833 35.5 22.5s28.5 8.5 44.5 8.5c32 0 58.667 -10.333 80 -31c22.667 -20.667 34 -46 34 -76c0 -2.66699 -0.333008 -5.33398 -1 -8.00098s-1 -5.33398 -1 -8.00098l140 -97v295l-197 134c-18.667 -8.66699 -37 -13.667 -55 -15c-16 0 -30.833 2.83301 -44.5 8.5
s-25.5 13.167 -35.5 22.5s-18 20.5 -24 33.5s-9 27.167 -9 42.5c0 28.667 11 53 33 73c21.333 20.667 48 31 80 31s58.667 -10.333 80 -31c22.667 -20 34 -44.333 34 -73c0 -2.66699 -0.333008 -6.16699 -1 -10.5s-1 -7.83301 -1 -10.5l140 -94v236h110v-447l142 94
c-1.33301 5.33301 -2 11 -2 17c0 28.667 11 53 33 73c22.667 20.667 49.667 31 81 31c32 0 58.667 -10.333 80 -31c22 -20 33 -44.333 33 -73c0 -15.333 -3 -29.5 -9 -42.5s-14 -24.167 -24 -33.5s-21.833 -16.833 -35.5 -22.5s-28.5 -8.5 -44.5 -8.5
c-22 0 -41.667 5.66699 -59 17l-195 -132v-292l142 94c-1.33301 4 -2 8 -2 12c0 29.333 11 54.666 33 75.999c22.667 20.667 49.667 31 81 31c16 0 30.833 -2.83301 44.5 -8.5s25.5 -13.167 35.5 -22.5s18 -20.666 24 -33.999s9 -27.333 9 -42
c0 -28.667 -11 -53.334 -33 -74.001c-22 -20 -48.667 -30 -80 -30c-22 0 -42.333 5.33301 -61 16l-193 -131v-311z" />
    <glyph glyph-name="O" unicode="O" 
d="M1653 999l-0.000976562 -274.001h-451l137 80c-54.667 23.333 -108.167 42.5 -160.5 57.5s-102.5 26.5 -150.5 34.5v-674l-244 -145c-99.333 16.667 -187.166 36.167 -263.499 58.5s-142.5 48.5 -198.5 78.5c-110.667 58.667 -187 123 -229 193
c-28 46.667 -42 94.334 -42 143.001c0 23.333 3 46.666 9 69.999c19.333 72 62 138.667 128 200c66.667 62 151 113.667 253 155c102 42.667 216.333 69 343 79v235l244 146v-387c76.667 -9.33301 154 -25.666 232 -48.999s157 -56.333 237 -99zM783.999 906.999
c-71.333 -5.33301 -135.5 -17.998 -192.5 -37.998s-106.333 -44.833 -148 -74.5s-74.667 -62.834 -99 -99.501s-39.5 -74.334 -45.5 -113.001c-2 -11.333 -3 -22.333 -3 -33c0 -40.667 12.667 -80.334 38 -119.001c31.333 -48 83.833 -90.667 157.5 -128
s171.167 -63.666 292.5 -78.999v684z" />
    <glyph glyph-name="P" unicode="P" 
d="M1083 1438c50 0 101.667 -8.99805 155 -26.998c52.667 -18 98.167 -45.333 136.5 -82s65.833 -83.334 82.5 -140.001c8.66699 -26.667 13 -57 13 -91c0 -32.667 -4.66699 -69.667 -14 -111c-16.667 -68 -43 -129 -79 -183s-79.167 -99.833 -129.5 -137.5
s-107 -66.334 -170 -86.001s-129.833 -29.5 -200.5 -29.5h-293l-101 -438h-411l309 1325h702zM842 1077h202c8 0 17 -1.33301 27 -4c-9.33301 28 -25.833 50.667 -49.5 68s-53.5 26 -89.5 26h-201l-88 -362h133zM1071 987.002
c1.33301 5.33301 1.99902 10.999 1.99902 16.999h-182l-47 -199c26 1.33301 51.333 6.83301 76 16.5s47 22.667 67 39s37.333 35.333 52 57s25.334 44.834 32.001 69.501zM1569 895.001c8 38 12 73 12 105c0 6 -0.166992 12 -0.5 18s-0.833008 11.667 -1.5 17
c-4 40 -13.667 78 -29 114c32 -36 55.667 -81.333 71 -136c6.66699 -24 10 -51.333 10 -82c0 -34.667 -4.33301 -70.667 -13 -108c-16.667 -68 -43 -129 -79 -183s-79.167 -99.667 -129.5 -137s-107.166 -66 -170.499 -86s-130.333 -30 -201 -30h-295l-100 -438h-412l19 71
h344l102 441h293c70 0 136.667 9.83301 200 29.5s120.5 48 171.5 85s94.667 82.5 131 136.5s62.166 115 77.499 183z" />
    <glyph glyph-name="Q" unicode="Q" 
d="M1214 -59c-34.667 0 -64.1699 4.16895 -88.5029 12.502s-44.333 19.666 -60 33.999s-27.667 31.166 -36 50.499s-13.833 40.333 -16.5 63c-4 31.333 -4 63.666 0 96.999c3.33301 34 8.33301 67.5 15 100.5s13.667 63.833 21 92.5c-13.333 -8 -26.166 -16.5 -38.499 -25.5
l-38 -28c-13 -9.66699 -26.5 -18.834 -40.5 -27.501s-29 -16.334 -45 -23.001c-48 -19.333 -95.333 -31 -142 -35c-28 -2 -55 -3 -81 -3c-73.333 0 -139.333 8 -198 24c-82 22.667 -150.333 56.5 -205 101.5s-96 99.833 -124 164.5c-24 56.667 -35.667 116 -35 178v28
c5.33301 94 27.5 177 66.5 249s89.167 136.667 150.5 194c60.667 56.667 133.334 105.834 218.001 147.501s185 69.5 301 83.5c48.667 6 100 9 154 9c30 0 61.667 -1 95 -3c126 -8 231.167 -36.667 315.5 -86s143.166 -121.666 176.499 -216.999
c16.667 -47.333 25 -100.666 25 -159.999c0 -9.33301 -0.166992 -18.833 -0.5 -28.5s-0.833008 -19.167 -1.5 -28.5c-3.33301 -41.333 -8.16602 -82 -14.499 -122s-14.166 -80 -23.499 -120l-27 -119c-8.66699 -39.333 -16.667 -79.333 -24 -120l-38.5 -234.5l-40.5 -248.5
h-211h-9zM988.997 602.002c34 22.667 63.666 56.9961 88.999 102.996c24.667 46 41.667 94.667 51 146c4 22.667 6 45 6 67c0 26.667 -3 52.667 -9 78c-11.333 46.667 -35 81.334 -71 104.001c-10.667 6.66699 -23 12.334 -37 17.001s-30.333 8.33398 -49 11.001
c-25.333 2.66699 -47.333 4.66699 -66 6h-13.5c-4.33301 0 -8.5 -0.333008 -12.5 -1c-32 -2.66699 -59.167 -8.5 -81.5 -17.5s-42.5 -19.833 -60.5 -32.5c-31.333 -22 -60 -55.667 -86 -101s-44 -92.333 -54 -141c-11.333 -49.333 -11.333 -97.666 0 -144.999
c10 -46.667 37 -82 81 -106c12.667 -6.66699 25.667 -12.334 39 -17.001s27.333 -8.33398 42 -11.001c9.33301 -1.33301 18.5 -2.5 27.5 -3.5s18.167 -1.16699 27.5 -0.5h16c5.33301 0 10.666 0.333008 15.999 1c28.667 2.66699 55.834 7.83398 81.501 15.501
s46.834 16.834 63.501 27.501z" />
    <glyph glyph-name="R" unicode="R" 
d="M1196 745c4 -11.333 5.99805 -21.332 5.99805 -29.999c0 -20.667 -6 -39.334 -18 -56.001c-17.333 -18.667 -34.333 -29.334 -51 -32.001h-3c-11.333 -4 -20.666 -6 -27.999 -6c-25.333 0 -47.333 7.33301 -66 22c-19.333 12 -31 29.667 -35 53v2
c-1.33301 5.33301 -2 11 -2 17c0 20.667 6.33301 38.334 19 53.001c11.333 16 27 27.667 47 35c12 4 23.667 6 35 6c20.667 0 40.334 -5.33301 59.001 -16c20 -13.333 32.333 -29.333 37 -48zM1133 506.001c-12 5.33301 -20.999 8 -26.999 8c-8 0 -16.333 -2 -25 -6
c-72 -40 -151 -60.667 -237 -62c-64.667 0 -124 12.333 -178 37c-9.33301 3.33301 -19 9.66602 -29 18.999c-2.66699 1.33301 -5.66699 2.66602 -9 3.99902l-10 4c-7.33301 2.66699 -13.333 4 -18 4s-10.667 -1.33301 -18 -4h-2
c-8.66699 -3.33301 -16.334 -9.33301 -23.001 -18c-4 -7.33301 -6 -15.666 -6 -24.999c0 -8 2 -16.333 6 -25c4 -6.66699 10 -12 18 -16c76.667 -48 160.667 -72 252 -72h15c44 0 86.667 4.16699 128 12.5s81.333 21.5 120 39.5c5.33301 2.66699 11 5.33398 17 8.00098
s12.333 6 19 10c6 2.66699 11.667 6.66699 17 12c6.66699 6.66699 10.667 13.667 12 21c1.33301 4 2 7.33301 2 10c0 4.66699 -1.33301 10.667 -4 18c-4 10 -10.667 17 -20 21zM572.999 627.001c8.66699 -4 19.002 -5.99805 31.002 -5.99805
c25.333 0 48.666 8.66699 69.999 26c22 18 33 40 33 66v2v4c0 25.333 -10.333 46.333 -31 63c-22 18 -46 27 -72 27c-6.66699 0 -13.334 -0.666992 -20.001 -2c-18 -2.66699 -33.833 -9.83398 -47.5 -21.501s-23.167 -25.834 -28.5 -42.501
c-2.66699 -3.33301 -4 -7.66602 -4 -12.999v-13c0 -22 6 -41.333 18 -58c13.333 -16.667 30.333 -27.334 51 -32.001zM1653 860.003l0.00292969 -10c0 -36.667 -11 -70 -33 -100c-21.333 -29.333 -47.333 -51.333 -78 -66c1.33301 -6.66699 2.33301 -13.834 3 -21.501
s1 -15.5 1 -23.5c0 -78.667 -26.667 -150.334 -80 -215.001c-46.667 -57.333 -103.334 -103.5 -170.001 -138.5s-136.334 -61.167 -209.001 -78.5c-40 -8 -79.167 -14.5 -117.5 -19.5s-77.5 -7.5 -117.5 -7.5c-120.667 0 -236 20.667 -346 62
c-58 22 -112.5 50.333 -163.5 85s-93.5 78 -127.5 130c-18 28 -31.667 57.333 -41 88s-14 62 -14 94c0 6.66699 0.333008 13.834 1 21.501s1.66699 14.834 3 21.501c-32.667 18 -58 40 -76 66c-24 32 -36.333 64.667 -37 98c0 24.667 5.5 48.167 16.5 70.5
s25.5 42.5 43.5 60.5c19.333 18 40.333 32 63 42s48 15 76 15h2h16c26.667 0 52.667 -4 78 -12c24 -8.66699 45.333 -19.667 64 -33c2.66699 1.33301 5.66699 2.66602 9 3.99902s7 2.66602 11 3.99902c58 32 119.5 55 184.5 69s130.5 23.333 196.5 28
c0 30 2.66699 60.167 8 90.5s16.333 59.5 33 87.5c13.333 23.333 30.5 43.166 51.5 59.499s45.5 27.833 73.5 34.5h2c20.667 4 41 6 61 6c52.667 0 106.667 -11 162 -33c22 32.667 52.667 56.667 92 72h2c24 6.66699 47.333 10 70 10c26 0 50 -4.66699 72 -14h2
c32.667 -12 60 -32.333 82 -61c22 -30.667 32.667 -63 32 -97c0 -6.66699 -0.666992 -12.667 -2 -18c-2.66699 -23.333 -9.33398 -44.166 -20.001 -62.499s-24.334 -34.5 -41.001 -48.5c-37.333 -30 -79 -45 -125 -45h-23c-46.667 4 -86 22.333 -118 55
c-15.333 15.333 -27.666 32.5 -36.999 51.5s-14 40.167 -14 63.5v6c-22 8 -44 15.167 -66 21.5s-44.667 9.5 -68 9.5h-18c-38.667 -4 -65.334 -21 -80.001 -51c-12 -20.667 -19.833 -43 -23.5 -67s-5.5 -48 -5.5 -72c66 -4 130.167 -13.667 192.5 -29s122.5 -38 180.5 -68
l2 -2c2.66699 0 5.33398 -1.33301 8.00098 -4c12 8.66699 21 14.334 27 17.001c34.667 22 73.667 32.667 117 32c16 0 33.667 -2 53 -6h2c40 -10.667 75.667 -31.667 107 -63c30 -31.333 47 -67.666 51 -108.999zM1274 1251l0.000976562 -4
c0 -21.333 8.66699 -39.666 26 -54.999c18.667 -15.333 38.667 -23 60 -23h6c22 0 41.667 7.66699 59 23c16 14 25.667 32.333 29 55v4c0 23.333 -9.66699 42.666 -29 57.999c-16.667 16.667 -37 24.667 -61 24c-4.66699 0 -8.83398 -0.166992 -12.501 -0.5
s-7.16699 -0.833008 -10.5 -1.5c-20 -4 -35.667 -13.333 -47 -28c-13.333 -14.667 -20 -32 -20 -52zM322.005 932.003c-9.33301 2.66699 -18.167 5.33301 -26.5 8s-17.5 4 -27.5 4h-8h-2c-25.333 -3.33301 -48.666 -13 -69.999 -29c-19.333 -18.667 -30 -39.667 -32 -63v-6
c0 -16 4.66699 -29.667 14 -41c7.33301 -12.667 15 -21.667 23 -27c15.333 30 33.666 57.667 54.999 83s46 49 74 71zM1444 637.002c0 28 -4.83398 54.5 -14.501 79.5s-22.5 48.833 -38.5 71.5c-34 44 -75.667 80.333 -125 109s-101.333 50.667 -156 66l-32 8l-31 8
c-64.667 13.333 -129 20 -193 20c-90 0 -176 -12 -258 -36c-54.667 -15.333 -106.5 -37.666 -155.5 -66.999s-90.833 -66 -125.5 -110c-35.333 -44.667 -53 -95 -53 -151c0 -20.667 2.66699 -39.667 8 -57c12 -42 34 -81 66 -117c32 -32 68 -60.667 108 -86l15 -7l14 -8
c58 -30 119.333 -51.833 184 -65.5s130.334 -20.5 197.001 -20.5h34c5.33301 0 11 0.166992 17 0.5s11.667 0.833008 17 1.5c66.667 5.33301 132 17.666 196 36.999s123.333 47.333 178 84c36.667 25.333 66.667 54 90 86c27.333 34 45.333 70.333 54 109
c2.66699 6 4 13 4 21v24zM1550 850.002c0 12.667 -3.33496 25.665 -10.002 38.998c-4.66699 8.66699 -10.667 16.334 -18 23.001s-15.666 12.667 -24.999 18c-20 9.33301 -39.667 14 -59 14s-37.333 -4 -54 -12c28 -22 52.833 -45.5 74.5 -70.5s39.834 -53.5 54.501 -85.5
c10 8.66699 18.333 18.334 25 29.001c8 12.667 12 27.667 12 45z" />
    <glyph glyph-name="S" unicode="S" 
d="M1534 884c0 -37.333 -14.667 -69.6689 -44 -97.002c-28.667 -26.667 -64 -40 -106 -40c-40.667 0 -75.334 13 -104.001 39c-28.667 26.667 -43 59.334 -43 98.001c0 38 14.333 70.333 43 97s63.334 40 104.001 40c41.333 0 76.333 -13.333 105 -40
c30 -27.333 45 -59.666 45 -96.999zM1475 651.997l-180.996 -140.999c2.66699 -11.333 4 -23 4 -35c0 -31.333 -6.16699 -60.333 -18.5 -87s-29.333 -49.667 -51 -69s-46.834 -34.666 -75.501 -45.999s-59.334 -17 -92.001 -17c-57.333 0 -107.333 16 -150 48
c-42 32 -68.667 72.667 -80 122l-444 139c-37.333 -26 -79.666 -39 -126.999 -39c-28.667 0 -55.667 5 -81 15s-47.5 23.667 -66.5 41s-34 37.666 -45 60.999s-16.5 48.666 -16.5 75.999c0 26.667 5.5 51.667 16.5 75s26 43.833 45 61.5s41.167 31.667 66.5 42
s52.333 15.5 81 15.5c51.333 0 95.333 -14.333 132 -43c37.333 -28.667 61.666 -64.667 72.999 -108l428 -133c20.667 19.333 45 34.666 73 45.999s58.333 17 91 17l63 183v10c0 34 7 66 21 96s33 56.333 57 79s52.167 40.5 84.5 53.5s66.833 19.5 103.5 19.5
s71.167 -6.5 103.5 -19.5s60.666 -30.833 84.999 -53.5s43.5 -49 57.5 -79s21 -62 21 -96c0 -54 -16.667 -102.667 -50 -146c-32.667 -41.333 -75.334 -70.666 -128.001 -87.999zM391.004 784.998c-12 22 -29.167 39.502 -51.5 52.502s-47.5 19.5 -75.5 19.5
c-39.333 0 -73.333 -13.333 -102 -40s-43 -59 -43 -97c0 -36.667 14.333 -68.334 43 -95.001s62.667 -40 102 -40c13.333 0 27.666 2 42.999 6l-69 22c-27.333 13.333 -46 34.333 -56 63c-4 11.333 -5.66699 22 -5 32c0 17.333 4.33301 33.666 13 48.999
c15.333 27.333 38.333 45 69 53c12 3.33301 23.333 5 34 5c18.667 0 36.334 -4.33301 53.001 -13zM1178 886c0 -27.333 5.5 -52.666 16.5 -75.999s26 -43.666 45 -60.999s41 -31 66 -41s51.833 -15 80.5 -15c28 0 54.667 5 80 15s47.333 23.667 66 41
s33.5 37.666 44.5 60.999s16.5 48.666 16.5 75.999c0 26 -5.5 50.5 -16.5 73.5s-25.833 43.167 -44.5 60.5s-40.5 31 -65.5 41s-51.833 15 -80.5 15s-55.5 -5 -80.5 -15s-47 -23.667 -66 -41s-34 -37.5 -45 -60.5s-16.5 -47.5 -16.5 -73.5zM1182 456
c0 40.667 -15.3311 75.332 -45.998 103.999s-68 43 -112 43c-10.667 0 -22.334 -1.33301 -35.001 -4l88 -29c27.333 -13.333 46 -34 56 -62c4 -11.333 5.66699 -22 5 -32c0 -16 -4.66699 -32.333 -14 -49c-14.667 -25.333 -37.334 -42.666 -68.001 -51.999
c-12 -3.33301 -23.333 -5 -34 -5c-18 0 -35.667 4.66699 -53 14l-97 29c10.667 -30 29.667 -54.667 57 -74s59 -29 95 -29c44 0 81.333 14.333 112 43s46 63 46 103z" />
    <glyph glyph-name="T" unicode="T" 
d="M993 217c38.667 -19.333 79.666 -28.998 122.999 -28.998c81.333 0 162.666 24.667 243.999 74v-235c-34 -15.333 -66.833 -28.166 -98.5 -38.499s-60.834 -18.833 -87.501 -25.5c-56 -12 -117 -18 -183 -18c-18 0 -34.667 0.666992 -50 2s-29.666 3 -42.999 5
s-26.666 4.66699 -39.999 8s-27 7 -41 11c-56.667 17.333 -105 42 -145 74c-39.333 31.333 -66.666 64.666 -81.999 99.999c-16.667 36 -25 88.667 -25 158v520h-219v211c32 10.667 64.667 22.667 98 36s61.333 28.666 84 45.999c23.333 19.333 43.833 39.166 61.5 59.499
s33.5 43.5 47.5 69.5c26.667 48 45.667 111 57 189h230v-344h374v-267h-374v-381c0 -44 0.333008 -78.5 1 -103.5s3 -43.5 7 -55.5c12 -27.333 32.333 -49.333 61 -66z" />
    <glyph glyph-name="U" unicode="U" 
d="M954 717l192.999 -529.001h-653v166l-443 -123v476l443 -113v123h-11c-52.667 0 -102.167 9.33301 -148.5 28s-86.666 44.167 -120.999 76.5s-61.5 70.166 -81.5 113.499s-30 89.333 -30 138s10.167 94.667 30.5 138s48.166 81.333 83.499 114s76.333 58.334 123 77.001
s96.667 28 150 28c48.667 0 94.5 -8 137.5 -24s81.5 -37.667 115.5 -65s62.167 -59.666 84.5 -96.999s36.833 -77.333 43.5 -120h13c6.66699 42.667 21.167 82.5 43.5 119.5s50.5 69.333 84.5 97s72.833 49.5 116.5 65.5s89.834 24 138.501 24
c53.333 0 103.5 -9.33301 150.5 -28s88 -44.334 123 -77.001s62.667 -70.667 83 -114s30.5 -89.333 30.5 -138c0 -49.333 -10.167 -95.666 -30.5 -138.999s-48 -81 -83 -113s-76 -57.333 -123 -76s-97.167 -28 -150.5 -28h-312zM488.999 972.999c30 0 55.667 9.66699 77 29
c21.333 20 32 43.667 32 71s-10.667 51 -32 71s-47 30 -77 30c-32 0 -58.333 -9.83301 -79 -29.5s-31 -43.5 -31 -71.5s10.333 -51.667 31 -71s47 -29 79 -29zM1165 1073c0 -28 10.165 -51.667 30.498 -71s46.5 -29 78.5 -29c14.667 0 28.667 2.66699 42 8
s24.833 12.5 34.5 21.5s17.334 19.5 23.001 31.5s8.5 25 8.5 39c0 27.333 -10.667 51 -32 71s-46.666 30 -75.999 30c-32 0 -58.167 -9.83301 -78.5 -29.5s-30.5 -43.5 -30.5 -71.5z" />
    <glyph glyph-name="V" unicode="V" 
d="M799 316h-350l-398 909h340l236 -594l233 594h328zM1653 1068c0 44 -16.333 80.333 -49 109c-32.667 29.333 -71.667 44 -117 44c-44.667 0 -83.667 -14.667 -117 -44c-32.667 -28.667 -49 -65 -49 -109c0 -42 16.333 -78.333 49 -109c32.667 -30 71.667 -45 117 -45
c46.667 0 86 15 118 45c32 30.667 48 67 48 109z" />
    <glyph glyph-name="W" unicode="W" 
d="M1655 1427l0.00195312 -28c0 -8 -4.33301 -12.333 -13 -13c-40 -0.666992 -72 -10 -96 -28c-20 -16 -35.667 -40 -47 -72l-147 -342l-62 -141l-59 -137l-53 -123l-41 -97c-17.333 -32 -34 -48 -50 -48h-3c-17.333 2 -33.333 19 -48 51l-36 76l-45 100l-48 108l-47 105
l-49 -105l-53 -108l-49 -100l-39 -76c-18.667 -34 -36.334 -51.667 -53.001 -53h-3c-16 2 -31.667 18.667 -47 50l-85 196l-103 227l-104 227l-46.5 104c-14.333 32 -27.166 62 -38.499 90c-18 44.667 -31.333 70.667 -40 78c-12 11.333 -37.333 17.333 -76 18
c-15.333 0 -23 3.66699 -23 11v30l10 3h207h162l14 -3v-28c0 -4 -3 -7.16699 -9 -9.5s-11.667 -3.5 -17 -3.5l-49 -2c-31.333 -3.33301 -47 -12.666 -47 -27.999c0 -13.333 3.33301 -27 10 -41c4 -11.333 8.83301 -24 14.5 -38s12.167 -29 19.5 -45l47 -106l53 -118l54 -119
l133 -291l9 -2l161 328l-14 28l-10 23c-4.66699 8 -7.33398 14.667 -8.00098 20l-111 222c-3.33301 10.667 -6.66602 18.667 -9.99902 24c-2.66699 6.66699 -5.83398 13.167 -9.50098 19.5s-6.16699 11.5 -7.5 15.5l-28 58c-10 21.333 -19.667 34.833 -29 40.5
s-22.333 9.5 -39 11.5c-12 0.666992 -18 4.33398 -18 11.001v30v5h280l2 -5v-30c0 -6.66699 -3.33301 -10.334 -10 -11.001l-14 -2c-14 -1.33301 -24 -3.83301 -30 -7.5s-9 -9.33398 -9 -17.001s2.5 -17.334 7.5 -29.001s11.833 -26.5 20.5 -44.5l107 -221l117 240
c5.33301 10.667 9.16602 19.5 11.499 26.5s3.5 12.833 3.5 17.5s-0.666992 8.33398 -2 11.001s-3 5.33398 -5 8.00098c-2.66699 2.66699 -8.16699 6 -16.5 10s-21.166 6 -38.499 6l-13 2l-8 5c-1.33301 1.33301 -2 4 -2 8v28l2 5h266l2 -5v-28c0 -8 -4 -12.333 -12 -13
c-11.333 -0.666992 -20.666 -1.66699 -27.999 -3s-12.666 -2.66602 -15.999 -3.99902c-6.66699 -2.66699 -14.667 -10.334 -24 -23.001c-4 -6.66699 -10 -16.167 -18 -28.5s-16.333 -26.166 -25 -41.499l-153 -291v-2c0 -2.66699 -1.33301 -5.33398 -4 -8.00098l186 -387
l12 -4l291 711c3.33301 11.333 5.66602 22.333 6.99902 33c0 11.333 -3.66699 20.666 -11 27.999c-6.66699 5.33301 -13.834 9.66602 -21.501 12.999s-19.5 5 -35.5 5l-31 2c-6 0 -10.667 1.66699 -14 5c-2.66699 1.33301 -5.83398 2.33301 -9.50098 3
s-5.5 2.33398 -5.5 5.00098v28l25 7h330z" />
    <glyph glyph-name="X" unicode="X" 
d="M1036 -55l-358 583l555 906h375l-555 -906l358 -583h-375zM449 395l278 426l-209 340h-352l207 -340l-277 -426h353z" />
    <glyph glyph-name="Y" unicode="Y" 
d="M1341 1012c-6 -0.666992 -20.3359 -8.33398 -43.0029 -23.001l-77 -53l-96 -70l-71 -56c-23.333 -18.667 -44.166 -36.167 -62.499 -52.5s-33.833 -31.166 -46.5 -44.499s-20.334 -24 -23.001 -32c-0.666992 -4 -1.16699 -12.5 -1.5 -25.5s-0.5 -28.333 -0.5 -46
s0.166992 -36.834 0.5 -57.501s0.833008 -40.167 1.5 -58.5s1.33398 -34.833 2.00098 -49.5s1.33398 -24.667 2.00098 -30c6.66699 -1.33301 20.334 -2 41.001 -2h69c24.667 0 48 -0.333008 70 -1s37 -1.66699 45 -3l-2 -65c-8 0 -25.833 0.333008 -53.5 1s-60.5 1 -98.5 1
h-114h-107c-11.333 0 -27 -0.166992 -47 -0.5s-42 -0.833008 -66 -1.5s-48.667 -1.16699 -74 -1.5s-49 -0.5 -71 -0.5h-67l12 61h42h45.5c16.333 0 32.166 0.833008 47.499 2.5s29.166 4.16699 41.499 7.5s21.833 8.33301 28.5 15c2 2 3.83301 9 5.5 21
s2.83398 26.333 3.50098 43s1 34.667 1 54s-0.166992 38 -0.5 56s-0.833008 34 -1.5 48s-1.33398 24 -2.00098 30c-2.66699 5.33301 -12.667 19 -30 41l-64 81l-85 101l-92 101l-81 86l-33 32c-9.33301 8.66699 -17.666 15.334 -24.999 20.001h-213v93h715v-7h2l-2 -16v-70
h-215l79 -101l82 -101l73 -91l57 -71l288 244h-172l-22 90h625l-5 -6h3l-46 -60h-2l-16 -24h-117c-6.66699 -2.66699 -13.167 -4.5 -19.5 -5.5s-12.166 -2.16699 -17.499 -3.5zM1546 437l-55 2l-61 6v-98l49 -4l51 -2zM1653 906c-2.66699 0 -9.33301 0.334961 -20 1.00195
s-23.167 1.5 -37.5 2.5s-29.666 2.16699 -45.999 3.5s-31.833 2.66602 -46.5 3.99902s-27.334 2.66602 -38.001 3.99902s-17.667 2.33301 -21 3l2 -413l96 -9z" />
    <glyph glyph-name="Z" unicode="Z" 
d="M1653 1139v-451h-92v-479v-100h-699h-106v555h-303v-175h79v-102h107v-281h-107h-266h-108v281h108v-178h266v178h-266v102h78v175h-188v102h-105v377h105v-375h485v375h111h96v188v99h487h4h109v-291h94h111zM1335 1331h-381v-368h381v368zM1210 209h242v557h90v272h-94
v-178h-109h-4h-381h-106v178h-96v-270h112v-102v-2v-455h250v280h96v-280zM532 1143v98h109v-98h-109zM532 1241h-266v102h266v-102zM266 1143h-110v98h110v-98z" />
    <glyph glyph-name="bracketleft" unicode="[" horiz-adv-x="1707" 
d="M829 856c46.667 0.666992 88.667 7.00293 126 19.0029s71.5 27.167 102.5 45.5s59.333 39.166 85 62.499l74.5 70v-1132h-190l-3 138v317l2 179.5l2 177.5c-13.333 -3.33301 -27.5 -8 -42.5 -14s-31.167 -11.333 -48.5 -16c-25.333 -6.66699 -52.333 -10.834 -81 -12.501
s-57 -1.16699 -85 1.5s-54.833 7.66699 -80.5 15s-48.167 16.666 -67.5 27.999v-84c0 -28 0.333008 -56 1 -84v-592c0 -9.33301 -0.166992 -18.333 -0.5 -27s-0.5 -17.667 -0.5 -27h-191v1135c24.667 -26 50.167 -51.167 76.5 -75.5s55.333 -45.833 87 -64.5
s66.5 -33.5 104.5 -44.5s81 -16.167 129 -15.5zM1127 1186c-17.333 0 -33.333 3.33301 -48 10s-27.667 15.667 -39 27s-20.166 24.5 -26.499 39.5s-9.5 31.167 -9.5 48.5s3.16699 33.5 9.5 48.5s15.166 28.167 26.499 39.5s24.333 20.333 39 27s30.667 10 48 10
c16.667 0 32.5 -3.33301 47.5 -10s28 -15.667 39 -27s19.667 -24.5 26 -39.5s9.5 -31.167 9.5 -48.5s-3.16699 -33.5 -9.5 -48.5s-15 -28.167 -26 -39.5s-24 -20.333 -39 -27s-30.833 -10 -47.5 -10zM529 1186c-16.667 0 -32.5 3.33301 -47.5 10s-28 15.667 -39 27
s-19.667 24.5 -26 39.5s-9.5 31.167 -9.5 48.5s3.16699 33.5 9.5 48.5s15 28.167 26 39.5s24 20.333 39 27s30.833 10 47.5 10s32.5 -3.33301 47.5 -10s28 -15.667 39 -27s19.667 -24.5 26 -39.5s9.5 -31.167 9.5 -48.5s-3.16699 -33.5 -9.5 -48.5s-15 -28.167 -26 -39.5
s-24 -20.333 -39 -27s-30.833 -10 -47.5 -10z" />
    <glyph glyph-name="backslash" unicode="\" horiz-adv-x="1707" 
d="M1402 851l-517 315l326 270l517 -318zM1207 256l497 291l-299 252l-486 -294zM809 505l-486 294l-299 -252l497 -291zM347 298v-94l496 -304v578l-329 -270zM1381 298l-167 -90l-329 270v-578l496 304v94zM843 1166l-326 270l-517 -318l326 -267z" />
    <glyph glyph-name="bracketright" unicode="]" horiz-adv-x="1707" 
d="M1196 1154c8 -4.66699 21.6689 -13.6689 41.002 -27.002s41.5 -31.166 66.5 -53.499s50.833 -49.333 77.5 -81s51 -68.5 73 -110.5s40.167 -89.5 54.5 -142.5s21.5 -111.833 21.5 -176.5s-8.16699 -125.334 -24.5 -182.001s-39 -108.834 -68 -156.501
s-63.833 -90.167 -104.5 -127.5s-85.334 -69.166 -134.001 -95.499s-100.834 -46.333 -156.501 -60s-112.834 -20.5 -171.501 -20.5s-116 7.5 -172 22.5s-108.833 36.167 -158.5 63.5s-95.334 60.5 -137.001 99.5s-77.667 82.833 -108 131.5s-53.833 101.334 -70.5 158.001
s-25 116.334 -25 179.001s7.33301 119.834 22 171.501s33.334 98.167 56.001 139.5s47.834 77.666 75.501 108.999s54.5 58 80.5 80s49.333 39.5 70 52.5s35.667 21.833 45 26.5l45.5 24l43 23c14.333 8 29.333 17 45 27s32.834 22.333 51.501 37
c8.66699 7.33301 17.167 15.666 25.5 24.999s15.833 20.5 22.5 33.5s12.5 28.667 17.5 47s8.83301 40.166 11.5 65.499c12.667 -16 26.167 -32.167 40.5 -48.5l42.5 -47c14 -15 27.667 -28.667 41 -41s25.666 -22.166 36.999 -29.499c18 -12 36.167 -22.667 54.5 -32
s36.833 -18.166 55.5 -26.499l56.5 -26c19 -9 38.167 -19.5 57.5 -31.5zM1202 67.998c5.33301 5.33301 7.83203 10.001 7.49902 14.001s-0.833008 7.66699 -1.5 11c-1.33301 3.33301 -3.5 6.16602 -6.5 8.49902s-7.83301 0.833008 -14.5 -4.5
c-14.667 -11.333 -38 -22.166 -70 -32.499s-71.667 -15.5 -119 -15.5c-23.333 0 -43.666 1.16699 -60.999 3.5s-32.666 5.33301 -45.999 9s-24.833 8.16699 -34.5 13.5s-18.167 11 -25.5 17c-2 1.33301 -3.33301 2.16602 -4 2.49902s-3 0.5 -7 0.5
c-4.66699 0 -8.66699 -1 -12 -3s-6.66602 -4.66699 -9.99902 -8c-4 -3.33301 -6.33301 -7.83301 -7 -13.5s1.66602 -11.167 6.99902 -16.5c16 -14.667 34.333 -25.667 55 -33s42.167 -12.333 64.5 -15s44.666 -3.66699 66.999 -3s43.5 2 63.5 4s38.833 5.83301 56.5 11.5
s33.5 12 47.5 19s25.333 13.333 34 19s14 9.5 16 11.5zM948.001 190.999c-15.333 -13.333 -18.668 -26.0039 -10.001 -38.0039c4.66699 -5.33301 9.66699 -6.5 15 -3.5s14.333 9.5 27 19.5l17.5 15c5.66699 4.66699 12 8.66699 19 12s14.833 6 23.5 8s19.667 3 33 3
c12.667 0 23 -1.16699 31 -3.5s14.5 -5.16602 19.5 -8.49902s8.83301 -7.33301 11.5 -12l8 -14c5.33301 -9.33301 9 -15.166 11 -17.499s5.66699 -1.83301 11 1.5c12.667 6.66699 16.334 16.334 11.001 29.001c-2.66699 7.33301 -6.66699 16.5 -12 27.5
s-12.333 19.5 -21 25.5c-9.33301 6 -19.833 9.66699 -31.5 11s-23.167 2 -34.5 2c-12 0 -22.167 -0.166992 -30.5 -0.5s-18.5 -3.16602 -30.5 -8.49902c-12.667 -5.33301 -25.167 -12.833 -37.5 -22.5s-22.5 -18.167 -30.5 -25.5zM1477 468.995
c0 11.333 -1.50391 24.0029 -4.50391 38.0029s-8 27.167 -15 39.5s-16.667 22.666 -29 30.999s-27.5 12.5 -45.5 12.5c-11.333 0 -24.5 -3.5 -39.5 -10.5s-31 -15.833 -48 -26.5l-52.5 -34.5l-52.5 -34.5c-17 -10.667 -33.333 -19.667 -49 -27s-29.5 -11 -41.5 -11
c-21.333 0 -45 8.66699 -71 26l-85.5 58c-31 21.333 -64.667 40.666 -101 57.999s-75.833 26 -118.5 26c-34 -0.666992 -65.667 -7.16699 -95 -19.5s-55 -28.833 -77 -49.5s-39.333 -44.167 -52 -70.5s-19 -53.833 -19 -82.5c-2 -63.333 19.333 -110.666 64 -141.999
c7.33301 -4.66699 14.833 -9 22.5 -13s16.834 -7.33301 27.501 -10s23.5 -4.83398 38.5 -6.50098s33.5 -2.5 55.5 -2.5c24 0 49 4.5 75 13.5s52 20 78 33s51.5 27.333 76.5 43l71.5 43c22.667 13 43.667 23.833 63 32.5s36 12.667 50 12
c11.333 -0.666992 23.5 -5.16699 36.5 -13.5s26.5 -18.666 40.5 -30.999s28 -25.666 42 -39.999l40 -40.5c12.667 -12.667 24.834 -23.334 36.501 -32.001s21.834 -13.334 30.501 -14.001c20.667 -1.33301 37.834 3.16699 51.501 13.5s29.167 28.166 46.5 53.499
c8.66699 12.667 16.167 27 22.5 43s11.5 32.167 15.5 48.5s7 32 9 47s3 28.167 3 39.5z" />
    <glyph glyph-name="asciicircum" unicode="^" horiz-adv-x="1707" 
d="M1528 1056c16.667 0 32.666 -3.33203 47.999 -9.99902s28.666 -15.834 39.999 -27.501s20.333 -25.167 27 -40.5s10 -31.666 10 -48.999s-3.33301 -33.5 -10 -48.5s-15.667 -28.167 -27 -39.5s-24.666 -20.333 -39.999 -27s-31.333 -10 -48 -10
c-6 0 -11.5 0.166992 -16.5 0.5s-10.167 1.16602 -15.5 2.49902l-66 -326c17.333 -12 26 -28.667 26 -50c0 -18 -6.16699 -33.333 -18.5 -46s-27.166 -19 -44.499 -19c-9.33301 0 -17.833 1.83301 -25.5 5.5s-14.167 8.16699 -19.5 13.5l-406 -168
c1.33301 -5.33301 2.5 -10.666 3.5 -15.999s1.5 -11.333 1.5 -18c0 -16 -3 -31.167 -9 -45.5s-14.333 -26.833 -25 -37.5s-23.167 -19.167 -37.5 -25.5s-29.5 -9.5 -45.5 -9.5s-31.167 3.16699 -45.5 9.5s-26.833 14.833 -37.5 25.5s-19 23.167 -25 37.5s-9 29.5 -9 45.5v13
c0 4 0.666992 8 2 12l-530 127c-5.33301 -11.333 -13.333 -20.333 -24 -27s-22 -10 -34 -10c-18.667 0 -34.334 6.5 -47.001 19.5s-19 28.833 -19 47.5c0 18 6.33301 33.5 19 46.5s28.334 19.5 47.001 19.5c6.66699 0 14 -1.66699 22 -5l583 669
c-5.33301 6 -9.83301 13.167 -13.5 21.5s-5.5 17.166 -5.5 26.499c0 19.333 7 36 21 50s30.667 21 50 21s35.833 -6.83301 49.5 -20.5s20.5 -30.5 20.5 -50.5l552 -182c7.33301 27.333 22 50 44 68s48 27 78 27zM825.999 1085c-3.33301 -2 -6.66699 -3.83301 -10 -5.5
s-7 -3.16699 -11 -4.5l17 -396l252 103zM783.998 1071c-4 0 -8 0.333008 -12 1s-8 1.66699 -12 3l-97 -429c8.66699 -6 15.667 -13.667 21 -23l116 46zM691.998 588.001c0 -9.33301 -1.83105 -18.667 -5.49805 -28s-8.83398 -17 -15.501 -23l114 -244
c5.33301 2 10.166 3.5 14.499 4.5s8.83301 2.16699 13.5 3.5l-13 345l-109 -45c0.666992 -2 1 -6.33301 1 -13zM1210 616l-121 147l-266 -108l13 -353c24 -2 46 -10.333 66 -25zM1221 628l206 228c-4.66699 5.33301 -8.5 11 -11.5 17s-5.83301 12.333 -8.5 19l-302 -122z
M1404 913c-0.666992 3.33301 -1 6.16602 -1 8.49902v7.5c0 6.66699 0.333008 11.334 1 14.001l-551 183c-3.33301 -11.333 -8.33301 -21.333 -15 -30l253 -308zM163 419c3.33301 -1.33301 5.66602 -3 6.99902 -5l383 156c-1.33301 6.66699 -2 12.667 -2 18
c0 20 6.83301 37 20.5 51s30.5 21 50.5 21c8.66699 0 17.334 -1.66699 26.001 -5l97 427v1zM721 224c4 13.333 10.5 25.168 19.5 35.501s19.167 19.166 30.5 26.499l-115 241c-10 -6 -21.333 -9 -34 -9c-13.333 0 -25 2.83301 -35 8.5s-18 13.167 -24 22.5l-379 -154
c5.33301 -8.66699 8 -18.667 8 -30v-6.5c0 -2.33301 -0.333008 -4.83301 -1 -7.5zM1338 399.002c-6 10 -8.99902 20.667 -8.99902 32c0 10 2.66699 19.667 8 29l-116 142l-308 -337c11.333 -10 18.666 -20.333 21.999 -31zM1481 812.002
c-9.33301 3.33301 -17.3311 7.49902 -23.998 12.499s-13.334 10.833 -20.001 17.5l-205 -227l115 -141c5.33301 6.66699 12 11.834 20 15.501s16.667 5.5 26 5.5c4 0 7.66699 -0.5 11 -1.5s6.66602 -2.16699 9.99902 -3.5z" />
    <glyph glyph-name="underscore" unicode="_" horiz-adv-x="1707" 
d="M396 -60c-16.667 -0.666992 -33.3242 -2.32129 -49.9912 -4.98828s-33 -4.5 -49 -5.5s-31.5 -0.333008 -46.5 2s-28.5 7.5 -40.5 15.5c-2.66699 18.667 -1.16699 33.167 4.5 43.5s13.667 18 24 23s22.166 8.33301 35.499 10l41 5c14 1.66699 27.5 4.33398 40.5 8.00098
s23.833 9.83398 32.5 18.501c2 2 5 7.33301 9 16s8 18.5 12 29.5s7.66699 22.833 11 35.5s5.66602 24 6.99902 34c3.33301 28.667 5.33301 62 6 100s0.5 78.5 -0.5 121.5s-2.16699 88 -3.5 135s-2 94.5 -2 142.5c0 44.667 0.5 89.667 1.5 135l3 132
c1 42.667 1.16699 83 0.5 121s-2.33398 72.333 -5.00098 103c-1.33301 11.333 -3.5 23.833 -6.5 37.5s-6.33301 26.667 -10 39s-7.5 23.333 -11.5 33s-7.66699 16.5 -11 20.5c-10.667 12 -25 19.833 -43 23.5s-35.333 7.5 -52 11.5s-30.5 10.333 -41.5 19s-14.5 24 -10.5 46
c6 10 13.833 16.833 23.5 20.5s20 5.66699 31 6s22 -0.166992 33 -1.5s20.5 -2 28.5 -2c70 0 146.333 -0.666992 229 -2s166 -2 250 -2s166.167 1.33301 246.5 4s153.5 8 219.5 16c6 0.666992 13 2 21 4s16.167 3 24.5 3s16.666 -1.5 24.999 -4.5
s15.833 -9.16699 22.5 -18.5c2.66699 -9.33301 3.5 -18.5 2.5 -27.5s-2.83301 -18.5 -5.5 -28.5s-5.16699 -20.5 -7.5 -31.5s-3.83301 -22.833 -4.5 -35.5c-1.33301 -17.333 -0.5 -38.333 2.5 -63s4.33301 -47.834 4 -69.501s-4.16602 -39.334 -11.499 -53.001
s-21.333 -18.167 -42 -13.5c-10.667 2 -18 8.16699 -22 18.5s-6.83301 22.166 -8.5 35.499s-3.16699 26.833 -4.5 40.5s-5 25.5 -11 35.5c-10.667 18 -31.334 32.5 -62.001 43.5s-65.834 19.5 -105.501 25.5s-81.167 10.167 -124.5 12.5s-83 3.5 -119 3.5
c-20.667 0 -43.167 -0.333008 -67.5 -1s-48.166 -2.83398 -71.499 -6.50098s-45.333 -9.16699 -66 -16.5s-37.667 -17.333 -51 -30c-3.33301 -35.333 -5.66602 -73.333 -6.99902 -114s-2 -82 -2 -124s0.666992 -83.333 2 -124s3.66602 -78.667 6.99902 -114
c24 -4 52.667 -7.66699 86 -11s68.166 -5.83301 104.499 -7.5s72.333 -2.33398 108 -2.00098s68.167 2.16602 97.5 5.49902c14.667 1.33301 31.167 3.66602 49.5 6.99902s32.5 8.66602 42.5 15.999c16 10.667 26.167 23.334 30.5 38.001s7.5 29.834 9.5 45.501
s5 30.834 9 45.501s13.667 28 29 40c19.333 0 32.666 -4.83301 39.999 -14.5s11.666 -21.834 12.999 -36.501s0.666016 -31 -2.00098 -49s-4.33398 -36 -5.00098 -54c-1.33301 -26 -2 -53.667 -2 -83s0.666992 -55.333 2 -78c0.666992 -17.333 2.66699 -34.833 6 -52.5
s5.16602 -33.834 5.49902 -48.501s-1.66699 -27.334 -6 -38.001s-13.833 -18 -28.5 -22c-14 4.66699 -24.833 10.834 -32.5 18.501s-13.834 16.167 -18.501 25.5s-8.33398 19.333 -11.001 30s-6 21.167 -10 31.5s-9.33301 20.333 -16 30s-16 18.167 -28 25.5
c-27.333 16.667 -59.666 26.334 -96.999 29.001s-76.833 2.5 -118.5 -0.5s-84 -6.66699 -127 -11s-83.833 -5.16602 -122.5 -2.49902c-6.66699 -19.333 -11.167 -39.833 -13.5 -61.5s-3.66602 -44.167 -3.99902 -67.5s0 -47.333 1 -72s1.5 -49.667 1.5 -75
c0 -22.667 -1 -46 -3 -70s-3.16699 -47.833 -3.5 -71.5s0.833984 -46.334 3.50098 -68.001s8.66699 -41.167 18 -58.5c7.33301 -14 19 -25.333 35 -34s34.667 -15.667 56 -21s44.5 -8.83301 69.5 -10.5s50.5 -2.5 76.5 -2.5s51.167 0.666992 75.5 2
s46.833 2.66602 67.5 3.99902c35.333 2.66699 70.666 6.66699 105.999 12s68 12.833 98 22.5s56.333 21.667 79 36s39.334 31.833 50.001 52.5c8.66699 17.333 13.5 33.666 14.5 48.999s1.83301 30.166 2.5 44.499s3.16699 28.166 7.5 41.499s14.166 27 29.499 41
c24 -4.66699 41.667 -11.834 53 -21.501s18.5 -21.167 21.5 -34.5s2.83301 -28.166 -0.5 -44.499s-7.83301 -33.333 -13.5 -51l-17.5 -54.5c-6 -18.667 -10 -36.667 -12 -54c-2 -14 -2.33301 -28 -1 -42s2.33301 -27.5 3 -40.5s0 -25.5 -2 -37.5s-7 -23.333 -15 -34
c-10.667 -6.66699 -21.5 -10.334 -32.5 -11.001s-22.333 0.333008 -34 3s-23.667 5.66699 -36 9s-24.833 5.66602 -37.5 6.99902c-31.333 2.66699 -64.666 4.16699 -99.999 4.5s-71.833 0.166016 -109.5 -0.500977s-76 -1.5 -115 -2.5s-77.833 -1.5 -116.5 -1.5
c-76 0 -151.167 0.666992 -225.5 2s-143.833 0.666016 -208.5 -2.00098z" />
    <glyph glyph-name="grave" unicode="`" horiz-adv-x="1707" 
d="M1627 156c0 -34 -7 -66.333 -21 -97s-32.833 -57.834 -56.5 -81.501s-50.834 -42.5 -81.501 -56.5s-63 -21 -97 -21h-273v580h256v256h-256v102c0 20.667 5.33301 37.334 16 50.001s21.667 19 33 19h207v256h-207c-40 0 -77.5 -9 -112.5 -27s-65.5 -42 -91.5 -72
s-46.5 -64.833 -61.5 -104.5s-22.5 -80.834 -22.5 -123.501v-100h-188v-256h188v-580h-512c-34 0 -66.333 7 -97 21s-57.834 32.833 -81.501 56.5s-42.5 50.834 -56.5 81.501s-21 63 -21 97v1024c0 34 7 66.333 21 97s32.833 57.834 56.5 81.501s50.834 42.5 81.501 56.5
s63 21 97 21h1024c34 0 66.333 -7 97 -21s57.834 -32.833 81.501 -56.5s42.5 -50.834 56.5 -81.501s21 -63 21 -97v-1024z" />
    <glyph glyph-name="a" unicode="a" 
d="M999 1087c0 19.333 -0.332031 39.335 -0.999023 60.002s-7 39 -19 55c-10.667 15.333 -24.667 26.333 -42 33s-34.666 10 -51.999 10h-13c-30 -2.66699 -57.167 -11.834 -81.5 -27.501s-40.166 -39.167 -47.499 -70.5c-1.33301 -6.66699 -4.33301 -12.834 -9 -18.501
s-11 -9.83398 -19 -12.501l-168 21c-6.66699 1.33301 -13.167 4.33301 -19.5 9s-8.16602 12.334 -5.49902 23.001c9.33301 44 25.666 81 48.999 111s51 54.333 83 73s66.833 32.667 104.5 42s75.5 15.333 113.5 18h35c42 0 87 -6 135 -18
c48 -10.667 89.667 -31.334 125 -62.001c30.667 -26.667 50.667 -56.667 60 -90s14 -69 14 -107v-77v-250c0 -37.333 6.66699 -66.666 20 -87.999c13.333 -20 28.666 -39.667 45.999 -59c5.33301 -6.66699 8 -13.834 8 -21.501s-3.33301 -14.167 -10 -19.5l-29 -24.5
l-36 -29.5l-36.5 -28.5l-29.5 -24.5c-12.667 -8 -27.334 -8.66699 -44.001 -2c-27.333 22.667 -46.333 40.667 -57 54l-41 50c-28 -28 -54.667 -50 -80 -66s-52 -28 -80 -36c-37.333 -8 -78 -12 -122 -12c-73.333 0 -134.333 20.333 -183 61s-73 102.334 -73 185.001
c0 66 16.5 120.667 49.5 164s77.833 76 134.5 98c28.667 12 59.167 21.167 91.5 27.5s66.5 11.5 102.5 15.5c23.333 2.66699 45.666 4.66699 66.999 6s41.333 3.33301 60 6v22zM999.001 936.002c-22 0 -43.835 -0.669922 -65.502 -2.00293s-42.167 -4 -61.5 -8
c-17.333 -5.33301 -33.666 -12.166 -48.999 -20.499s-29.333 -18.166 -42 -29.499c-25.333 -23.333 -38 -56.666 -38 -99.999c0 -36 9.33301 -64.5 28 -85.5s44.334 -31.5 77.001 -31.5c5.33301 0 10 0.5 14 1.5s7.33301 1.5 10 1.5c42 9.33301 73.667 33 95 71
c19.333 29.333 29.333 57 30 83c0.666992 13.333 1.16699 27.333 1.5 42s0.5 29.667 0.5 45v33zM1548 124.999c-6.66699 -6.66699 -12.667 -8.66895 -18 -6.00195s-6.66602 8 -3.99902 16l19 46l16 42c5.33301 14 9.5 27.167 12.5 39.5s4.66699 23.5 5 33.5
s-1.5 17.667 -5.5 23c-8 10.667 -26 16.667 -54 18h-17c-22.667 0 -45.334 -1 -68.001 -3c-12 -2.66699 -23.667 -4 -35 -4s-21.666 -1.33301 -30.999 -4c-8 0 -12.667 2.33301 -14 7s2 9.66699 10 15c21.333 13.333 44.666 24.333 69.999 33
c11.333 2.66699 23 4.83398 35 6.50098s23.667 3.16699 35 4.5c7.33301 0.666992 14.333 1.16699 21 1.5s13.334 0.5 20.001 0.5h13c4 0 8.33301 -0.333008 13 -1c42 -3.33301 68 -9.33301 78 -18c1.33301 -2.66699 2.66602 -6.16699 3.99902 -10.5s2 -9.83301 2 -16.5v-8
c0 -13.333 -2.16699 -29.666 -6.5 -48.999s-11 -39 -20 -59s-20.167 -39.5 -33.5 -58.5s-29 -35.167 -47 -48.5zM60.999 339.997c-6 4.66699 -8.99902 8.99805 -8.99902 12.998c0 2.66699 1 5 3 7c2.66699 4 6.66699 6 12 6c4 0 8.33301 -1.33301 13 -4
c112.667 -62 236.167 -110.167 370.5 -144.5s274.166 -51.5 419.499 -51.5c92 0 185.167 8.16699 279.5 24.5s189.166 41.5 284.499 75.5c6.66699 2.66699 13.334 5 20.001 7s13.667 4.66699 21 8c6.66699 2.66699 13.334 3.33398 20.001 2.00098s11.334 -4.33301 14.001 -9
c1.33301 -2 2.66602 -5.66699 3.99902 -11c0 -8 -4 -14.333 -12 -19c-10.667 -8 -21.834 -15.167 -33.501 -21.5s-22.834 -12.833 -33.501 -19.5c-85.333 -47.333 -179.666 -83.666 -282.999 -108.999c-101.333 -24.667 -201 -37 -299 -37c-154 0 -298 25 -432 75
s-253.667 119.333 -359 208z" />
    <glyph glyph-name="b" unicode="b" 
d="M559 -55c-70 0 -135.831 12.167 -197.498 36.5s-115.5 57.666 -161.5 99.999s-82.333 92 -109 149s-40 118.167 -40 183.5v549c0 64 13.333 124.667 40 182s63 107.5 109 150.5s99.833 76.833 161.5 101.5s127.5 37 197.5 37h354c32.667 -4 68.167 -13.333 106.5 -28
s75.666 -33.167 111.999 -55.5s69.833 -48.166 100.5 -77.499s55 -61 73 -95l14 -26l8.5 -19c3 -6.66699 5.66699 -15 8 -25s4.83301 -22.167 7.5 -36.5s5.66699 -32.166 9 -53.499c4 -30 8 -56 12 -78s13.667 -39 29 -51c10 -8 25.667 -13.167 47 -15.5
s43.666 -3.83301 66.999 -4.5s45 -1.33398 65 -2.00098s33.333 -3.66699 40 -9l22 -16l15 -27l4 -20l-4 -381c0 -64.667 -13.333 -125.5 -40 -182.5s-63 -106.833 -109 -149.5s-99.833 -76.167 -161.5 -100.5s-127.5 -36.5 -197.5 -36.5h-582zM565.002 1049
c-14 0 -26.833 -2.5 -38.5 -7.5s-22 -11.667 -31 -20s-16 -18 -21 -29s-7.5 -22.5 -7.5 -34.5s2.5 -23.5 7.5 -34.5s12 -20.667 21 -29s19.333 -14.833 31 -19.5s24.5 -7 38.5 -7h281c14 0 26.833 2.5 38.5 7.5s22 11.5 31 19.5s16 17.5 21 28.5s7.5 22.5 7.5 34.5
s-2.5 23.5 -7.5 34.5s-12 20.667 -21 29s-19.333 15 -31 20s-24.5 7.5 -38.5 7.5h-281zM467.002 422c0 -12 2.5 -23.501 7.5 -34.501s12 -20.667 21 -29s19.333 -14.833 31 -19.5s24.5 -7 38.5 -7h572c28 0 51 8.83301 69 26.5s27 38.834 27 63.501s-9 45.5 -27 62.5
s-41 25.5 -69 25.5h-572c-28 0 -51.333 -8.5 -70 -25.5s-28 -37.833 -28 -62.5z" />
    <glyph glyph-name="c" unicode="c" 
d="M1589 977c41.333 -92 62.667 -189 64 -291c0 -79.333 -12.333 -153 -37 -221c-10.667 -36 -24.667 -70 -42 -102s-36.666 -63 -57.999 -93c-44 -60.667 -95.667 -113.667 -155 -159s-125.333 -82.333 -198 -111c-100 -38 -203.667 -57 -311 -57
c-86.667 0 -166 10.667 -238 32c-38 10.667 -74.667 24 -110 40s-69 34.333 -101 55c-64.667 40 -121.334 87.333 -170.001 142s-88 116.334 -118 185.001c-41.333 90 -62.666 186.333 -63.999 289c0 74 11.667 147.667 35 221c24.667 68.667 58.667 133.667 102 195
c44 60.667 95.167 113.667 153.5 159s124.833 82.333 199.5 111c48 19.333 97.667 34.166 149 44.499s105.333 15.5 162 15.5c79.333 0 158.666 -11.667 237.999 -35c38 -10.667 74.167 -24 108.5 -40s67.5 -34 99.5 -54c131.333 -81.333 228.333 -190 291 -326zM1489 436
c18 38 31.6699 78.166 41.0029 120.499s14 85.5 14 129.5h-692v643c-68 0 -137 -9.66699 -207 -29c-32.667 -9.33301 -63.834 -20.666 -93.501 -33.999s-58.5 -28.333 -86.5 -45c-56.667 -36 -105.834 -77.833 -147.501 -125.5s-76.5 -100.834 -104.5 -159.501
c-35.333 -78.667 -53 -162 -53 -250h692v-643c69.333 0 137.666 9.66699 204.999 29c32.667 9.33301 64.167 20.833 94.5 34.5s59.5 29.5 87.5 47.5c56.667 34 106 74.833 148 122.5s76 100.834 102 159.501z" />
    <glyph glyph-name="d" unicode="d" 
d="M852 1434c73.333 0 144.168 -8.83594 212.501 -26.5029s132.166 -42.667 191.499 -75s113.5 -71.333 162.5 -117s90.833 -96.167 125.5 -151.5s61.5 -114.666 80.5 -177.999s28.5 -129.333 28.5 -198s-9.5 -134.667 -28.5 -198s-45.833 -122.666 -80.5 -177.999
s-76.5 -105.5 -125.5 -150.5s-103.167 -83.667 -162.5 -116s-123.166 -57.166 -191.499 -74.499s-139.166 -26 -212.499 -26c-111.333 0 -215.166 19.333 -311.499 58s-181.5 91.334 -255.5 158.001c-72.667 68 -129.834 147.167 -171.501 237.5s-62.5 186.833 -62.5 289.5
c0 68.667 9.5 134.667 28.5 198s45.833 122.666 80.5 177.999s76.5 105.833 125.5 151.5s103.167 84.667 162.5 117s123.166 57.333 191.499 75s139.166 26.5 212.499 26.5zM1343 1047c-50 -52 -104.002 -96.333 -162.002 -133s-119.333 -69 -184 -97
c6.66699 -15.333 13.834 -30 21.501 -44s14.834 -29.333 21.501 -46c28 5.33301 57.167 9 87.5 11s61.5 3 93.5 3c82 0 167.333 -8.66699 256 -26c-2.66699 62.667 -15.667 122 -39 178s-55 107.333 -95 154zM852 1270c-23.333 0 -45.5 -1.33203 -66.5 -3.99902
s-42.5 -6.33398 -64.5 -11.001c28 -32.667 60.333 -75 97 -127s76 -115.333 118 -190c58.667 23.333 114.334 51.5 167.001 84.5s99.334 72.5 140.001 118.5c-54.667 40 -114.834 71.5 -180.501 94.5s-135.834 34.5 -210.501 34.5zM578 1208
c-82.667 -37.333 -152.665 -88.999 -209.998 -154.999c-58.667 -66.667 -99.334 -141.334 -122.001 -224.001c6.66699 0 14.167 -0.333008 22.5 -1s17.833 -1 28.5 -1h10c57.333 0 130 4 218 12c87.333 8.66699 178.666 26.667 273.999 54
c-46.667 82.667 -89.667 150 -129 202s-70 89.667 -92 113zM227.002 687.999c0 -70.667 13.166 -137.831 39.499 -201.498s62.5 -120.834 108.5 -171.501c18 23.333 40.833 51.333 68.5 84s62.834 67 105.501 103c44 36.667 94.833 72 152.5 106s123.5 62.667 197.5 86
c-6.66699 13.333 -12.5 26.666 -17.5 39.999s-10.833 26 -17.5 38c-56 -16.667 -111.333 -30 -166 -40s-106.5 -17.667 -155.5 -23s-94.5 -8.83301 -136.5 -10.5s-78.333 -2.5 -109 -2.5h-68c-1.33301 -1.33301 -2 -4 -2 -8zM852.001 109.002c79.333 0 153.667 12 223 36
c-16.667 80.667 -35.5 156.167 -56.5 226.5s-43.833 136.833 -68.5 199.5c-70 -22 -131.333 -49.167 -184 -81.5s-99 -66.5 -139 -102.5c-38 -32.667 -69 -64 -93 -94s-41.667 -54 -53 -72c52 -36 109.333 -63.667 172 -83s129 -29 199 -29zM1206 211.002
c66.667 44 123.001 97.167 169.001 159.5s76.333 132.833 91 211.5c-46 9.33301 -88.833 16.333 -128.5 21s-78.5 7 -116.5 7h-2c-23.333 0 -45.333 -1 -66 -3s-41 -4.33301 -61 -7c22 -58 42.667 -119.167 62 -183.5s36.666 -132.833 51.999 -205.5z" />
    <glyph glyph-name="e" unicode="e" 
d="M1653 932l-214.997 -384.997v-203h-162v203l-51 96v-111c0 -6 0.166992 -12.167 0.5 -18.5s0.833008 -12.833 1.5 -19.5l4 -40h-115l-6 56h-2c-13.333 -20.667 -28.833 -36.167 -46.5 -46.5s-40.5 -15.5 -68.5 -15.5c-6.66699 0 -12.5 0.166992 -17.5 0.5
s-9.16699 0.833008 -12.5 1.5c-1.33301 -19.333 -3.66602 -38.833 -6.99902 -58.5s-9.33301 -37.334 -18 -53.001s-20.667 -28.334 -36 -38.001s-36 -14.5 -62 -14.5c-24.667 0 -45.5 4.16699 -62.5 12.5s-31.167 22.833 -42.5 43.5h-2v-45h-117v84
c-9.33301 -4 -19.5 -7.83301 -30.5 -11.5s-22.5 -6.83398 -34.5 -9.50098c-23.333 -4 -49.333 -7.33301 -78 -10s-60 -4 -94 -4c-72.667 0 -130.5 4.66699 -173.5 14s-76 22.5 -99 39.5s-38 37.5 -45 61.5s-10.5 50.333 -10.5 79c0 24.667 3.16699 48.167 9.5 70.5
s20.666 42 42.999 59s55.333 30.5 99 40.5s102.5 15 176.5 15s130.667 -5 170 -15c25.333 -4 47.666 -10 66.999 -18v197h123v-218h2c13.333 18 27.666 30.5 42.999 37.5s34.666 10.5 57.999 10.5c34 0 60.667 -9.66699 80 -29c23.333 16 50 25.333 80 28
c22.667 2.66699 46.667 3.66699 72 3h30v34c0 18 -2.83301 32.5 -8.5 43.5s-19.167 16.5 -40.5 16.5c-12 0 -21.167 -1.83301 -27.5 -5.5s-11 -8.5 -14 -14.5s-4.66699 -12.833 -5 -20.5s-0.5 -15.5 -0.5 -23.5h-123c0 50 15.667 83.667 47 101c13.333 10.667 30 18 50 22
s41.667 6 65 6c10.667 0 20.5 -0.333008 29.5 -1s17.5 -1.66699 25.5 -3l-29 56h176l115 -248l125 248h164zM379.003 661.003c-26 0 -45.834 -2.99805 -59.501 -8.99805s-23.5 -13.5 -29.5 -22.5s-9.33301 -18.333 -10 -28s-1 -17.834 -1 -24.501h204
c0 8.66699 -0.333008 18 -1 28s-4 19.167 -10 27.5s-16.167 15.166 -30.5 20.499s-35.166 8 -62.499 8zM616.002 477.005l-0.000976562 43h-337c0 -11.333 0.5 -23.333 1.5 -36s4.66699 -24.5 11 -35.5s16.333 -20 30 -27s32.834 -10.5 57.501 -10.5
c38.667 0 64.667 7 78 21c13.333 15.333 20 30.333 20 45h72h2h65zM842.001 508.005c0 20.667 -0.499023 39.168 -1.49902 55.501s-2.83301 31.166 -5.5 44.499c-4 26 -19.667 39 -47 39c-24.667 0 -39 -13 -43 -39s-6 -59.333 -6 -100c0 -52 3.16699 -90 9.5 -114
s19.5 -36 39.5 -36c23.333 0 38.166 12 44.499 36s9.5 62 9.5 114zM1042 520.006c18 0 31.501 5.16797 40.501 15.501s15.167 22.5 18.5 36.5c2.66699 10.667 4 23 4 37c0 6 -0.166992 14.667 -0.5 26s-0.5 18.666 -0.5 21.999c-16 -1.33301 -30.667 -2.33301 -44 -3
s-24.833 -3 -34.5 -7s-17.167 -10.667 -22.5 -20s-8 -23.333 -8 -42c0 -8 0.5 -15.833 1.5 -23.5s3.16699 -14.5 6.5 -20.5s8.16602 -11 14.499 -15s14.5 -6 24.5 -6z" />
    <glyph glyph-name="f" unicode="f" 
d="M184 -49l668 1485l668 -1487h-250v2h-348v233l276 129l-31 62l-245 -113v84l161 80l-34 63l-127 -63v152h-174v-238l-130 82l-40 -57l170 -109v-260v-45h-564z" />
    <glyph glyph-name="g" unicode="g" 
d="M1243 1364h-130.997l44 -36c12.667 -10.667 25.334 -23.5 38.001 -38.5s24 -32 34 -51s18.167 -40.167 24.5 -63.5s9.5 -48.333 9.5 -75c0 -52 -10.833 -96.5 -32.5 -133.5s-48.167 -68.167 -79.5 -93.5l-65 -50l-20.5 -20c-7 -6.66699 -13.333 -13.834 -19 -21.501
s-10.334 -16 -14.001 -25s-5.5 -18.833 -5.5 -29.5c0 -11.333 1.83301 -21.166 5.5 -29.499s8.33398 -16 14.001 -23s11.667 -13 18 -18l17.5 -13.5l76 -55c23.333 -18 45.666 -36.167 66.999 -54.5s40 -38.166 56 -59.499s28.833 -45 38.5 -71s14.5 -55.333 14.5 -88
c0 -46 -11.833 -91.167 -35.5 -135.5s-58.834 -83.833 -105.501 -118.5s-104.5 -62.667 -173.5 -84s-148.5 -32 -238.5 -32c-76 0 -142.333 7.83301 -199 23.5s-103.834 36.5 -141.501 62.5s-65.667 55.833 -84 89.5s-27.5 68.5 -27.5 104.5c0 35.333 11.333 75.333 34 120
c22.667 44 65 83.333 127 118c32.667 18 67.667 32.5 105 43.5s74 19.833 110 26.5s70.333 11.334 103 14.001s60.667 4.66699 84 6c-8 8.66699 -15.667 17.667 -23 27s-13.833 19.166 -19.5 29.499s-10.334 21.666 -14.001 33.999s-5.5 26.5 -5.5 42.5
c0 16.667 2.16699 30.667 6.5 42s9.16602 22.666 14.499 33.999c-10.667 -1.33301 -21.834 -2.33301 -33.501 -3s-23.167 -1 -34.5 -1c-56 0 -105.667 8.83301 -149 26.5s-79.666 40.834 -108.999 69.501s-51.666 61.5 -66.999 98.5s-23 74.5 -23 112.5c0 46 11 92 33 138
s55.333 87.333 100 124c60 46.667 123.667 76 191 88c65.333 12.667 127.333 19 186 19h434zM1192 238c0 24.667 -4.50098 47 -13.501 67s-22.667 39.833 -41 59.5s-42 39.834 -71 60.501l-103.5 71c-4 0.666992 -7.83301 1.16699 -11.5 1.5s-7.16699 0.5 -10.5 0.5h-26
c-5.33301 0 -15.666 -0.333008 -30.999 -1s-33.333 -2.16699 -54 -4.5s-43 -5.5 -67 -9.5s-47 -9.33301 -69 -16c-12 -4 -28 -10.333 -48 -19s-39.833 -20.667 -59.5 -36s-36.667 -34.833 -51 -58.5s-21.5 -52.834 -21.5 -87.501c0 -35.333 8.66699 -67.5 26 -96.5
s42 -54.167 74 -75.5s70.667 -37.833 116 -49.5s96.333 -17.5 153 -17.5c102.667 0 179.667 19.667 231 59c52 40 78 90.667 78 152zM1024 868c24.667 22.667 39.667 47.665 45 74.998c2.66699 13.333 4.66699 25.5 6 36.5s2 21.167 2 30.5c0 23.333 -2.5 48.333 -7.5 75
s-12.333 53.334 -22 80.001s-22 52.334 -37 77.001s-32.333 46.5 -52 65.5s-41.834 34.167 -66.501 45.5s-51.667 17 -81 17c-28 0 -55.167 -6.16699 -81.5 -18.5s-48.166 -27.833 -65.499 -46.5c-18 -20.667 -30.167 -43.334 -36.5 -68.001s-9.5 -50 -9.5 -76
c0 -32.667 5.33301 -69.167 16 -109.5s26.667 -78.166 48 -113.499s48.5 -65 81.5 -89s72.167 -36 117.5 -36c28 0 54.667 5 80 15s46.333 23.333 63 40z" />
    <glyph glyph-name="h" unicode="h" 
d="M852 1421c110.667 0 214.499 -14.6689 311.499 -44.002s181.833 -69.166 254.5 -119.499s130 -109.333 172 -177s63 -139.834 63 -216.501c0 -51.333 -9.5 -100.833 -28.5 -148.5s-46 -92.167 -81 -133.5s-76.833 -79 -125.5 -113s-102.667 -63.167 -162 -87.5
s-123.166 -43.166 -191.499 -56.499s-139.166 -20 -212.499 -20c-84.667 0 -169.334 9.66699 -254.001 29l-48.5 -23c-17 -8 -34.833 -15.667 -53.5 -23l-107 -44c-34 -13.333 -65.667 -24.166 -95 -32.499s-53 -12.5 -71 -12.5c27.333 38 48.5 78.833 63.5 122.5
s26.833 85.167 35.5 124.5c-84 52 -149.833 113.667 -197.5 185s-71.5 149 -71.5 233c0 76.667 20.833 148.834 62.5 216.501s98.667 126.667 171 177s157 90.166 254 119.499s200.833 44 311.5 44zM1237 855.998l8.00293 34c2.66699 10 4 22 4 36
c0 31.333 -6.33301 60.666 -19 87.999s-30 51.166 -52 71.499s-47.667 36.333 -77 48s-60.333 17.5 -93 17.5c-31.333 0 -57 -5.16699 -77 -15.5s-35.833 -23 -47.5 -38s-19.834 -31.167 -24.501 -48.5s-7 -33.333 -7 -48c0 14.667 -4 30.667 -12 48s-19 33.5 -33 48.5
s-30.5 27.667 -49.5 38s-39.5 15.5 -61.5 15.5c-32.667 0 -63.5 -5.83301 -92.5 -17.5s-54.333 -27.667 -76 -48s-38.834 -44.166 -51.501 -71.499s-19 -56.666 -19 -87.999c0 -26 4 -49.333 12 -70c0.666992 -8 6 -19.667 16 -35c14.667 -26.667 34 -48.334 58 -65.001
c13.333 -13.333 28 -27 44 -41s33 -27.667 51 -41l101 -76l113 -76l113 76l101 76c18 13.333 35 27 51 41l46 41c25.333 21.333 44.666 43 57.999 65c6 8.66699 11.333 20.334 16 35.001z" />
    <glyph glyph-name="i" unicode="i" 
d="M852 1432c73.333 0 144.168 -8.83398 212.501 -26.501s132.166 -42.834 191.499 -75.501s113.333 -71.667 162 -117s90.5 -95.5 125.5 -150.5s62 -114.167 81 -177.5s28.5 -129 28.5 -197c0 -68.667 -9.5 -134.667 -28.5 -198s-45.833 -122.666 -80.5 -177.999
s-76.5 -105.833 -125.5 -151.5s-103.167 -84.667 -162.5 -117s-123.166 -57.333 -191.499 -75s-139.166 -26.167 -212.499 -25.5c-111.333 0 -215.166 19.167 -311.499 57.5s-181.5 91.5 -255.5 159.5c-72.667 68.667 -129.834 148.167 -171.501 238.5
s-62.5 186.833 -62.5 289.5c0 68 9.5 133.667 28.5 197s46 122.5 81 177.5s76.833 105.167 125.5 150.5s102.667 84.333 162 117s123.166 57.834 191.499 75.501s139.166 26.5 212.499 26.5zM852.002 91.999c59.333 0 116.333 7.16504 171 21.498s105.834 34.5 153.501 60.5
s90.834 57 129.501 93s71.834 76.167 99.501 120.5s49.167 91.833 64.5 142.5s23 103.334 23 158.001s-7.66699 107.334 -23 158.001s-36.833 98 -64.5 142s-60.834 84 -99.501 120s-81.834 67 -129.501 93s-98.834 46 -153.501 60s-111.667 21 -171 21
c-89.333 0 -172.833 -15.5 -250.5 -46.5s-145.5 -73.5 -203.5 -127.5s-103.667 -117 -137 -189s-50 -149 -50 -231s16.667 -159.167 50 -231.5s79 -135.5 137 -189.5s125.833 -96.667 203.5 -128s161.167 -47 250.5 -47zM1145 486.997l0.000976562 -10
c0 -26.667 -9.66699 -51.667 -29 -75c-22 -25.333 -50.667 -40 -86 -44c-3.33301 -0.666992 -6.33301 -1 -9 -1h-8c-28 0 -52.333 8.33301 -73 25c-28.667 22 -43 51 -43 87c0 26.667 10 51.667 30 75c23.333 25.333 51.666 40 84.999 44c22 0.666992 42.333 -1.33301 61 -6
v309l-321 -55v-387v-5v-10c0 -26.667 -9.66699 -51.667 -29 -75c-22 -25.333 -50 -40 -84 -44c-3.33301 -0.666992 -6.33301 -1 -9 -1h-9c-28 0 -52.333 8.33301 -73 25c-24.667 20 -38.667 45.667 -42 77c0 4.66699 -0.333008 8 -1 10c0 26.667 10 51.667 30 75
c22 25.333 49.667 40 83 44c22 1.33301 42.667 -0.666992 62 -6v446l465 74v-2v-565v-5z" />
    <glyph glyph-name="j" unicode="j" 
d="M1653 920l-366.998 -262.999l49 -47l-497 -448l-435 391c-48.667 0 -94.334 8.5 -137.001 25.5s-80 40.167 -112 69.5s-57.167 63.5 -75.5 102.5s-27.5 80.167 -27.5 123.5c0 44.667 9.5 86.667 28.5 126s44.667 73.666 77 102.999s70.333 52.5 114 69.5
s90.167 25.5 139.5 25.5c79.333 0 149.666 -20.667 210.999 -62c62 -42 104.333 -94.333 127 -157l92 82l215 -195l598 570v-516zM1599 1333l-790 -758l-125 185c19.333 35.333 29 73.333 29 114c0 38 -8 73.833 -24 107.5s-37.833 63 -65.5 88s-60 44.833 -97 59.5
s-76.5 22 -118.5 22s-81.667 -7.33301 -119 -22s-69.833 -34.5 -97.5 -59.5s-49.5 -54.333 -65.5 -88s-24 -69.5 -24 -107.5s8 -73.667 24 -107s37.833 -62.333 65.5 -87s60 -44.167 97 -58.5s76.833 -21.5 119.5 -21.5c13.333 0 27.5 0.833008 42.5 2.5
s30.167 4.16699 45.5 7.5l301 -248l802 586v385z" />
    <glyph glyph-name="k" unicode="k" 
d="M481 1432c5.33301 1.33301 10.8359 1.99121 16.5029 1.99121s11.167 0.666992 16.5 2c49.333 -5.33301 76 -40.333 80 -105c0.666992 -3.33301 1 -7 1 -11v-11c0 -9.33301 -0.333008 -18.666 -1 -27.999s-1.66699 -18.666 -3 -27.999
c-5.33301 -38.667 -13.5 -76.334 -24.5 -113.001s-19.5 -68.667 -25.5 -96c92 -19.333 174 -51 246 -95s131.333 -104.333 178 -181c22 -36 41.167 -74.333 57.5 -115s25.833 -87 28.5 -139c0 -6.66699 -1.5 -15.167 -4.5 -25.5s-2.83301 -18.833 0.5 -25.5
c3.33301 -8 9 -16 17 -24l23 -23c10 -10 21.167 -20.167 33.5 -30.5l37.5 -30c12.667 -9.66699 25.667 -18.5 39 -26.5s26 -14 38 -18c18.667 -6 38.667 -8.66699 60 -8h13c19.333 0.666992 39.166 3 59.499 7s40.333 8.5 60 13.5l57.5 14.5
c18.667 4.66699 36.334 8.66699 53.001 12c16.667 4 31.667 6 45 6c9.33301 0 18 -1 26 -3c19.333 -5.33301 33.333 -18 42 -38c0 -5.33301 0.333008 -10 1 -14s1 -8 1 -12c-4 -15.333 -10.5 -29 -19.5 -41s-19.833 -23 -32.5 -33s-26.5 -19.167 -41.5 -27.5
s-30.5 -16.166 -46.5 -23.499c-45.333 -22 -96.666 -40.833 -153.999 -56.5s-117.333 -28.834 -180 -39.501s-126.334 -18.5 -191.001 -23.5s-126.334 -7.5 -185.001 -7.5c-23.333 -19.333 -50.166 -34.833 -80.499 -46.5s-63.5 -21.5 -99.5 -29.5
c-19.333 -2.66699 -37.833 -4.66699 -55.5 -6s-35.5 -3.33301 -53.5 -6c-44.667 -2.66699 -90.334 -2.66699 -137.001 0s-83 15.667 -109 39c-12 10.667 -21.5 25.5 -28.5 44.5s-8.16699 38.167 -3.5 57.5c8 31.333 29.333 56.333 64 75
c35.333 19.333 72.666 33.333 111.999 42c-2.66699 10.667 -7.16699 20.5 -13.5 29.5s-11.5 18.833 -15.5 29.5c-14.667 34 -22 71.667 -22 113v23c1.33301 24.667 4.5 47 9.5 67s11.167 38.333 18.5 55l-63 15c-2.66699 -10.667 -4.5 -20.167 -5.5 -28.5
s-4.83301 -16.166 -11.5 -23.499c-10.667 -13.333 -24.834 -22.166 -42.501 -26.499s-35 -4 -52 1s-31.333 14.5 -43 28.5s-16.834 32.333 -15.501 55c2 20 12.5 38.5 31.5 55.5s39.833 32.167 62.5 45.5l41 24c10.667 6 25 13.333 43 22l47 25
c15.333 8 29.666 17.167 42.999 27.5s21.666 20.833 24.999 31.5c2 6 2.83301 12.833 2.5 20.5s-1.33301 15.167 -3 22.5s-3.66699 14.333 -6 21s-4.5 12 -6.5 16c-7.33301 -1.33301 -12.333 -4.33301 -15 -9l-9 -13c-12 -12 -25.333 -24.333 -40 -37l-44 -37l-62 -46
c-21.333 -15.333 -45 -26.666 -71 -33.999c-6.66699 -1.33301 -13 -2.5 -19 -3.5s-12.333 -1.5 -19 -1.5c-17.333 0 -33 3.33301 -47 10c-25.333 11.333 -43.666 30.666 -54.999 57.999c0 12 -1.33301 23 -4 33c4.66699 22.667 12.334 43.834 23.001 63.501
s23.5 37.834 38.5 54.501s31.833 31.834 50.5 45.501s38.334 26.167 59.001 37.5l87 45l-43 43c-12 12 -24.167 25.167 -36.5 39.5s-23.5 29.666 -33.5 45.999s-18.667 33.833 -26 52.5s-12 38.334 -14 59.001c-0.666992 3.33301 -1 8.33301 -1 15
c0 16.667 3.66699 33.334 11 50.001c8.66699 19.333 23 35 43 47c18 9.33301 35 13 51 11s30.833 -6.66699 44.5 -14s26.667 -16.166 39 -26.499s24.166 -18.833 35.499 -25.5c10.667 23.333 23.334 45.333 38.001 66s36 36.334 64 47.001zM836.003 859.991
c-38 36 -81.8408 66.165 -131.508 90.498s-105.5 42.166 -167.5 53.499c-10.667 1.33301 -20.167 2.66602 -28.5 3.99902s-13.833 5.33301 -16.5 12c-1.33301 2.66699 -0.666016 8.83398 2.00098 18.501s5.33398 18.5 8.00098 26.5l33 110
c8.66699 32.667 14.667 72.334 18 119.001c0 20 -1.66699 39.833 -5 59.5s-11.666 33.167 -24.999 40.5c-3.33301 2 -7.33301 3 -12 3c-6.66699 0 -14 -2 -22 -6c-24 -11.333 -41.667 -27.666 -53 -48.999c-11.333 -20.667 -21.333 -41.334 -30 -62.001
c5.33301 -4 11 -10.167 17 -18.5s12 -17.833 18 -28.5s11.5 -22.334 16.5 -35.001s8.83301 -25 11.5 -37c2 -10 3 -19.333 3 -28c0 -14.667 -2.33301 -27 -7 -37c-8 -19.333 -27 -29 -57 -29c-22 0 -37.5 8.5 -46.5 25.5s-14.5 37.167 -16.5 60.5c-0.666992 4 -1 8 -1 12v11
c0 7.33301 0.333008 15 1 23s1.66699 16 3 24c4 24 8 41.667 12 53c-10.667 8 -19 16.167 -25 24.5s-14.667 15.833 -26 22.5c-3.33301 2.66699 -7.33301 5.66699 -12 9s-10.334 6.66602 -17.001 9.99902c-12 8 -27.667 8.33301 -47 1
c-5.33301 -1.33301 -10 -3.83301 -14 -7.5s-7.5 -8 -10.5 -13s-5.5 -10 -7.5 -15s-3.33301 -9.5 -4 -13.5c-1.33301 -9.33301 -1.33301 -19.166 0 -29.499s3.33301 -19.5 6 -27.5c8 -35.333 25.667 -69.666 53 -102.999c26.667 -32 51.334 -57 74.001 -75
c6.66699 -6 17.334 -12.333 32.001 -19c14 -4.66699 20.333 -12.667 19 -24c0 -8 -9.33301 -15 -28 -21c-17.333 -4.66699 -32.666 -10.667 -45.999 -18c-30 -12.667 -54.667 -26.334 -74 -41.001c-23.333 -15.333 -45.5 -31.166 -66.5 -47.499s-37.5 -33.833 -49.5 -52.5
c-6.66699 -7.33301 -13 -18.333 -19 -33c-3.33301 -10 -5 -19 -5 -27c0 -6 0.333008 -10.667 1 -14c4 -18 13.5 -31 28.5 -39s33.5 -10 55.5 -6c23.333 5.33301 47 16.5 71 33.5s47.333 35.167 70 54.5l30 25c4.66699 3.33301 9.5 7.5 14.5 12.5l15.5 15.5
c4 4.66699 8.16699 9.83398 12.5 15.501l14.5 18.5c10.667 14 21.334 21 32.001 21c10.667 -0.666992 20.667 -11 30 -31c10 -18.667 16.333 -33.334 19 -44.001c3.33301 -15.333 5 -28.666 5 -39.999c0 -14 -2 -25.333 -6 -34
c-6.66699 -18.667 -16.334 -33.667 -29.001 -45c-18 -15.333 -39.5 -29.166 -64.5 -41.499l-79.5 -40.5c-8.66699 -4 -19.667 -9.66699 -33 -17s-26.166 -15.5 -38.499 -24.5s-22.666 -18.5 -30.999 -28.5s-12.166 -20 -11.499 -30c0 -12.667 3.33301 -22 10 -28
s14.5 -9.5 23.5 -10.5s18 0.166992 27 3.5s15.5 8.66602 19.5 15.999c4 10 3.33301 21.667 -2 35s-3.33301 23 6 29c8 6.66699 18.333 7.66699 31 3c6.66699 -2.66699 12.5 -4.66699 17.5 -6s9.16699 -2.66602 12.5 -3.99902l64 -12c7.33301 7.33301 15 16.666 23 27.999
s16.833 22.166 26.5 32.499s20.5 19.333 32.5 27s26 11.5 42 11.5c14.667 0 27.334 -4.83301 38.001 -14.5s18.5 -21 23.5 -34s6.83301 -26.333 5.5 -40s-7 -24.5 -17 -32.5c-17.333 -16.667 -38.666 -25 -63.999 -25h-6l-78 4c-12.667 -18.667 -21.334 -41 -26.001 -67
c-4 -20 -6 -40.667 -6 -62v-23c2 -30 7.83301 -58.167 17.5 -84.5s22.834 -48.5 39.501 -66.5c24.667 2 48.334 3 71.001 3c15.333 0 29.666 -0.5 42.999 -1.5s26.333 -2.16699 39 -3.5c-26.667 34.667 -42.334 71.667 -47.001 111c-2 13.333 -2.66699 25.333 -2 36
c0 26 4 51.667 12 77c12 36 32.833 67 62.5 93s66.5 42 110.5 48c6.66699 0.666992 13.167 1.16699 19.5 1.5s12.833 0.5 19.5 0.5c22.667 0 44 -2.66699 64 -8c23.333 -5.33301 44.166 -12.333 62.499 -21s34.166 -17.167 47.499 -25.5s24 -16.166 32 -23.499
s13.667 -12.333 17 -15c-3.33301 42.667 -9.66602 81.834 -18.999 117.501s-21.5 68.5 -36.5 98.5s-32.5 57.667 -52.5 83s-42 49.333 -66 72zM413.995 1107.99c14 1.33301 20.334 8.66895 19.001 22.002c-1.33301 14.667 -3.66602 27 -6.99902 37
c-4 12 -9.16699 22.833 -15.5 32.5s-11.5 19.5 -15.5 29.5c0 1.33301 -0.666992 2 -2 2c-2.66699 -6.66699 -4.83398 -16.834 -6.50098 -30.501s-2 -27.334 -1 -41.001s3.66699 -25.667 8 -36s11.166 -15.5 20.499 -15.5zM456.996 556.992h54.998
c19.333 0 34.333 5.33301 45 16c2.66699 9.33301 2.33398 18.5 -0.999023 27.5s-8.33301 15.833 -15 20.5c-22 0 -39.167 -6.83301 -51.5 -20.5s-23.166 -28.167 -32.499 -43.5zM751.994 540.992c-36.667 -5.33301 -67.001 -19.335 -91.001 -42.002s-40.667 -49 -50 -79
c-5.33301 -20 -8 -39.333 -8 -58c0 -12 1 -24 3 -36c4.66699 -32 18.334 -61.333 41.001 -88c4.66699 -6 10.667 -12 18 -18l21.5 -17c7 -5.33301 13.167 -10.5 18.5 -15.5s8 -9.5 8 -13.5c-1.33301 -10.667 -6.5 -15.667 -15.5 -15s-18.167 2.33398 -27.5 5.00098
c-27.333 6.66699 -56.333 11.667 -87 15c-17.333 2 -34.333 3 -51 3c-6.66699 0 -13.167 -0.166992 -19.5 -0.5s-12.5 -0.833008 -18.5 -1.5c32 -34 72.833 -59.167 122.5 -75.5s104.834 -25.833 165.501 -28.5c19.333 15.333 32 38 38 68c2 8.66699 3 17 3 25
c0 21.333 -6 42 -18 62c-6.66699 10.667 -13.5 18.834 -20.5 24.501s-9.16699 12.5 -6.5 20.5c2 4.66699 5 7.83398 9 9.50098s8.66699 2.66699 14 3s11 0.333008 17 0s12 -0.166016 18 0.500977c25.333 1.33301 47 6.66602 65 15.999s33.333 21.166 46 35.499
s23.167 30.333 31.5 48s15.166 35.5 20.499 53.5l-50 41c-17.333 13.333 -35.5 25.333 -54.5 36s-40.5 18 -64.5 22c-23.333 4 -49.333 4 -78 0zM841.993 249.99c15.333 -21.333 22.3311 -44.667 20.998 -70v-9c0 -2.66699 -0.333008 -5.66699 -1 -9
c-4 -32 -10.667 -57.333 -20 -76l-2 -6c-2.66699 -2.66699 -2.66699 -4 0 -4c62.667 1.33301 127.834 5.16602 195.501 11.499s133.834 16 198.501 29s125.334 29.333 182.001 49s105 43.167 145 70.5c10.667 6.66699 22.334 16.334 35.001 29.001c10 10 15 19.667 15 29
c0 4 -0.333008 7 -1 9c-2.66699 8.66699 -9.83398 13.167 -21.501 13.5s-24.5 -1.16699 -38.5 -4.5s-28 -7.33301 -42 -12s-25 -7.66699 -33 -9c-23.333 -5.33301 -49.333 -10.5 -78 -15.5s-56 -8.83301 -82 -11.5c-4.66699 -0.666992 -9 -1 -13 -1h-11
c-26.667 0 -49 3.33301 -67 10c-20 6.66699 -38 15.167 -54 25.5s-31.333 21.5 -46 33.5s-28.667 24.5 -42 37.5s-27.333 25.833 -42 38.5c-3.33301 2.66699 -5.33301 3.66699 -6 3c-0.666992 0 -1.33398 -0.333008 -2.00098 -1c-14.667 -38 -36 -72.667 -64 -104
c-27.333 -29.333 -69.333 -48 -126 -56zM462.991 146.989c-8.66699 8 -14.333 14.668 -17 20.001c-2 4 -5.66699 6 -11 6c-4 0 -7 -0.333008 -9 -1l-52 -17c-27.333 -8.66699 -50.5 -20.334 -69.5 -35.001s-28.5 -32.667 -28.5 -54c0 -10 2 -19 6 -27s9 -14.833 15 -20.5
s12.5 -10.334 19.5 -14.001s13.5 -6.5 19.5 -8.5c24.667 -6.66699 54.5 -10 89.5 -10s71.5 1.33301 109.5 4s74.333 8.33398 109 17.001s63 20 85 34c-52 6.66699 -101.167 18 -147.5 34s-85.833 40 -118.5 72z" />
    <glyph glyph-name="l" unicode="l" 
d="M1653 555l-0.00195312 -551h-344v514c0 32.667 -3.16699 62.334 -9.5 89.001s-16.5 49.5 -30.5 68.5s-32 33.667 -54 44s-48.667 15.5 -80 15.5c-48 0 -86.333 -12.333 -115 -37c-28 -22.667 -48.667 -49.334 -62 -80.001c-4 -10.667 -6.66699 -22.5 -8 -35.5
s-2 -26.833 -2 -41.5v-537h-344c0.666992 82 1.16699 160 1.5 234s0.5 145 0.5 213v171v155c0 48 -0.333008 88.5 -1 121.5s-1 55.167 -1 66.5h344v-136l-2 -4h2v4c10.667 16.667 24.334 34.167 41.001 52.5s37.334 35.333 62.001 51s53.834 28.667 87.501 39
s73.167 15.5 118.5 15.5c56.667 0 109.167 -8.66699 157.5 -26s90.166 -43.833 125.499 -79.5s63 -80.5 83 -134.5s30 -118 30 -192zM245.998 1427c29.333 0 55.5 -4.16504 78.5 -12.498s42.833 -19.833 59.5 -34.5s29.5 -32 38.5 -52s14.167 -42 15.5 -66
c0 -46.667 -17.333 -86 -52 -118c-35.333 -32 -82.666 -48 -141.999 -48h-2c-58.667 0 -105.334 16 -140.001 48c-34 32 -51 71.333 -51 118c0 24 4.5 46.167 13.5 66.5s22 37.666 39 51.999s37.5 25.666 61.5 33.999s51 12.5 81 12.5zM71.998 965.002h342v-961h-342v961z
" />
    <glyph glyph-name="m" unicode="m" 
d="M1507 -51l-235 157l-234 -157l88 256l-233 157h289l90 256l90 -256h291l-236 -157zM1059 184c-2 -6.66699 -5.16895 -16.668 -9.50195 -30.001s-10.166 -29.666 -17.499 -48.999l-43 -123l-938 632h932l289 824l358 -1022h-227l-11 31l-17 50l-20 60l-24 66l-59 168
l-60 -168l-23 -66l-21 -60c-6 -18.667 -11.667 -35.167 -17 -49.5s-8.66602 -24.833 -9.99902 -31.5h-424l151 -105z" />
    <glyph glyph-name="n" unicode="n" 
d="M1653 504c0 -45.333 -9.5 -88.166 -28.5 -128.499s-44.667 -75.5 -77 -105.5s-70.333 -53.833 -114 -71.5s-90.167 -26.5 -139.5 -26.5s-95.666 8.83301 -138.999 26.5s-81.5 41.5 -114.5 71.5s-59 65.167 -78 105.5s-28.5 83.166 -28.5 128.499s9.5 88 28.5 128
s45 75 78 105s71.167 53.667 114.5 71s89.666 26 138.999 26s95.833 -8.66699 139.5 -26s81.667 -41 114 -71s58 -65 77 -105s28.5 -82.667 28.5 -128zM410 834c-50 0 -96.667 -8.66699 -140 -26s-81.333 -41 -114 -71s-58.334 -65 -77.001 -105s-28 -82.667 -28 -128
s9.33301 -88.166 28 -128.499s44.334 -75.5 77.001 -105.5s70.667 -53.833 114 -71.5s90 -26.5 140 -26.5c49.333 0 95.833 8.83301 139.5 26.5s81.667 41.5 114 71.5s57.833 65.167 76.5 105.5s28 83.166 28 128.499s-9.33301 88 -28 128s-44.167 75 -76.5 105
s-70.333 53.667 -114 71s-90.167 26 -139.5 26z" />
    <glyph glyph-name="o" unicode="o" 
d="M1368 451c70.667 -28 126.834 -60.334 168.501 -97.001s62.5 -76 62.5 -118c0 -41.333 -19.667 -80 -59 -116s-92.833 -67.333 -160.5 -94s-146.834 -47.5 -237.501 -62.5s-187.334 -22.5 -290.001 -22.5c-103.333 0 -200.166 7.5 -290.499 22.5
s-169.333 35.833 -237 62.5s-121 58 -160 94s-58.5 74.667 -58.5 116c0 44 20.667 83.833 62 119.5s99.333 67.5 174 95.5c-15.333 65.333 -23 132 -23 200c0 66.667 11.667 139 35 217c11.333 38.667 24.666 76.334 39.999 113.001s32.333 73 51 109c38 72 81 138 129 198
c49.333 60 99 106.333 149 139c-17.333 -44.667 -26 -83 -26 -115v-12c0 -4 0.333008 -8 1 -12c4.66699 -38 15.667 -73 33 -105l26.5 -48l27.5 -47c20.667 -32 34.334 -67 41.001 -105c2.66699 -13.333 4 -28.666 4 -45.999c0 -28 -4 -58.333 -12 -91
c-13.333 -52.667 -44.333 -116.334 -93 -191.001c28 -7.33301 54.333 -11 79 -11c20 0 40.667 2.66699 62 8c44 11.333 81 32.5 111 63.5s50.667 70.833 62 119.5c4.66699 22.667 7.66699 47.667 9 75c0 14 -0.833008 28.5 -2.5 43.5s-4.16699 30.167 -7.5 45.5
c44 -23.333 86.167 -48.5 126.5 -75.5s76 -59 107 -96s55.833 -80.667 74.5 -131s28 -110.5 28 -180.5c0 -21.333 -2 -43 -6 -65zM567 804.999c-39.333 -60 -67.8252 -116.336 -85.4922 -169.003s-27.834 -103 -30.501 -151h2c0 -6.66699 -0.333008 -11.667 -1 -15
c0 -78 20 -144.333 60 -199c42 -58 97.333 -99.333 166 -124h2c6.66699 -2.66699 12.667 -4.83398 18 -6.50098s9.66602 -2.83398 12.999 -3.50098h4c4 -1.33301 8.66699 -2.66602 14 -3.99902s11.666 -2.66602 18.999 -3.99902h4c5.33301 -1.33301 10 -2 14 -2
s8.66699 -0.666992 14 -2h8c5.33301 0 10.833 -0.333008 16.5 -1s11.167 -1 16.5 -1c8 1.33301 16.167 2 24.5 2s15.833 0.666992 22.5 2h15c5.33301 1.33301 10.666 2.33301 15.999 3s10.666 1.66699 15.999 3c4.66699 0 9 0.666992 13 2
c29.333 4.66699 56 12.334 80 23.001c1.33301 0 2.66602 0.333008 3.99902 1s2.66602 1 3.99902 1l31 14c1.33301 0 2.33301 0.333008 3 1s1.66699 1 3 1c24 12.667 45 26.334 63 41.001h2c46 35.333 79.333 77 100 125c18.667 41.333 28 84.333 28 129v8
c0 2.66699 -0.333008 5.33398 -1 8.00098c-2.66699 44 -15.167 86 -37.5 126s-55.5 76 -99.5 108c-10.667 -46.667 -25 -90 -43 -130s-39.5 -74.5 -64.5 -103.5s-53.833 -51.667 -86.5 -68s-69 -24.5 -109 -24.5c-28 0 -55.167 6 -81.5 18s-50.5 28.833 -72.5 50.5
s-40.833 47.667 -56.5 78s-26.834 63.833 -33.501 100.5c-4 20.667 -6 42 -6 64c0 30.667 4 63.667 12 99z" />
    <glyph glyph-name="p" unicode="p" 
d="M524 362h1049c-31.333 -58.667 -69.666 -112.5 -114.999 -161.5s-95.833 -91.5 -151.5 -127.5s-115.667 -65 -180 -87s-131.166 -35.667 -200.499 -41h-148c-44 2.66699 -86.833 9.5 -128.5 20.5s-83.5 24.5 -125.5 40.5v356zM1184 868c-4 4 -22 19 -54 45l-113 95
l-141 119l-141 120l-111 94l-51 43c46 15.333 92 27.5 138 36.5s93 13.5 141 13.5c115.333 0 226 -22.667 332 -68v-498zM486.998 1350l24.999 -20.999l55 -46l71 -59l71 -60l55 -48c16 -14 25 -21.333 27 -22c-2.66699 -0.666992 -21.667 -16.334 -57 -47.001l-129 -110
l-167 -140l-167 -142l-131 -111l-58 -50c-20.667 62 -31 126 -31 192c0 70 10.167 138 30.5 204s49.5 127.833 87.5 185.5s83.833 110 137.5 157s113.834 86.167 180.501 117.5zM439.997 49.001c-76 42 -141.831 94 -197.498 156s-99.5 131 -131.5 207l25 21l58 49l74 64
l77 64l63 54c9.33301 7.33301 16.666 13.5 21.999 18.5s8.66602 8.16699 9.99902 9.5v-643zM1268 1323c58.667 -34 111.668 -74 159.001 -120s87.833 -96.333 121.5 -151s59.5 -113 77.5 -175s27 -125.667 27 -191c0 -40.667 -3.83301 -81.5 -11.5 -122.5
s-18.834 -81.5 -33.501 -121.5h-340v881z" />
    <glyph glyph-name="q" unicode="q" 
d="M852 1440c73.333 0 144.168 -8.83594 212.501 -26.5029s132.166 -42.834 191.499 -75.501s113.333 -71.667 162 -117s90.5 -95.5 125.5 -150.5s62 -114.167 81 -177.5s28.5 -129 28.5 -197c0 -68.667 -9.5 -134.667 -28.5 -198s-45.833 -122.666 -80.5 -177.999
s-76.5 -105.666 -125.5 -150.999s-103.167 -84.166 -162.5 -116.499s-123.166 -57.333 -191.499 -75s-139.166 -26.5 -212.499 -26.5c-111.333 0 -215.166 19.333 -311.499 58s-181.5 92 -255.5 160c-72.667 68 -129.834 147.167 -171.501 237.5s-62.5 186.833 -62.5 289.5
c0 68 9.5 133.667 28.5 197s46 122.5 81 177.5s76.833 105.167 125.5 150.5s102.667 84.333 162 117s123.166 57.834 191.499 75.501s139.166 26.5 212.499 26.5zM1282 466.997c10 0 20.167 4.3291 30.5 12.9961s20 19.834 29 33.501s17.333 29.167 25 46.5
s14.334 34.5 20.001 51.5s10.167 33 13.5 48s5 27.167 5 36.5c-2.66699 70.667 -18.667 137.167 -48 199.5s-68.5 116.833 -117.5 163.5s-106.667 83.5 -173 110.5s-137.833 40.5 -214.5 40.5c-76 0 -147.667 -13.5 -215 -40.5s-126 -63.833 -176 -110.5
s-89.5 -101.167 -118.5 -163.5s-43.5 -128.833 -43.5 -199.5c0 -64.667 10.667 -120 32 -166c20 -42.667 47.333 -63.667 82 -63h7c12 1.33301 27.667 1.33301 47 0h11c14.667 0 30.667 2 48 6c15.333 4 30.333 10.667 45 20s28.334 23 41.001 41s23.667 41.333 33 70
s16.666 64.667 21.999 108c1.33301 14.667 2.5 30.334 3.5 47.001s1.5 34.334 1.5 53.001c0 17.333 -0.333008 35.166 -1 53.499s-1.66699 37.833 -3 58.5c101.333 -15.333 184 -41.333 248 -78c65.333 -38 115 -76.333 149 -115c41.333 -44 72.666 -93.667 93.999 -149
c11.333 -21.333 24.333 -40.666 39 -57.999c10.667 -15.333 23.5 -28.666 38.5 -39.999s30.167 -17 45.5 -17z" />
    <glyph glyph-name="r" unicode="r" 
d="M416 281c40.667 -38 61 -84.667 61 -140c0 -56 -20.333 -102.333 -61 -139c-41.333 -38 -92 -57 -152 -57c-58.667 0 -108.334 19 -149.001 57c-19.333 18 -34.833 38.667 -46.5 62s-17.5 49 -17.5 77s5.83301 53.5 17.5 76.5s27.167 44.167 46.5 63.5
c19.333 18 41.833 32 67.5 42s52.834 15 81.501 15c30 0 58 -5 84 -15s48.667 -24 68 -42zM53 924c72.667 0 143.503 -6.49805 212.503 -19.498s135 -31.833 198 -56.5s122.667 -54.834 179 -90.501s108.5 -75.834 156.5 -120.501c48 -45.333 90.667 -93.833 128 -145.5
s70 -107.5 98 -167.5c55.333 -118.667 83 -245.667 83 -381h-307c0 94.667 -18.833 184 -56.5 268s-91.834 159 -162.501 225s-151.334 116.667 -242.001 152s-186.334 53 -287.001 53v283zM53.0029 1432c221.333 0 428.667 -38.998 622 -116.998
c194 -78.667 363.667 -186 509 -322c146 -135.333 260.667 -292.666 344 -471.999c83.333 -180 125 -372.667 125 -578h-305c-0.666992 110.667 -16.5 217.167 -47.5 319.5s-74.667 198.166 -131 287.499s-124 170.666 -203 243.999s-166.333 136.166 -262 188.499
s-198.5 92.833 -308.5 121.5s-224.333 43 -343 43v285z" />
    <glyph glyph-name="s" unicode="s" 
d="M1585 573c22 -32 38.833 -66.501 50.5 -103.501s17.5 -75.5 17.5 -115.5c0 -57.333 -11.833 -111.333 -35.5 -162s-55.834 -94.834 -96.501 -132.501s-88.167 -67.5 -142.5 -89.5s-112.5 -33 -174.5 -33c-88 0 -166.333 21 -235 63
c-19.333 -2.66699 -38.833 -4.66699 -58.5 -6s-39.167 -2 -58.5 -2c-68.667 0 -134.5 8.16699 -197.5 24.5s-122 39.5 -177 69.5s-105.167 66 -150.5 108s-84.166 88.5 -116.499 139.5s-57.333 106 -75 165s-26.5 120.167 -26.5 183.5c0 19.333 1 37.5 3 54.5
s4.33301 34.167 7 51.5c-45.333 68.667 -68 142 -68 220c0 58 11.833 112.333 35.5 163s55.834 94.834 96.501 132.501s88.167 67.334 142.5 89.001s112.5 32.5 174.5 32.5c44 0 85.667 -5.33301 125 -16s76 -25.667 110 -45c19.333 2.66699 38.833 4.66699 58.5 6
s39.167 2 58.5 2c68 0 133.667 -8.16699 197 -24.5s122.5 -39.5 177.5 -69.5s105.167 -66.167 150.5 -108.5s84.166 -89 116.499 -140s57.333 -105.833 75 -164.5s26.5 -119.667 26.5 -183c0 -17.333 -0.833008 -35 -2.5 -53s-4.16699 -36.667 -7.5 -56zM1204 366.999
c31.333 41.333 46.9951 89 46.9951 143c0 43.333 -8.66699 80.333 -26 111c-18 30 -43.333 55 -76 75c-15.333 9.33301 -32.666 18.5 -51.999 27.5s-41 17.167 -65 24.5c-48 12 -99 24 -153 36l-59 14c-16.667 3.33301 -29.334 6.33301 -38.001 9
c-10.667 2.66699 -20.5 5.66699 -29.5 9s-18.167 7 -27.5 11c-18.667 8 -33.667 18.333 -45 31c-9.33301 11.333 -14 25.666 -14 42.999c0 25.333 15 48.666 45 69.999c35.333 19.333 77 28.666 125 27.999c56.667 0 96.667 -8.66699 120 -26
c13.333 -10.667 25.5 -22.167 36.5 -34.5s20.167 -26.166 27.5 -41.499c12.667 -20.667 26.334 -37 41.001 -49c12 -10 30.333 -15.667 55 -17c26 0 48 9 66 27c18 17.333 26.667 36.333 26 57c0 24.667 -6.66699 48.667 -20 72c-12.667 21.333 -34.667 44.666 -66 69.999
c-15.333 10.667 -32.166 20.5 -50.499 29.5s-38.833 16.833 -61.5 23.5c-23.333 6.66699 -47.833 11.667 -73.5 15s-54.5 5 -86.5 5c-79.333 0 -146.333 -10 -201 -30c-59.333 -21.333 -103.666 -50 -132.999 -86c-30 -35.333 -45 -77.666 -45 -126.999
c0 -52 14.333 -94.333 43 -127c29.333 -35.333 68.333 -62 117 -80c46.667 -19.333 106.667 -36.333 180 -51c28 -6.66699 52.333 -12.167 73 -16.5s39.334 -9.16602 56.001 -14.499c31.333 -8 56.666 -21.667 75.999 -41c20.667 -16.667 31 -38.334 31 -65.001
c0 -36 -18.667 -65.667 -56 -89c-36 -23.333 -83.667 -34.666 -143 -33.999c-48.667 0 -83.667 5.33301 -105 16c-28 12.667 -48.333 27.667 -61 45c-16 20 -29.667 42.667 -41 68c-9.33301 23.333 -22.333 41 -39 53c-15.333 12 -33.666 18 -54.999 18
c-28 0 -50.667 -7.33301 -68 -22c-18 -17.333 -26.667 -36.666 -26 -57.999c0 -38.667 14.333 -76.667 43 -114c30 -40 66.667 -70.667 110 -92c32.667 -16.667 69.334 -29 110.001 -37s86 -12.333 136 -13c79.333 0 151 11.667 215 35c61.333 27.333 107 60.333 137 99z
" />
    <glyph glyph-name="t" unicode="t" 
d="M1470 977c23.333 -9.33301 51.9932 -15.999 85.9932 -19.999c8 -0.666992 16 -1.16699 24 -1.5s15.667 -0.5 23 -0.5c18 0 34.667 1 50 3c-19.333 -18 -44 -33.667 -74 -47s-69 -20 -117 -20c-16.667 -61.333 -44 -118.166 -82 -170.499s-83.5 -98.666 -136.5 -138.999
s-112.333 -74.166 -178 -101.499s-134.5 -47 -206.5 -59c-55.333 -10 -110.666 -15 -165.999 -15c-42 0 -84 3 -126 9c-97.333 13.333 -190.666 42.666 -279.999 87.999c-90.667 47.333 -169.334 113.666 -236.001 198.999c38 -34 82.5 -60.167 133.5 -78.5
s103.5 -27.5 157.5 -27.5s107.5 9.83301 160.5 29.5s100.5 50.167 142.5 91.5c-4 -0.666992 -8 -1.16699 -12 -1.5s-8 -0.5 -12 -0.5c-14 0 -28 2.66699 -42 8s-25.333 12.833 -34 22.5s-13.167 20.334 -13.5 32.001s4.5 23.334 14.5 35.001s26.667 22.167 50 31.5
c-5.33301 -0.666992 -10.5 -1.16699 -15.5 -1.5s-10.167 -0.5 -15.5 -0.5c-7.33301 0 -14.666 0.333008 -21.999 1s-14.333 1.66699 -21 3c-34 6 -60.667 17.667 -80 35s-34.333 35 -45 53c13.333 12 28.166 21.167 44.499 27.5s38.5 10.166 66.5 11.499
c-61.333 12.667 -105 32.334 -131 59.001c-25.333 25.333 -41.666 55.333 -48.999 90c18 2.66699 36.167 5.83398 54.5 9.50098s32.833 4.16699 43.5 1.5c-52 26 -88.333 56.333 -109 91c-18 30.667 -27 59.334 -27 86.001c0 4.66699 0.333008 8.33398 1 11.001
c46.667 -16 89.667 -31.5 129 -46.5s75.5 -29.5 108.5 -43.5s63.5 -27.667 91.5 -41l80 -39c20 -8.66699 39.333 -20.667 58 -36l63 -54l46.5 105c16.333 35.333 34.5 69 54.5 101s42.333 61.333 67 88s52.667 48.667 84 66c-1.33301 -15.333 -9.33301 -30.333 -24 -45
c34.667 30 76.334 48.667 125.001 56c-3.33301 -15.333 -14.333 -28 -33 -38c-9.33301 -4.66699 -18.333 -8.83398 -27 -12.501s-16.667 -6.83398 -24 -9.50098c5.33301 1.33301 15.833 4.66602 31.5 9.99902s32.167 10.5 49.5 15.5s33.333 8.16699 48 9.5
s23.334 -1.33398 26.001 -8.00098c4 -8 1.66699 -14.833 -7 -20.5s-19.167 -10.5 -31.5 -14.5s-24.666 -7.33301 -36.999 -10s-20.5 -4.66699 -24.5 -6l-37 -13c3.33301 0.666992 7 1 11 1h11c30 0 60 -4.66699 90 -14c26 -8 51 -19.833 75 -35.5s46 -33.834 66 -54.501
s37.5 -43.334 52.5 -68.001s26.5 -50.334 34.5 -77.001l4 -16c0.666992 -2.66699 1.33398 -5.5 2.00098 -8.5s1.33398 -6.16699 2.00098 -9.5c14 -5.33301 30.167 -8 48.5 -8s36.5 1.33301 54.5 4s34.833 6.33398 50.5 11.001s27.5 9 35.5 13
c-10.667 -26 -31 -47.833 -61 -65.5s-68 -27.834 -114 -30.501z" />
    <glyph glyph-name="u" unicode="u" 
d="M457 1366c15.333 11.333 32.8369 20.9961 52.5039 28.9961s40 14.833 61 20.5s42.167 9.83398 63.5 12.501s41.333 4.33398 60 5.00098h15c19.333 0 35.666 -1 48.999 -3c32 -5.33301 56 -15.666 72 -30.999s24 -33 24 -53l4 -517c0 -20.667 -4.83301 -39 -14.5 -55
s-21.834 -25.667 -36.501 -29c-6.66699 -1.33301 -14.334 -0.833008 -23.001 1.5s-17.167 6 -25.5 11s-16.333 11.167 -24 18.5s-14.167 15.666 -19.5 24.999l-291 442c-6 8.66699 -12.333 16.5 -19 23.5s-10.334 14.833 -11.001 23.5s3.33301 18.834 12 30.501
s25.667 26.834 51 45.501zM360.004 384.996l292.997 95.999c20.667 6.66699 38.834 18.334 54.501 35.001s24.834 33 27.501 49c2.66699 14.667 -3 30.667 -17 48c-13.333 17.333 -29.333 30 -48 38l-312 113c-19.333 8 -39 4 -59 -12
c-19.333 -15.333 -32.333 -37.333 -39 -66c-1.33301 -18.667 -2.33301 -36.5 -3 -53.5s-1 -33.833 -1 -50.5c-0.666992 -9.33301 -1 -18.5 -1 -27.5v-27.5v-26c0.666992 -13.333 1.33398 -24.833 2.00098 -34.5s1.66699 -17.167 3 -22.5c4 -20 16.667 -36.667 38 -50
c13.333 -8.66699 27 -13 41 -13c8 0 15 1.33301 21 4zM872.001 335.995c0 20.667 -4.99609 38.5039 -14.9961 53.5039s-22.667 23.167 -38 24.5c-8 1.33301 -16.5 0.833008 -25.5 -1.5s-18 -6 -27 -11s-17.833 -10.833 -26.5 -17.5s-16.334 -14 -23.001 -22l-205 -227
c-6.66699 -7.33301 -11 -17.333 -13 -30l-2 -15c0 -6.66699 1 -13.334 3 -20.001c2.66699 -12 7 -22.833 13 -32.5s14.667 -16.834 26 -21.501l213 -67c5.33301 -2.66699 11.666 -4 18.999 -4c3.33301 0 8.33301 0.666992 15 2c9.33301 2 18.666 5.16699 27.999 9.5
s17.666 9.66602 24.999 15.999s13.333 13.166 18 20.499s7 15 7 23zM1380 388.999l-256.001 70c-18 4.66699 -36.667 7 -56 7h-7c-21.333 -1.33301 -35 -5 -41 -11c-8 -6.66699 -11.333 -18.334 -10 -35.001s7.33301 -33.667 18 -51l162 -277c4.66699 -8 13 -14 25 -18
c10 -2.66699 20.667 -4.66699 32 -6c2.66699 0 4.33398 0.333008 5.00098 1c12.667 0.666992 25.334 3.66699 38.001 9s21.667 12 27 20c18.667 24.667 35.667 48.667 51 72c13.333 19.333 26.166 39.5 38.499 60.5s21.5 37.833 27.5 50.5c4 10.667 6 21.334 6 32.001
c0 14 -3.33301 26.333 -10 37c-13.333 21.333 -30 34.333 -50 39zM1444 775.999c-3.33301 8 -10.3359 20.001 -21.0029 36.001l-35 50c-12.667 18 -26.667 34.833 -42 50.5s-28.333 27.5 -39 35.5c-20.667 17.333 -40.667 26 -60 26h-6
c-21.333 -2 -39.666 -10.667 -54.999 -26l-164 -182c-16 -16 -25.333 -34 -28 -54c-0.666992 -2.66699 -1 -5.33398 -1 -8.00098v-8c0 -14.667 3.66699 -27.667 11 -39c11.333 -15.333 27.333 -26 48 -32c6.66699 -2 13.334 -3.5 20.001 -4.5s13.334 -1.83301 20.001 -2.5
c8 0 16 1 24 3l285 49c26 6.66699 41 21.667 45 45c2 10 3 19.333 3 28c0 10.667 -1.66699 21.667 -5 33z" />
    <glyph glyph-name="v" unicode="v" 
d="M1419 1434c154 -4 231.667 -91.9971 233 -263.997v-17c0 -6 -0.333008 -12 -1 -18c-7.33301 -147.333 -116 -346 -326 -596c-216.667 -262.667 -401 -394.667 -553 -396c-93.333 0 -171.666 80.667 -234.999 242l-66 221l-65 221c-48 160 -99.333 240 -154 240
c-12.667 0 -54.334 -23.333 -125.001 -70l-76 90l118 98l116 97c104 82.667 183 127.667 237 135c3.33301 0.666992 7 1 11 1h11c111.333 0 180.666 -80 207.999 -240l38 -223c10 -56.667 18.333 -96.334 25 -119.001c37.333 -151.333 77 -227.333 119 -228
c32.667 0 83 49.333 151 148c66 100 101.667 175 107 225c0.666992 5.33301 1.16699 10.166 1.5 14.499s0.5 8.83301 0.5 13.5c0 66 -36.333 99 -109 99c-36 0 -75.333 -7.66699 -118 -23c74.667 231.333 219.334 347.666 434.001 348.999h18z" />
    <glyph glyph-name="w" unicode="w" 
d="M51 688c0 68 9.5 133.667 28.5 197s46 122.5 81 177.5s76.833 105.167 125.5 150.5s102.667 84.333 162 117s123.166 57.834 191.499 75.501s139.166 26.5 212.499 26.5s144.166 -8.83301 212.499 -26.5s132.166 -42.834 191.499 -75.501s113.333 -71.667 162 -117
s90.5 -95.5 125.5 -150.5s62 -114.167 81 -177.5s28.5 -129 28.5 -197c0 -68.667 -9.5 -134.667 -28.5 -198s-45.833 -122.666 -80.5 -177.999s-76.5 -105.833 -125.5 -151.5s-103.167 -84.667 -162.5 -117s-123.166 -57.333 -191.499 -75s-139.166 -26.167 -212.499 -25.5
c-73.333 -0.666992 -144.166 7.83301 -212.499 25.5s-132.166 42.667 -191.499 75s-113.5 71.333 -162.5 117s-90.833 96.167 -125.5 151.5s-61.5 114.666 -80.5 177.999s-28.5 129.333 -28.5 198zM113 688c0 -68 10 -133.332 30 -195.999s48.333 -120.834 85 -174.501
s80.5 -101.5 131.5 -143.5s107.167 -76.667 168.5 -104l-352 897c-42 -89.333 -63 -182.333 -63 -279zM852 0.000976562c44 0 86 3.33203 126 9.99902s80 16.334 120 29.001l-6 10l-228 578l-221 -598c70 -19.333 139.667 -29 209 -29zM1223 94
c54.667 30 104.5 65.833 149.5 107.5s83.667 88 116 139s57.5 105.833 75.5 164.5s27 119.667 27 183c0 118.667 -30.667 228.667 -92 330c4 -23.333 6 -47.333 6 -72c0 -36 -4 -73.5 -12 -112.5s-23 -83.5 -45 -133.5zM1290 911c-19.333 28.667 -36.3311 55.667 -50.998 81
s-22 52.333 -22 81c0 31.333 11.333 59.333 34 84s52.667 37 90 37h9c-66 58 -141.167 102.5 -225.5 133.5s-175.166 46.5 -272.499 46.5c-130 0 -249 -28 -357 -84c-108 -56.667 -195.333 -131.667 -262 -225c9.33301 0 18.166 -0.333008 26.499 -1s16.166 -1 23.499 -1
c19.333 0 40.5 0.333008 63.5 1s44.167 1.66699 63.5 3c22.667 0.666992 45.667 2.66699 69 6c9.33301 0 16.833 -2.66699 22.5 -8s8.83398 -11.5 9.50098 -18.5s-1.33301 -13.5 -6 -19.5s-12 -9.66699 -22 -11c-4 0 -8 -0.166992 -12 -0.5s-8 -0.833008 -12 -1.5
c-8 -1.33301 -17.167 -2.33301 -27.5 -3s-21.166 -1 -32.499 -1l269 -744l161 451l-114 293c-10.667 0 -20.834 0.333008 -30.501 1s-18.167 1.66699 -25.5 3c-4 0.666992 -7.83301 1.16699 -11.5 1.5s-7.16699 0.5 -10.5 0.5c-10 0 -17.167 3 -21.5 9
s-6.33301 12.5 -6 19.5s3.16602 13.5 8.49902 19.5s13 9 23 9c22.667 -2.66699 46 -4.66699 70 -6c19.333 -1.33301 40.166 -2.33301 62.499 -3s43.166 -1 62.499 -1s40.5 0.333008 63.5 1s44.833 1.66699 65.5 3c22.667 0.666992 45.667 2.66699 69 6
c9.33301 0 16.833 -2.66699 22.5 -8s8.83398 -11.5 9.50098 -18.5s-1.33301 -13.5 -6 -19.5s-12 -9.66699 -22 -11c-4 0 -8.16699 -0.166992 -12.5 -0.5s-8.83301 -0.833008 -13.5 -1.5c-8 -1.33301 -16.833 -2.33301 -26.5 -3s-20.167 -1 -31.5 -1l267 -740l73 230
c18.667 45.333 32.5 86.333 41.5 123s13.833 70 14.5 100c0 20.667 -1.83301 40 -5.5 58s-8.5 34.667 -14.5 50s-12.5 29.5 -19.5 42.5z" />
    <glyph glyph-name="x" unicode="x" 
d="M645 1434l213 -672.001l213 672h154h364v-68l-188 -348c38 -10.667 73.833 -26.667 107.5 -48s59.834 -47 78.501 -77c19.333 -30 35.166 -62.667 47.499 -98s18.5 -73 18.5 -113c0 -50.667 -6.5 -96.667 -19.5 -138s-33.833 -80 -62.5 -116
c-57.333 -68 -130.333 -102 -219 -102c-68 0 -127.333 20.333 -178 61s-88.334 95.334 -113.001 164.001l121 47c16.667 -40 39.667 -72.667 69 -98c28.667 -24.667 63 -37 103 -37c42 0 76 21 102 63c28.667 41.333 43 93.333 43 156c0 32.667 -3.66699 65 -11 97
s-18.666 57.667 -33.999 77c-18 22 -40.5 41.5 -67.5 58.5s-59.833 25.5 -98.5 25.5h-100v25l248 346h-248h-14l-302 -928h-14l-221 686l-219 -686h-15l-352 1051h156l211 -674l143 454l-69 220h153z" />
    <glyph glyph-name="y" unicode="y" 
d="M1313 346h-88l2 49c0 10.667 4 19.5 12 26.5s17.667 10.5 29 10.5h4c12 0 22.167 -3.33301 30.5 -10s12.5 -15.667 12.5 -27zM983 449c10.667 0 20.167 -3.16699 28.5 -9.5s12.5 -13.5 12.5 -21.5v-232c0 -8 -4.16699 -15 -12.5 -21s-17.833 -9 -28.5 -9
s-20.167 3 -28.5 9s-12.5 13 -12.5 21v232c0 8 4.16699 15.167 12.5 21.5s17.833 9.5 28.5 9.5zM1520 578v-439c0 -26.667 -5.83301 -51.667 -17.5 -75s-27.5 -43.666 -47.5 -60.999s-43.333 -31 -70 -41s-55 -15 -85 -15h-897c-30 0 -58.167 5 -84.5 15
s-49.5 23.667 -69.5 41s-35.833 37.666 -47.5 60.999s-17.5 48.333 -17.5 75v439c0 26 5.83301 50.667 17.5 74s27.5 43.833 47.5 61.5s43.167 31.5 69.5 41.5s54.5 15 84.5 15h897c30 0 58.333 -5 85 -15s50 -23.833 70 -41.5s35.833 -38.167 47.5 -61.5s17.5 -48 17.5 -74
zM463 90v463h110v70h-297v-68h95v-465h92zM797 485l-92 0.00195312v-247c0 -18 0.333008 -31.833 1 -41.5s-0.666016 -15.834 -3.99902 -18.501c-3.33301 -11.333 -11.333 -19.333 -24 -24c-12 -4.66699 -21.667 2.66602 -29 21.999
c-1.33301 2.66699 -1.66602 9.16699 -0.999023 19.5s1 23.833 1 40.5l-2 249h-92l2 -245c0 -19.333 -0.333008 -35.5 -1 -48.5s-0.333984 -22.833 0.999023 -29.5c1.33301 -10.667 2.66602 -22.167 3.99902 -34.5s7.66602 -22.166 18.999 -29.499
c10.667 -6.66699 23.167 -10 37.5 -10s28.333 2.33301 42 7s26.334 11.167 38.001 19.5s20.167 17.166 25.5 26.499l-2 -49l76 -2v395zM1094 203.002l-0.000976562 205c0 38.667 -14 66.667 -42 84c-9.33301 5.33301 -20 8 -32 8c-22 0 -47.333 -10.333 -76 -31v154h-92
v-529l76 2l6 33c24.667 -20.667 46.834 -33.167 66.501 -37.5s36.5 -2.5 50.5 5.5s24.667 21.333 32 40s11 40.667 11 66zM1384 229.002l-68.999 0.000976562v-10v-35c0 -10.667 -3.83301 -19 -11.5 -25s-16.834 -9 -27.501 -9h-14c-10.667 0 -19.5 3 -26.5 9
s-10.5 14.333 -10.5 25v4v39v52h159v55c0 20.667 -0.333008 40.5 -1 59.5s-2.33398 33.833 -5.00098 44.5c-2.66699 18 -10.834 32.5 -24.501 43.5s-29.667 18.5 -48 22.5s-37 4.66699 -56 2s-35.5 -9 -49.5 -19c-18 -12 -31 -28.333 -39 -49c-8 -21.333 -12 -50 -12 -86
v-123c0 -52 13.667 -89 41 -111c24.667 -20.667 51.334 -31 80.001 -31h8c32 2 59.667 15.333 83 40c18 18 27 41.667 27 71c-0.666992 4.66699 -1.16699 9.66699 -1.5 15s-1.16602 10.666 -2.49902 15.999zM1026 895.003c-2.66699 5.33301 -4.33203 10.832 -4.99902 16.499
s-1.66699 11.167 -3 16.5c-0.666992 3.33301 -1.16699 7.33301 -1.5 12s-0.5 9.66699 -0.5 15v44v275h86v-318c0 -8 3 -15 9 -21s14 -9 24 -9c9.33301 0 17.333 3 24 9s10 13 10 21v318h80v-408h-102l2 33c-4.66699 -6.66699 -9.16699 -12.667 -13.5 -18
s-8.83301 -9.66602 -13.5 -12.999c-10.667 -6.66699 -22.334 -10 -35.001 -10c-16 0 -28.667 3.33301 -38 10c-8 5.33301 -15.667 14.333 -23 27zM713.002 1126c0 38 3.33398 68.332 10.001 90.999c8 24 21 41.667 39 53c18.667 13.333 41.667 20 69 20
c24 0 44.667 -4 62 -12c16.667 -6.66699 30.334 -18.334 41.001 -35.001c8 -12 14 -25.667 18 -41c4 -17.333 6 -39.666 6 -66.999v-105c0 -38 -2 -65.333 -6 -82c-0.666992 -14.667 -7.33398 -31.667 -20.001 -51c-12 -17.333 -25 -28.333 -39 -33
c-17.333 -8 -36.333 -12 -57 -12c-22.667 0 -42.667 3.33301 -60 10c-16.667 4.66699 -29 14.334 -37 29.001c-8.66699 12 -15.334 27 -20.001 45c-4 18 -6 45.333 -6 82v108zM795.003 963.001c0 -10.667 4 -20.167 12 -28.5s17.667 -12.5 29 -12.5
c10.667 0 20.167 4 28.5 12s12.5 17.667 12.5 29v217c0 12 -4.16699 22.167 -12.5 30.5s-17.833 12.5 -28.5 12.5s-20.167 -4.16699 -28.5 -12.5s-12.5 -18.5 -12.5 -30.5v-217zM508.003 1167l-123 269h107l61 -201l61 201h107l-115 -269v-313h-98v313z" />
    <glyph glyph-name="z" unicode="z" 
d="M1350 272c10.667 -6.66699 20.8301 -17.5 30.4971 -32.5s14.5 -32.833 14.5 -53.5c0 -28.667 -10.667 -57.334 -32 -86.001s-49.333 -54.667 -84 -78s-74.167 -42.333 -118.5 -57s-89.166 -22 -134.499 -22c-28 0.666992 -53.833 3.33398 -77.5 8.00098
s-46.667 13.667 -69 27s-44.833 31.666 -67.5 54.999s-47.334 53.666 -74.001 90.999s-56 82.666 -88 135.999l-109 189c-11.333 -9.33301 -24 -18.5 -38 -27.5s-29 -17.167 -45 -24.5c-31.333 -14.667 -59 -22 -83 -22c-10 0 -19 2 -27 6s-14.833 10.833 -20.5 20.5
s-10.167 23 -13.5 40s-5 38.5 -5 64.5c0 25.333 4 53.166 12 83.499s20.833 58.833 38.5 85.5s40 48.834 67 66.501s59.5 26.5 97.5 26.5c23.333 0 44.166 -4.16699 62.499 -12.5s40.5 -22.5 66.5 -42.5l53 40.5l56 46.5l112 102c36.667 34.667 70.5 68.834 101.5 102.501
s56.167 62.834 75.5 87.501c-74.667 20.667 -140.5 37.667 -197.5 51s-103.833 20 -140.5 20c-15.333 0 -33.666 -3 -54.999 -9s-46 -16.667 -74 -32c-46.667 10.667 -70 47 -70 109c0 26 5.33301 51.167 16 75.5s25.334 45.833 44.001 64.5s40.667 33.5 66 44.5
s52.333 16.5 81 16.5c44 0 90.667 -4.66699 140 -14s107.333 -25 174 -47l157 -52c16.667 23.333 31.334 41.5 44.001 54.5s26.667 19.5 42 19.5c16 0 30.833 -4.16699 44.5 -12.5s25.834 -18.666 36.501 -30.999s19 -26 25 -41s9 -29.167 9 -42.5
c0 -31.333 -13.333 -64.5 -40 -99.5s-72 -72.167 -136 -111.5c-37.333 -49.333 -73.166 -93.5 -107.499 -132.5s-69.5 -76.167 -105.5 -111.5s-74 -70 -114 -104l-132 -109l86.5 -118l70 -92l56 -68.5c16.333 -19 31.166 -35.167 44.499 -48.5c26 -26 48.333 -42.667 67 -50
c18 -6.66699 37.667 -10 59 -10c62 0 131.667 20.333 209 61z" />
    <glyph glyph-name="braceleft" unicode="{" horiz-adv-x="1707" 
d="M318 218c-2.66699 0.666992 -5.83008 2.49805 -9.49707 5.49805s-6.5 9.83301 -8.5 20.5v20v124c0 4 0.666992 8 2 12c1.33301 3.33301 2.66602 7 3.99902 11s3.66602 7.66699 6.99902 11l296 349.5l296 349.5c-76 -15.333 -138.667 -23.333 -188 -24
s-88.833 2.33301 -118.5 9s-51.334 14.834 -65.001 24.501s-22.5 17.5 -26.5 23.5l-1 1l-3 6c-3.33301 8.66699 -5.16602 19 -5.49902 31s0.166992 21.333 1.5 28c3.33301 30.667 12.166 60 26.499 88s30.166 54 47.499 78c3.33301 3.33301 6.33301 6.83301 9 10.5l8 10.5
c3.33301 3.33301 8.5 6 15.5 8s15.5 0.333008 25.5 -5l20.5 -11l11.5 -6c35.333 -14 72 -23.5 110 -28.5s76 -8.16699 114 -9.5c68 -3.33301 135.5 -1.83301 202.5 4.5s133.833 16.166 200.5 29.499c6 1.33301 11 1.33301 15 0c3.33301 -1.33301 6.5 -3.5 9.5 -6.5
s3.83301 -8.16699 2.5 -15.5l-15 -129c0 -3.33301 -1.66699 -7.16602 -5 -11.499s-7.16602 -8.5 -11.499 -12.5l-12.5 -12l-9 -9l-122 -141.5l-122 -141.5l-288 -333l-91 -106l-13 -16c-3.33301 -4 -5.66602 -8 -6.99902 -12s-2.16602 -8.66699 -2.49902 -14
s-0.5 -12.666 -0.5 -21.999c40 2 79.667 -4.5 119 -19.5s76 -33.167 110 -54.5l88 -54c25.333 -14.667 52.333 -29.167 81 -43.5s55 -25.5 79 -33.5c25.333 -7.33301 51.166 -12.666 77.499 -15.999s52.166 -4 77.499 -2s49.666 7.16699 72.999 15.5s45 20.5 65 36.5
c4.66699 -23.333 6.66699 -48.333 6 -75s-4.16699 -53 -10.5 -79s-15.666 -50.667 -27.999 -74s-27.5 -43.5 -45.5 -60.5s-38.833 -29.833 -62.5 -38.5s-50.5 -11.334 -80.5 -8.00098c-44.667 5.33301 -88.167 18.166 -130.5 38.499s-82.5 41.5 -120.5 63.5
c-20 12 -39.333 24.833 -58 38.5l-56 41.5l-56.5 41c-19 13.333 -38.833 25.333 -59.5 36c-26.667 14 -53 24.833 -79 32.5s-52 13.334 -78 17.001s-52.667 6 -80 7s-55.333 1.5 -84 1.5h-47v0z" />
    <glyph glyph-name="bar" unicode="|" horiz-adv-x="1707" 
d="M1658 1157l-232.002 -0.00195312c-11.333 0 -22.666 -3.5 -33.999 -10.5s-21.5 -16.833 -30.5 -29.5s-16.333 -27.5 -22 -44.5s-8.5 -35.5 -8.5 -55.5v-137h274v-274h-274v-684h-273v684h-411v-684h-273v684h-274v274h274v137c0 56.667 9.66699 109.834 29 159.501
s45.666 93 78.999 130s72.333 66.333 117 88s92.334 32.5 143.001 32.5h232v-270h-232c-11.333 0 -22.666 -3.5 -33.999 -10.5s-21.5 -16.833 -30.5 -29.5s-16.333 -27.5 -22 -44.5s-8.5 -35.5 -8.5 -55.5v-137h411v137c0 56.667 9.66699 109.834 29 159.501
s45.666 93 78.999 130s72.333 66.333 117 88s92.334 32.5 143.001 32.5h232v-270z" />
    <glyph glyph-name="braceright" unicode="}" horiz-adv-x="1707" 
d="M277 1436h998l77 -77v-606l230 529v-460l-230 -461v-384l-77 -77h-921l-77 77v153h845v231h-845l-77 77v921zM1122 591v615h-692v-615h692z" />
    <glyph glyph-name="asciitilde" unicode="~" horiz-adv-x="1707" 
d="M735 1220c22.667 -20 42.001 -42.998 58.001 -68.998s28 -53.833 36 -83.5s11.833 -60 11.5 -91s-4.83301 -60.833 -13.5 -89.5c-6.66699 -17.333 -16.667 -31.833 -30 -43.5s-28.333 -20.334 -45 -26.001s-34.334 -8.33398 -53.001 -8.00098s-36.167 3.5 -52.5 9.5
s-31 15 -44 27s-22.5 27 -28.5 45c-9.33301 26.667 -15.333 54.834 -18 84.501s-1.66699 59 3 88s13.167 56.833 25.5 83.5s28.5 50.667 48.5 72c14 14.667 31 22.667 51 24s37 -6.33398 51 -23.001zM976.001 1324c22.667 3.33301 42.3311 0 58.998 -10
s30.834 -23.333 42.501 -40s20.834 -35.334 27.501 -56.001s11.334 -40 14.001 -58c4 -27.333 6.66699 -56.833 8 -88.5s-1.16699 -62.167 -7.5 -91.5s-17.333 -56 -33 -80s-38.5 -42 -68.5 -54c-26.667 0.666992 -48.5 8.33398 -65.5 23.001s-30.5 32.5 -40.5 53.5
s-17.333 43.833 -22 68.5s-8 47.334 -10 68.001c-1.33301 23.333 -1.5 48.166 -0.5 74.499s4.66699 51.833 11 76.5s16.166 47 29.499 67s32 35.667 56 47zM1445 1167c17.333 -7.33301 31.167 -17.834 41.5 -31.501s18.5 -29 24.5 -46s10 -34.667 12 -53s3 -35.833 3 -52.5
c-2 -79.333 -16.5 -157.5 -43.5 -234.5s-63.833 -148 -110.5 -213s-102.334 -121.667 -167.001 -170s-135.667 -83.5 -213 -105.5c-46.667 -13.333 -94.667 -20.833 -144 -22.5s-98.166 1.83301 -146.499 10.5s-95.333 22.334 -141 41.001s-88.5 42.167 -128.5 70.5
s-76.167 60.833 -108.5 97.5s-59.5 77.667 -81.5 123c-8.66699 16 -15.5 32.333 -20.5 49s-9 33.5 -12 50.5s-5.66699 34.167 -8 51.5s-4.83301 34.666 -7.5 51.999c-0.666992 1.33301 -1 2.5 -1 3.5s-0.333008 2.16699 -1 3.5c-1.33301 8 -2.83301 21.667 -4.5 41
s-2 40.5 -1 63.5s4.33301 45.833 10 68.5s15.667 41.334 30 56.001s33.833 23.5 58.5 26.5s56.334 -3.83301 95.001 -20.5c23.333 -30.667 42 -63.834 56 -99.501s26.667 -72.334 38 -110.001l35 -112c12 -37 28 -71.833 48 -104.5c19.333 -34 45.666 -61.333 78.999 -82
s69 -34 107 -40c35.333 -6 70.333 -6.16699 105 -0.5s68 15.834 100 30.501s62.167 33.167 90.5 55.5s53.5 46.833 75.5 73.5c27.333 35.333 48.5 73.333 63.5 114s27.833 82 38.5 124l32.5 126.5c11 42.333 26.167 82.833 45.5 121.5c6 15.333 14.833 26.833 26.5 34.5
s24.5 12.834 38.5 15.501s28.667 3.16699 44 1.5s29.333 -4.16699 42 -7.5z" />
    <glyph glyph-name="uni00A0" unicode="&#xa0;" horiz-adv-x="1024" 
 />
    <glyph glyph-name="cent" unicode="&#xa2;" 
d="M1416 589c2 -14 3.66504 -28.3359 4.99805 -43.0029s2 -29.667 2 -45c0 -88 -17.333 -170.5 -52 -247.5s-82 -144.167 -142 -201.5s-130.167 -102.666 -210.5 -135.999s-166.166 -50 -257.499 -50c-60.667 0 -119.167 7.5 -175.5 22.5s-109 36.333 -158 64
s-93.667 60.834 -134 99.501s-74.833 81.5 -103.5 128.5s-50.834 97.5 -66.501 151.5s-23.5 110.333 -23.5 169s7.83301 115 23.5 169s37.834 104.5 66.501 151.5s63.167 89.833 103.5 128.5s85 71.834 134 99.501s101.667 49 158 64s114.833 22.5 175.5 22.5
c36 0 71.167 -2.66699 105.5 -8s67.833 -13 100.5 -23v-384c-39.333 18.667 -79.666 31.334 -120.999 38.001c-18 2.66699 -37 4.16699 -57 4.5s-40.833 -1.5 -62.5 -5.5s-43.667 -10.333 -66 -19s-44.5 -21 -66.5 -37c-44.667 -32 -77 -63.333 -97 -94
s-33.667 -58.334 -41 -83.001c-8 -28.667 -9.66699 -56 -5 -82c4 -39.333 15.667 -74.333 35 -105c8 -13.333 18.333 -26.333 31 -39s27.834 -23.834 45.501 -33.501s38.334 -17.5 62.001 -23.5s51.167 -9 82.5 -9c34.667 0 66.334 3.66699 95.001 11s54.667 16.833 78 28.5
s44.166 25 62.499 40s34.166 30.5 47.499 46.5c32 36.667 56.667 79 74 127v580c27.333 -13.333 53.333 -28.166 78 -44.499s49 -34.166 73 -53.499c60 -36.667 121 -65.667 183 -87s128.333 -31 199 -29c4.66699 0 9 -1.33301 13 -4
c3.33301 -2.66699 6.5 -7.33398 9.5 -14.001s4.5 -16.667 4.5 -30c0 -14.667 -2.83301 -30 -8.5 -46s-15.834 -32 -30.501 -48c-11.333 -16 -25.333 -31.333 -42 -46c-14 -12.667 -31.5 -26 -52.5 -40s-45.833 -25.667 -74.5 -35z" />
    <glyph glyph-name="sterling" unicode="&#xa3;" 
d="M155 804c8.66699 30 20.499 54.3242 35.499 72.9912s30 33.334 45 44.001s28.833 18 41.5 22s21 6.33301 25 7c23.333 54.667 54.333 105 93 151s82.667 85.667 132 119s103.5 59.166 162.5 77.499s120.833 27.5 185.5 27.5s126.667 -9.16699 186 -27.5
s113.833 -44.166 163.5 -77.499s93.667 -73.166 132 -119.499s69.166 -97.166 92.499 -152.499c2 0 5 -0.666992 9 -2v297c-16.667 6.66699 -30.167 17.334 -40.5 32.001s-15.5 31.334 -15.5 50.001c0 25.333 8.83301 46.666 26.5 63.999s39.167 26 64.5 26
s46.833 -8.66699 64.5 -26s26.5 -38.666 26.5 -63.999c0 -21.333 -6.66699 -39.833 -20 -55.5s-30 -26.167 -50 -31.5v-320c14.667 -10.667 29 -25 43 -43s25.333 -41.667 34 -71c5.33301 -28 8.33301 -54 9 -78c0.666992 -20.667 -0.833008 -41.167 -4.5 -61.5
s-11.834 -35.166 -24.501 -44.499c-5.33301 -6 -12.333 -12.667 -21 -20c-7.33301 -6 -17.166 -12.667 -29.499 -20s-27.166 -14.333 -44.499 -21c-2.66699 -10 -5.66699 -20.167 -9 -30.5s-6.66602 -20.166 -9.99902 -29.499c-13.333 -2.66699 -27 -5.16699 -41 -7.5
s-28.667 -5.16602 -44 -8.49902c22 38 38.833 78.167 50.5 120.5s17.5 86.5 17.5 132.5c0 74 -15 143.333 -45 208s-70.667 121.167 -122 169.5s-111.666 86.5 -180.999 114.5s-143.333 42 -222 42s-152.667 -14 -222 -42s-129.666 -66.167 -180.999 -114.5
s-92 -104.833 -122 -169.5s-45 -134 -45 -208c0 -47.333 6.16699 -92.666 18.5 -135.999s29.833 -84.333 52.5 -123c-13.333 3.33301 -26 6.16602 -38 8.49902s-24 4.5 -36 6.5c-4.66699 10.667 -8.66699 21.334 -12 32.001l-10 33h-1
c-18.667 6.66699 -34.334 13.834 -47.001 21.501s-23 14.5 -31 20.5c-9.33301 7.33301 -16.666 14.333 -21.999 21c-12.667 9.33301 -20.834 24.166 -24.501 44.499s-4.83398 40.833 -3.50098 61.5c0.666992 24 3.66699 50 9 78zM856.999 146.991
c-27.333 32.667 -58.9971 61.834 -94.9971 87.501s-74.333 48.334 -115 68.001s-82.334 36.5 -125.001 50.5s-84.334 26 -125.001 36c-95.333 22.667 -194.333 37.667 -297 45v-201c60.667 -0.666992 118.167 -5.83398 172.5 -15.501s104.833 -22.334 151.5 -38.001
s89.834 -33.5 129.501 -53.5s75.5 -40.333 107.5 -61c75.333 -48.667 140.666 -103.667 195.999 -165c54.667 61.333 120 116.333 196 165c32 20.667 67.833 41 107.5 61s83 37.833 130 53.5s97.5 28.334 151.5 38.001s111.667 14.834 173 15.501v201
c-102.667 -7.33301 -201.667 -22.333 -297 -45c-40.667 -10 -82.334 -22 -125.001 -36s-84.334 -30.833 -125.001 -50.5s-79.167 -42.334 -115.5 -68.001s-68.166 -54.834 -95.499 -87.501zM1373 643.991c0 -32 -2.83203 -62.834 -8.49902 -92.501
s-14.167 -58.5 -25.5 -86.5c-41.333 -9.33301 -84.333 -21 -129 -35s-88.334 -31 -131.001 -51s-83.167 -43.167 -121.5 -69.5s-71.833 -56.833 -100.5 -91.5c-27.333 32.667 -59.166 62 -95.499 88s-74.833 48.833 -115.5 68.5s-82.334 36.5 -125.001 50.5
s-84.334 26 -125.001 36c-11.333 28 -20 57.333 -26 88s-9 62.334 -9 95.001c0 68.667 13.167 133.334 39.5 194.001s62.5 113.5 108.5 158.5s99.667 80.5 161 106.5s127 39 197 39s135.667 -13 197 -39s114.833 -61.5 160.5 -106.5s81.834 -97.833 108.501 -158.5
s40 -125.334 40 -194.001zM628.003 722.99c0 15.333 -5.5 28.5 -16.5 39.5s-24.5 16.5 -40.5 16.5c-15.333 0 -28.5 -5.5 -39.5 -16.5s-16.5 -24.167 -16.5 -39.5s5.5 -28.5 16.5 -39.5s24.167 -16.5 39.5 -16.5c16 0 29.5 5.5 40.5 16.5s16.5 24.167 16.5 39.5z
M763.003 863.99c0 24 -8.5 44.333 -25.5 61s-37.833 25 -62.5 25c-24 0 -44.5 -8.33301 -61.5 -25s-25.5 -37 -25.5 -61s8.5 -44.333 25.5 -61s37.5 -25 61.5 -25c24.667 0 45.5 8.33301 62.5 25s25.5 37 25.5 61z" />
    <glyph glyph-name="yen" unicode="&#xa5;" 
d="M889 818c48 -5.33301 97.4961 -17.166 148.496 -35.499s97.833 -44.666 140.5 -78.999s77.667 -77.666 105 -129.999s41 -114.833 41 -187.5c0 -64.667 -12.5 -126.334 -37.5 -185.001s-60.333 -110.334 -106 -155.001s-100.834 -80.167 -165.501 -106.5
s-137 -39.5 -217 -39.5c-39.333 0 -76.666 3 -111.999 9s-68.333 13.667 -99 23s-59 20.166 -85 32.499s-49.667 24.833 -71 37.5c-50 30 -93.667 64.333 -131 103l113 152c30.667 -31.333 65.334 -59.333 104.001 -84c33.333 -21.333 72.833 -40.5 118.5 -57.5
s96.167 -25.5 151.5 -25.5c42.667 0 83.167 7.16699 121.5 21.5s71.833 34.166 100.5 59.499s51.334 55.5 68.001 90.5s25 73.5 25 115.5c0 44.667 -8.83301 84.5 -26.5 119.5s-41.834 64.333 -72.501 88s-66.667 41.667 -108 54s-85.333 18.5 -132 18.5
c-20.667 0 -39.667 -0.333008 -57 -1s-28.666 -1.66699 -33.999 -3l-50 111l374 443c6 7.33301 12.333 14.333 19 21s13 12.667 19 18c6.66699 6 13.334 11.667 20.001 17v4c-8.66699 -1.33301 -17.667 -2.33301 -27 -3c-8 -1.33301 -16.667 -2.16602 -26 -2.49902
s-17.666 -0.5 -24.999 -0.5h-428v-193h-189v368h937v-148l-407 -470v0z" />
    <glyph glyph-name="section" unicode="&#xa7;" horiz-adv-x="1707" 
d="M1194 152c10 -23.333 24.499 -42.9971 43.499 -58.9971s38.167 -29 57.5 -39c22 -12 46 -21.333 72 -28v-116c-52 -10 -97.333 -12.667 -136 -8s-72.5 14.5 -101.5 29.5s-54 34.333 -75 58s-39.5 50.167 -55.5 79.5c-25.333 -6 -51.166 -10.667 -77.499 -14
s-53.5 -5 -81.5 -5c-62 0 -121.667 8.16699 -179 24.5s-111 39.166 -161 68.499s-95.333 64.833 -136 106.5s-75.667 87.667 -105 138s-52 104.666 -68 162.999s-24 118.833 -24 181.5s8 123.167 24 181.5s38.667 112.833 68 163.5s64.333 96.667 105 138
s86 76.833 136 106.5s103.667 52.667 161 69s117 24.5 179 24.5s121.667 -8.16699 179 -24.5s111 -39.333 161 -69s95.5 -65.167 136.5 -106.5s76.167 -87.333 105.5 -138s52 -105.167 68 -163.5s24 -118.833 24 -181.5c0 -61.333 -7.66699 -120.333 -23 -177
s-37 -109.834 -65 -159.501s-61.667 -95.167 -101 -136.5s-83 -77 -131 -107zM1189 818.003c0 58.667 -9.00098 113.833 -27.001 165.5s-42.5 96.834 -73.5 135.501s-67.5 69.167 -109.5 91.5s-86.667 33.5 -134 33.5s-91.833 -11.167 -133.5 -33.5s-78 -52.833 -109 -91.5
s-55.5 -83.834 -73.5 -135.501s-27 -106.834 -27 -165.501v-176c0 -58.667 9 -113.834 27 -165.501s42.5 -96.667 73.5 -135s67.333 -68.666 109 -90.999s86.167 -33.5 133.5 -33.5c27.333 0 54 3.66699 80 11c-17.333 30 -35.833 53 -55.5 69s-37.834 28 -54.501 36
c-20 9.33301 -39.333 15 -58 17v134c36.667 2 71.334 -0.333008 104.001 -7s63.167 -16.167 91.5 -28.5s54.333 -27.166 78 -44.499s44.834 -36 63.501 -56c30 38.667 53.333 83 70 133s25 103.667 25 161v176z" />
    <glyph glyph-name="dieresis" unicode="&#xa8;" horiz-adv-x="1707" 
d="M96 457c0 26.667 5.5 51.166 16.5 73.499s26.167 41.833 45.5 58.5v-264c-19.333 16 -34.5 35.333 -45.5 58s-16.5 47.334 -16.5 74.001zM223 621.999c16 5.33301 31.999 8 47.999 8c8 0 13.667 -0.333008 17 -1v-345h-17c-8 0 -16.167 0.666992 -24.5 2
s-16.166 3 -23.499 5v331zM366.999 601.999c8 43.333 25.667 82.665 53 117.998v-436h-66v326c2 -1.33301 4.16699 -2.66602 6.5 -3.99902s4.5 -2.66602 6.5 -3.99902zM484.999 779.998c19.333 12.667 41 23.667 65 33v-529h-65v496zM614.999 825.998c4 0 8 0.166992 12 0.5
s8 0.5 12 0.5c14 0 27.667 -1 41 -3v-540h-65v542zM781.999 787.998l14 20c4.66699 6.66699 10 13 16 19v-543h-99v533c24.667 -7.33301 47.667 -17 69 -29zM844.999 859.998c28.667 25.333 61.833 45.332 99.5 59.999s77.834 22 120.501 22s83.167 -7.66699 121.5 -23
s72.333 -36.166 102 -62.499s54 -57.5 73 -93.5s30.5 -74.667 34.5 -116c12 5.33301 23.667 9.33301 35 12s24 4 38 4c26.667 0 51.167 -5 73.5 -15s41.833 -23.667 58.5 -41s29.667 -37.333 39 -60s14 -47 14 -73c0 -24.667 -3.83301 -48 -11.5 -70
s-19.167 -41.5 -34.5 -58.5s-34.833 -30.833 -58.5 -41.5s-51.834 -17 -84.501 -19v-1h-620v576z" />
    <glyph glyph-name="copyright" unicode="&#xa9;" horiz-adv-x="1707" 
d="M1659 861c-15.333 -29.333 -34.3311 -54.002 -56.998 -74.002s-47.667 -38 -75 -54s-56.333 -30.833 -87 -44.5s-61.334 -28.5 -92.001 -44.5v-250c0 -6 -1.33301 -16.167 -4 -30.5s-7.33398 -30.5 -14.001 -48.5s-15.5 -36.5 -26.5 -55.5s-24.667 -36.5 -41 -52.5
s-35.666 -29.167 -57.999 -39.5s-47.833 -15.5 -76.5 -15.5c-43.333 0 -79.666 5.5 -108.999 16.5s-53 24 -71 39s-31 30.5 -39 46.5s-12 29 -12 39v233c-17.333 4 -34 10 -50 18v-251c0 -10.667 -3.83301 -21.834 -11.5 -33.501s-18.334 -22.5 -32.001 -32.5
s-29.667 -18.167 -48 -24.5s-38.166 -9.5 -59.499 -9.5s-46.333 6.66699 -75 20s-55.834 30.166 -81.501 50.499s-47.5 42.166 -65.5 65.499s-27 45 -27 65v271c-43.333 17.333 -83.666 35 -120.999 53c-16 7.33301 -32.167 15.333 -48.5 24s-31.833 17.334 -46.5 26.001
s-27.667 17.5 -39 26.5s-20.333 17.5 -27 25.5l-34.5 42c-9.66699 12 -17.5 22.833 -23.5 32.5s-9.66699 18.834 -11 27.501s0 18 4 28c2 6 8.33301 7.5 19 4.5s23.667 -8.66699 39 -17s32.666 -18.5 51.999 -30.5l60 -35.5c20.667 -11.667 41 -22.167 61 -31.5
s38.333 -16 55 -20c24.667 -6 53.334 -11.167 86.001 -15.5s65.167 -8 97.5 -11s63.166 -5 92.499 -6s53 -1.16699 71 -0.5c18.667 0.666992 35.334 -0.5 50.001 -3.5s28.167 -7.5 40.5 -13.5s23.833 -13.167 34.5 -21.5s21 -17.166 31 -26.499
c1.33301 -1.33301 4 -3.33301 8 -6v28c0 8.66699 5.16699 16.334 15.5 23.001s23.166 12 38.499 16s31.666 7 48.999 9s33 3 47 3h251c4.66699 0 14.334 2 29.001 6s32.167 9.33301 52.5 16s41.833 14.334 64.5 23.001s44.834 18 66.501 28s41.167 20.167 58.5 30.5
s30.333 20.5 39 30.5c13.333 14.667 26.166 24.5 38.499 29.5s21.666 4.83301 27.999 -0.5s8.83301 -16 7.5 -32s-9 -37.667 -23 -65zM1130 875.998c-24 0 -46.667 4.66699 -68 14s-39.833 22 -55.5 38s-28.167 34.667 -37.5 56s-14 44 -14 68s4.66699 46.667 14 68
s21.833 40 37.5 56s34.167 28.667 55.5 38s44 14 68 14s46.667 -4.66699 68 -14s40 -22 56 -38s28.667 -34.667 38 -56s14 -44 14 -68s-4.66699 -46.667 -14 -68s-22 -40 -38 -56s-34.667 -28.667 -56 -38s-44 -14 -68 -14zM669.002 875.998c-24 0 -46.667 4.66699 -68 14
s-40 22 -56 38s-28.667 34.667 -38 56s-14 44 -14 68s4.66699 46.667 14 68s22 40 38 56s34.667 28.667 56 38s44 14 68 14s46.667 -4.66699 68 -14s40 -22 56 -38s28.5 -34.667 37.5 -56s13.5 -44 13.5 -68s-4.5 -46.667 -13.5 -68s-21.5 -40 -37.5 -56
s-34.667 -28.667 -56 -38s-44 -14 -68 -14z" />
    <glyph glyph-name="ordfeminine" unicode="&#xaa;" 
d="M826 -7c-95.333 0 -184.833 18 -268.5 54s-156.834 85.333 -219.501 148s-112 135.834 -148 219.501s-54 173.167 -54 268.5s18 184.833 54 268.5s85.333 156.834 148 219.501s135.834 112 219.501 148s173.167 54 268.5 54s184.833 -18 268.5 -54
s156.834 -85.333 219.501 -148s112 -135.834 148 -219.501s54 -173.167 54 -268.5s-18 -184.833 -54 -268.5s-85.333 -156.834 -148 -219.501s-135.834 -112 -219.501 -148s-173.167 -54 -268.5 -54zM1002 1060c-24.667 0 -45.834 -8.66699 -63.501 -26
s-26.5 -38.666 -26.5 -63.999c0 -24.667 8.83301 -45.667 26.5 -63s38.834 -26 63.501 -26c25.333 0 46.666 8.66699 63.999 26s26 38.333 26 63c0 25.333 -8.66699 46.666 -26 63.999s-38.666 26 -63.999 26zM661 1060c-25.333 0 -46.666 -8.66699 -63.999 -26
s-26 -38.666 -26 -63.999c0 -24.667 8.66699 -45.667 26 -63s38.666 -26 63.999 -26c24.667 0 45.834 8.66699 63.501 26s26.5 38.333 26.5 63c0 25.333 -8.83301 46.666 -26.5 63.999s-38.834 26 -63.501 26zM341 593h2.00488c4.66699 -62.667 20.667 -121.167 48 -175.5
s62.666 -101.5 105.999 -141.5s93.166 -71.5 149.499 -94.5s116.166 -34.5 179.499 -34.5s123.166 11.5 179.499 34.5s106.166 54.5 149.499 94.5s78.5 87.167 105.5 141.5s43.167 112.833 48.5 175.5h2v180h-970v-180zM1246 612h-851v110h851v-110z" />
    <glyph glyph-name="registered" unicode="&#xae;" horiz-adv-x="1707" 
d="M313 152c-28 30.667 -54.332 63.6689 -78.999 99.002s-46.334 73.333 -65.001 114s-34.167 84.334 -46.5 131.001s-19.833 96.667 -22.5 150v62c2.66699 45.333 9 88.333 19 129s22.333 79.667 37 117c18.667 48 42 93.667 70 137s59 79.333 93 108
c0 -23.333 0.333008 -45.333 1 -66s2.33398 -38 5.00098 -52c7.33301 -43.333 21.833 -86.666 43.5 -129.999s47.5 -80 77.5 -110c24 -23.333 51.333 -44 82 -62s62.667 -35.667 96 -53l194 -101l193 -100l62.5 -36c21 -12.667 40.333 -26.834 58 -42.501
s33.167 -32.667 46.5 -51s23 -38.5 29 -60.5c8.66699 -31.333 11.167 -62 7.5 -92s-10.834 -58.167 -21.501 -84.5s-23.667 -50.5 -39 -72.5s-30.333 -40.667 -45 -56c-27.333 -28.667 -58.5 -52.334 -93.5 -71.001s-73.833 -31.334 -116.5 -38.001h-101
c-104 11.333 -196.667 37.166 -278 77.499s-150.333 91.5 -207 153.5zM813.001 912.002c-29.333 15.333 -58.333 31.4961 -87 48.4961s-54 36.667 -76 59s-39.167 49 -51.5 80s-16.833 68.167 -13.5 111.5c0.666992 10 2.83398 21.333 6.50098 34s8 25.334 13 38.001
s10.833 24.834 17.5 36.501s14 21.834 22 30.501c22.667 25.333 51.667 44.333 87 57s72.666 22.334 111.999 29.001h38c100 -8 192 -29.333 276 -64s157.667 -81.667 221 -141s115.333 -130.333 156 -213s67.667 -176 81 -280v-119c-2 0 -3 -2 -3 -6
c-4.66699 -59.333 -15.167 -114.333 -31.5 -165s-35.5 -96 -57.5 -136c-7.33301 -14 -15.5 -27.5 -24.5 -40.5s-18.5 -24.167 -28.5 -33.5c4.66699 82.667 -4.33301 153.5 -27 212.5s-54 110.5 -94 154.5c-22.667 24 -48 45 -76 63s-58 35.333 -90 52l-186 96z" />
    </font>
</defs>
</svg>
